<svg width="60" height="260" viewBox="0 0 60 260" fill="none" xmlns="http://www.w3.org/2000/svg">
<path fill-rule="evenodd" clip-rule="evenodd" d="M0 257.928L0 260H2.07171V257.928H0ZM2.07171 0H0L0 2.07172H1.03585V1.03586H2.07171V0ZM0 249.641H2.07171L2.07171 247.57H0L0 249.641ZM0 239.283H2.07171V237.211H0L0 239.283ZM0 228.924H2.07171L2.07171 226.853H0L0 228.924ZM0 218.566H2.07171V216.494H0L0 218.566ZM0 208.207H2.07171V206.135H0L0 208.207ZM0 197.849H2.07171V195.777H0L0 197.849ZM0 187.49H2.07171V185.418H0L0 187.49ZM0 177.131H2.07171L2.07171 175.06H0L0 177.131ZM0 166.773H2.07171V164.701H0L0 166.773ZM0 156.414H2.07171L2.07171 154.343H0L0 156.414ZM0 146.056H2.07171V143.984H0L0 146.056ZM0 135.697H2.07171V133.625H0L0 135.697ZM0 125.339H2.07171V123.267H0L0 125.339ZM0 114.98H2.07171V112.908H0L0 114.98ZM0 104.622H2.07171L2.07171 102.55H0L0 104.622ZM0 94.2629H2.07171V92.1912H0L0 94.2629ZM0 83.9044H2.07171L2.07171 81.8327H0L0 83.9044ZM0 73.5458H2.07171V71.4741H0L0 73.5458ZM0 63.1872H2.07171V61.1155H0L0 63.1872ZM0 52.8287H2.07171V50.757H0L0 52.8287ZM0 42.4701H2.07171V40.3984H0L0 42.4701ZM0 32.1115H2.07171L2.07171 30.0398H0L0 32.1115ZM0 21.753H2.07171V19.6813H0L0 21.753ZM0 11.3944H2.07171L2.07171 9.32271H0L0 11.3944ZM9.3227 0V2.07172H11.3944V0H9.3227ZM19.6813 0V2.07172H21.753V0H19.6813ZM30.0398 0V2.07172H32.1116V0H30.0398ZM40.3984 0V2.07172H42.4701V0H40.3984ZM50.757 0V2.07172H52.8287V0H50.757ZM61.1155 0V2.07172H63.1873V0H61.1155ZM71.4741 0V2.07172H73.5458V0H71.4741ZM81.8327 0V2.07172H83.9044V0H81.8327ZM92.1912 0V2.07172H94.2629V0H92.1912ZM102.55 0V2.07172H104.622V0H102.55ZM112.908 0V2.07172H114.98V0H112.908ZM123.267 0V2.07172H125.339V0H123.267ZM133.626 0V2.07172H135.697V0H133.626ZM143.984 0V2.07172H146.056V0H143.984ZM154.343 0V2.07172H156.414V0H154.343ZM164.701 0V2.07172H166.773V0H164.701ZM175.06 0V2.07172H177.132V0H175.06ZM185.418 0V2.07172H187.49V0H185.418ZM195.777 0V2.07172H197.849V0H195.777ZM206.135 0V2.07172H208.207V0H206.135Z" fill="#9153DF"/>
<path fill-rule="evenodd" clip-rule="evenodd" d="M21.7529 258.964H19.6812V256.892H21.7529V258.964ZM12.4302 258.964V257.928H11.3944V256.892H10.3585V258.964H12.4302ZM12.4302 10.3585H10.3585L10.3585 12.4302H11.3944V11.3944H12.4302V10.3585ZM10.3585 249.641H12.4302V247.57H10.3585V249.641ZM10.3585 239.283H12.4302V237.211H10.3585V239.283ZM10.3585 228.924H12.4302V226.853H10.3585V228.924ZM10.3585 218.566H12.4302V216.494H10.3585V218.566ZM10.3585 208.207H12.4302V206.135H10.3585V208.207ZM10.3585 197.849H12.4302V195.777H10.3585V197.849ZM10.3585 187.49H12.4302V185.418H10.3585L10.3585 187.49ZM10.3585 177.131H12.4302V175.06H10.3585V177.131ZM10.3585 166.773H12.4302V164.701H10.3585V166.773ZM10.3585 156.414H12.4302V154.343H10.3585V156.414ZM10.3585 146.056H12.4302V143.984H10.3585V146.056ZM10.3585 135.697H12.4302V133.625H10.3585V135.697ZM10.3585 125.339H12.4302L12.4302 123.267H10.3585V125.339ZM10.3585 114.98H12.4302V112.908H10.3585V114.98ZM10.3585 104.621H12.4302L12.4302 102.55H10.3585V104.621ZM10.3585 94.2629H12.4302V92.1912H10.3585V94.2629ZM10.3585 83.9043H12.4302V81.8326H10.3585V83.9043ZM10.3585 73.5458H12.4302V71.4741H10.3585V73.5458ZM10.3585 63.1872H12.4302V61.1155H10.3585V63.1872ZM10.3585 52.8286H12.4302V50.7569H10.3585V52.8286ZM10.3585 42.4701H12.4302V40.3984H10.3585L10.3585 42.4701ZM10.3585 32.1115H12.4302V30.0398H10.3585V32.1115ZM10.3585 21.7529H12.4302V19.6812H10.3585V21.7529ZM19.6812 10.3585V12.4302H21.7529V10.3585H19.6812ZM30.0398 10.3585V12.4302H32.1115V10.3585H30.0398ZM40.3984 10.3585V12.4302H42.4701V10.3585H40.3984ZM50.7569 10.3585V12.4302H52.8286V10.3585H50.7569ZM61.1155 10.3585V12.4302H63.1872V10.3585H61.1155ZM71.4741 10.3585V12.4302H73.5458V10.3585H71.4741ZM81.8326 10.3585V12.4302H83.9043V10.3585H81.8326ZM92.1912 10.3585V12.4302H94.2629V10.3585H92.1912ZM102.55 10.3585V12.4302H104.621V10.3585H102.55ZM112.908 10.3585V12.4302H114.98V10.3585H112.908ZM123.267 10.3585V12.4302H125.339V10.3585H123.267ZM133.625 10.3585V12.4302H135.697V10.3585H133.625ZM143.984 10.3585V12.4302H146.056V10.3585H143.984ZM154.343 10.3585V12.4302H156.414V10.3585H154.343ZM164.701 10.3585V12.4302H166.773V10.3585H164.701ZM175.06 10.3585V12.4302H177.131V10.3585H175.06ZM185.418 10.3585V12.4302H187.49V10.3585H185.418ZM195.777 10.3585V12.4302H197.849V10.3585H195.777ZM206.135 10.3585V12.4302H208.207V10.3585H206.135ZM208.207 258.964V256.892H206.135V258.964H208.207ZM197.849 258.964V256.892H195.777V258.964H197.849ZM187.49 258.964V256.892H185.418V258.964H187.49ZM177.131 258.964V256.892H175.06V258.964H177.131ZM166.773 258.964V256.892H164.701V258.964H166.773ZM156.414 258.964V256.892H154.343V258.964H156.414ZM146.056 258.964V256.892H143.984V258.964H146.056ZM135.697 258.964V256.892H133.625V258.964H135.697ZM125.339 258.964V256.892H123.267V258.964H125.339ZM114.98 258.964V256.892H112.908V258.964H114.98ZM104.621 258.964V256.892H102.55V258.964H104.621ZM94.2629 258.964V256.892H92.1912V258.964H94.2629ZM83.9043 258.964V256.892H81.8326V258.964H83.9043ZM73.5458 258.964V256.892H71.4741V258.964H73.5458ZM63.1872 258.964V256.892H61.1155V258.964H63.1872ZM52.8286 258.964V256.892H50.7569V258.964H52.8286ZM42.4701 258.964V256.892H40.3984V258.964H42.4701ZM32.1115 258.964V256.892H30.0398V258.964H32.1115Z" fill="#9153DF"/>
<path fill-rule="evenodd" clip-rule="evenodd" d="M32.1116 248.606H30.0399V246.534H32.1116V248.606ZM22.7889 248.606V247.57H21.753V246.534H20.7172V248.606H22.7889ZM22.7889 20.7171H20.7172V22.7888H21.753V21.753H22.7889V20.7171ZM20.7172 239.283H22.7889V237.211H20.7172V239.283ZM20.7172 228.924H22.7889V226.853H20.7172V228.924ZM20.7172 218.566H22.7889V216.494H20.7172V218.566ZM20.7172 208.207H22.7889V206.135H20.7172V208.207ZM20.7172 197.849H22.7889V195.777H20.7172V197.849ZM20.7172 187.49H22.7889V185.418H20.7172V187.49ZM20.7172 177.131H22.7889V175.06H20.7172V177.131ZM20.7172 166.773H22.7889L22.7889 164.701H20.7172V166.773ZM20.7172 156.414H22.7889V154.343H20.7172V156.414ZM20.7172 146.056H22.7889V143.984H20.7172V146.056ZM20.7172 135.697H22.7889V133.626H20.7172V135.697ZM20.7172 125.339H22.7889V123.267H20.7172V125.339ZM20.7172 114.98H22.7889V112.908H20.7172V114.98ZM20.7172 104.622H22.7889V102.55H20.7172L20.7172 104.622ZM20.7172 94.263H22.7889V92.1912H20.7172V94.263ZM20.7172 83.9044H22.7889V81.8327H20.7172V83.9044ZM20.7172 73.5458H22.7889V71.4741H20.7172V73.5458ZM20.7172 63.1873H22.7889V61.1155H20.7172V63.1873ZM20.7172 52.8287H22.7889V50.757H20.7172V52.8287ZM20.7172 42.4701H22.7889V40.3984H20.7172V42.4701ZM20.7172 32.1116H22.7889V30.0398H20.7172V32.1116ZM30.0399 20.7171V22.7888H32.1116V20.7171H30.0399ZM40.3984 20.7171V22.7888H42.4702V20.7171H40.3984ZM50.757 20.7171V22.7888H52.8287V20.7171H50.757ZM61.1156 20.7171V22.7888H63.1873V20.7171H61.1156ZM71.4741 20.7171V22.7888H73.5459V20.7171H71.4741ZM81.8327 20.7171V22.7888H83.9044V20.7171H81.8327ZM92.1913 20.7171V22.7888H94.263V20.7171H92.1913ZM102.55 20.7171V22.7888H104.622V20.7171H102.55ZM112.908 20.7171V22.7888H114.98V20.7171H112.908ZM123.267 20.7171V22.7888H125.339V20.7171H123.267ZM133.626 20.7171V22.7888H135.697V20.7171H133.626ZM143.984 20.7171V22.7888H146.056V20.7171H143.984ZM154.343 20.7171V22.7888H156.414V20.7171H154.343ZM164.701 20.7171V22.7888H166.773V20.7171H164.701ZM175.06 20.7171V22.7888H177.132V20.7171H175.06ZM185.418 20.7171V22.7888H187.49V20.7171H185.418ZM195.777 20.7171V22.7888H197.849V20.7171H195.777ZM206.135 20.7171V22.7888H208.207V20.7171H206.135ZM208.207 248.606V246.534H206.135V248.606H208.207ZM197.849 248.606V246.534H195.777V248.606H197.849ZM187.49 248.606V246.534H185.418V248.606H187.49ZM177.132 248.606V246.534H175.06V248.606H177.132ZM166.773 248.606V246.534H164.701V248.606H166.773ZM156.414 248.606V246.534H154.343V248.606H156.414ZM146.056 248.606V246.534H143.984V248.606H146.056ZM135.697 248.606V246.534H133.626V248.606H135.697ZM125.339 248.606V246.534H123.267V248.606H125.339ZM114.98 248.606V246.534H112.908V248.606H114.98ZM104.622 248.606V246.534H102.55V248.606H104.622ZM94.263 248.606V246.534H92.1913V248.606H94.263ZM83.9044 248.606V246.534H81.8327V248.606H83.9044ZM73.5458 248.606V246.534H71.4741V248.606H73.5458ZM63.1873 248.606V246.534H61.1156V248.606H63.1873ZM52.8287 248.606V246.534H50.757V248.606H52.8287ZM42.4702 248.606V246.534H40.3984V248.606H42.4702Z" fill="#9153DF"/>
<path fill-rule="evenodd" clip-rule="evenodd" d="M42.4701 238.247H40.3984V236.175H42.4701V238.247ZM33.1474 238.247V237.211H32.1115V236.175H31.0757V238.247H33.1474ZM33.1474 31.0757H31.0757V33.1475H32.1115V32.1116H33.1474V31.0757ZM31.0757 228.924H33.1474V226.853H31.0757V228.924ZM31.0757 218.566H33.1474V216.494H31.0757V218.566ZM31.0757 208.207H33.1474V206.136H31.0757V208.207ZM31.0757 197.849H33.1474V195.777H31.0757V197.849ZM31.0757 187.49H33.1474V185.418H31.0757V187.49ZM31.0757 177.132H33.1474L33.1474 175.06H31.0757V177.132ZM31.0757 166.773H33.1474V164.701H31.0757V166.773ZM31.0757 156.414H33.1474V154.343H31.0757V156.414ZM31.0757 146.056H33.1474V143.984H31.0757V146.056ZM31.0757 135.697H33.1474V133.626H31.0757V135.697ZM31.0757 125.339H33.1474V123.267H31.0757V125.339ZM31.0757 114.98H33.1474V112.908H31.0757V114.98ZM31.0757 104.622H33.1474V102.55H31.0757V104.622ZM31.0757 94.263H33.1474V92.1913H31.0757L31.0757 94.263ZM31.0757 83.9044H33.1474V81.8327H31.0757V83.9044ZM31.0757 73.5459H33.1474V71.4742H31.0757V73.5459ZM31.0757 63.1873H33.1474V61.1156H31.0757V63.1873ZM31.0757 52.8287H33.1474V50.757H31.0757V52.8287ZM31.0757 42.4702H33.1474V40.3985H31.0757V42.4702ZM40.3984 31.0757V33.1475H42.4701V31.0757H40.3984ZM50.757 31.0757V33.1475H52.8287V31.0757H50.757ZM61.1155 31.0757V33.1475H63.1872V31.0757H61.1155ZM71.4741 31.0757V33.1475H73.5458V31.0757H71.4741ZM81.8327 31.0757V33.1475H83.9044V31.0757H81.8327ZM92.1912 31.0757V33.1475H94.2629V31.0757H92.1912ZM102.55 31.0757V33.1475H104.622V31.0757H102.55ZM112.908 31.0757V33.1475H114.98V31.0757H112.908ZM123.267 31.0757V33.1475H125.339V31.0757H123.267ZM133.625 31.0757V33.1475H135.697V31.0757H133.625ZM143.984 31.0757V33.1475H146.056V31.0757H143.984ZM154.343 31.0757V33.1475H156.414V31.0757H154.343ZM164.701 31.0757V33.1475H166.773V31.0757H164.701ZM175.06 31.0757V33.1475H177.131V31.0757H175.06ZM185.418 31.0757V33.1475H187.49V31.0757H185.418ZM195.777 31.0757V33.1475H197.849V31.0757H195.777ZM206.135 31.0757V33.1475H208.207V31.0757H206.135ZM208.207 238.247V236.175H206.135V238.247H208.207ZM197.849 238.247V236.175H195.777V238.247H197.849ZM187.49 238.247V236.175H185.418V238.247H187.49ZM177.131 238.247V236.175H175.06V238.247H177.131ZM166.773 238.247V236.175H164.701V238.247H166.773ZM156.414 238.247V236.175H154.343V238.247H156.414ZM146.056 238.247V236.175H143.984V238.247H146.056ZM135.697 238.247V236.175H133.625V238.247H135.697ZM125.339 238.247V236.175H123.267V238.247H125.339ZM114.98 238.247V236.175H112.908V238.247H114.98ZM104.622 238.247V236.175H102.55V238.247H104.622ZM94.2629 238.247V236.175H92.1912V238.247H94.2629ZM83.9044 238.247V236.175H81.8327V238.247H83.9044ZM73.5458 238.247V236.175H71.4741V238.247H73.5458ZM63.1872 238.247V236.175H61.1155V238.247H63.1872ZM52.8287 238.247V236.175H50.757V238.247H52.8287Z" fill="#9153DF"/>
<path fill-rule="evenodd" clip-rule="evenodd" d="M52.8287 227.888H50.757V225.817H52.8287V227.888ZM43.506 227.888V226.853H42.4702V225.817H41.4343V227.888H43.506ZM41.4343 216.494V218.566H43.506V216.494H41.4343ZM43.506 41.4343H41.4343V43.506H42.4702V42.4701H43.506V41.4343ZM41.4343 208.207H43.506V206.135H41.4343V208.207ZM41.4343 197.849H43.506V195.777H41.4343V197.849ZM41.4343 187.49H43.506V185.418H41.4343V187.49ZM41.4343 177.131H43.506V175.06H41.4343V177.131ZM41.4343 166.773H43.506L43.506 164.701H41.4343V166.773ZM41.4343 156.414H43.506V154.343H41.4343V156.414ZM41.4343 146.056H43.506V143.984H41.4343V146.056ZM41.4343 135.697H43.506V133.625H41.4343V135.697ZM41.4343 125.339H43.506V123.267H41.4343V125.339ZM41.4343 114.98H43.506V112.908H41.4343V114.98ZM41.4343 104.622H43.506V102.55H41.4343V104.622ZM41.4343 94.2629H43.506V92.1912H41.4343V94.2629ZM41.4343 83.9044H43.506V81.8327H41.4343V83.9044ZM41.4343 73.5458H43.506V71.4741H41.4343V73.5458ZM41.4343 63.1872H43.506V61.1155H41.4343V63.1872ZM41.4343 52.8287H43.506V50.757H41.4343V52.8287ZM50.757 41.4343V43.506H52.8287V41.4343H50.757ZM61.1156 41.4343V43.506H63.1873V41.4343H61.1156ZM71.4742 41.4343V43.506H73.5459V41.4343H71.4742ZM81.8327 41.4343V43.506H83.9044V41.4343H81.8327ZM92.1913 41.4343V43.506H94.263V41.4343H92.1913ZM102.55 41.4343V43.506H104.622V41.4343H102.55ZM112.908 41.4343V43.506H114.98V41.4343H112.908ZM123.267 41.4343V43.506H125.339V41.4343H123.267ZM133.626 41.4343V43.506H135.697V41.4343H133.626ZM143.984 41.4343V43.506H146.056V41.4343H143.984ZM154.343 41.4343V43.506H156.414V41.4343H154.343ZM164.701 41.4343V43.506H166.773V41.4343H164.701ZM175.06 41.4343V43.506H177.132V41.4343H175.06ZM185.418 41.4343V43.506H187.49V41.4343H185.418ZM195.777 41.4343V43.506H197.849V41.4343H195.777ZM206.136 41.4343V43.506H208.207V41.4343H206.136ZM208.207 227.888V225.817H206.136V227.888H208.207ZM197.849 227.888V225.817H195.777V227.888H197.849ZM187.49 227.888V225.817H185.418V227.888H187.49ZM177.132 227.888V225.817H175.06V227.888H177.132ZM166.773 227.888V225.817H164.701V227.888H166.773ZM156.414 227.888V225.817H154.343V227.888H156.414ZM146.056 227.888V225.817H143.984V227.888H146.056ZM135.697 227.888V225.817H133.626V227.888H135.697ZM125.339 227.888V225.817H123.267V227.888H125.339ZM114.98 227.888V225.817H112.908V227.888H114.98ZM104.622 227.888V225.817H102.55V227.888H104.622ZM94.263 227.888V225.817H92.1913V227.888H94.263ZM83.9044 227.888V225.817H81.8327V227.888H83.9044ZM73.5459 227.888V225.817H71.4742V227.888H73.5459ZM63.1873 227.888V225.817H61.1156V227.888H63.1873Z" fill="#9153DF"/>
<path fill-rule="evenodd" clip-rule="evenodd" d="M63.1873 217.53H61.1156V215.458H63.1873V217.53ZM53.8646 217.53V216.494H52.8287V215.458H51.7928V217.53H53.8646ZM51.7928 206.135V208.207H53.8646V206.135H51.7928ZM53.8646 51.7929H51.7928V53.8646H52.8287V52.8287H53.8646V51.7929ZM51.7928 197.849H53.8646V195.777H51.7928V197.849ZM51.7928 187.49H53.8646V185.418H51.7928V187.49ZM51.7928 177.132H53.8646V175.06H51.7928V177.132ZM51.7928 166.773H53.8646V164.701H51.7928V166.773ZM51.7928 156.414H53.8646L53.8646 154.343H51.7928V156.414ZM51.7928 146.056H53.8646V143.984H51.7928V146.056ZM51.7928 135.697H53.8646V133.626H51.7928V135.697ZM51.7928 125.339H53.8646V123.267H51.7928V125.339ZM51.7928 114.98H53.8646V112.908H51.7928V114.98ZM51.7928 104.622H53.8646V102.55H51.7928V104.622ZM51.7928 94.263H53.8646V92.1913H51.7928V94.263ZM51.7928 83.9044H53.8646V81.8327H51.7928V83.9044ZM51.7928 73.5459H53.8646V71.4741H51.7928V73.5459ZM51.7928 63.1873H53.8646V61.1156H51.7928V63.1873ZM61.1156 51.7929V53.8646H63.1873V51.7929H61.1156ZM71.4741 51.7929V53.8646H73.5458V51.7929H71.4741ZM81.8327 51.7929V53.8646H83.9044V51.7929H81.8327ZM92.1912 51.7929V53.8646H94.263V51.7929H92.1912ZM102.55 51.7929V53.8646H104.622V51.7929H102.55ZM112.908 51.7929V53.8646H114.98V51.7929H112.908ZM123.267 51.7929V53.8646H125.339V51.7929H123.267ZM133.626 51.7929V53.8646H135.697V51.7929H133.626ZM143.984 51.7929V53.8646H146.056V51.7929H143.984ZM154.343 51.7929V53.8646H156.414V51.7929H154.343ZM164.701 51.7929V53.8646H166.773V51.7929H164.701ZM175.06 51.7929V53.8646H177.131V51.7929H175.06ZM185.418 51.7929V53.8646H187.49V51.7929H185.418ZM195.777 51.7929V53.8646H197.849V51.7929H195.777ZM206.135 51.7929V53.8646H208.207V51.7929H206.135ZM208.207 217.53V215.458H206.135V217.53H208.207ZM197.849 217.53V215.458H195.777V217.53H197.849ZM187.49 217.53V215.458H185.418V217.53H187.49ZM177.131 217.53V215.458H175.06V217.53H177.131ZM166.773 217.53V215.458H164.701V217.53H166.773ZM156.414 217.53V215.458H154.343V217.53H156.414ZM146.056 217.53V215.458H143.984V217.53H146.056ZM135.697 217.53V215.458H133.626V217.53H135.697ZM125.339 217.53V215.458H123.267V217.53H125.339ZM114.98 217.53V215.458H112.908V217.53H114.98ZM104.622 217.53V215.458H102.55V217.53H104.622ZM94.263 217.53V215.458H92.1912V217.53H94.263ZM83.9044 217.53V215.458H81.8327V217.53H83.9044ZM73.5458 217.53V215.458H71.4741V217.53H73.5458Z" fill="#9153DF"/>
</svg>
