<svg width="251" height="360" viewBox="0 0 251 360" fill="none" xmlns="http://www.w3.org/2000/svg">
<path fill-rule="evenodd" clip-rule="evenodd" d="M2 0H3.8147e-06V2H2V0ZM249 360H251V358H250V359H249V360ZM251 2V0H249V0.999992H250V2H251ZM9.99999 0V2H12V0H9.99999ZM20 0V2H22V0H20ZM30 0V2H32V0H30ZM40 0V2H42V0H40ZM50 0V2H52V0H50ZM60 0V2H62V0H60ZM70 0V2H72V0H70ZM80 0V2H82V0H80ZM90 0V2H92V0H90ZM100 0V2H102V0H100ZM110 0V2H112V0H110ZM120 0V2H122V0H120ZM130 0V2H132V0H130ZM140 0V2H142V0H140ZM150 0V2H152V0H150ZM160 0V2H162V0H160ZM170 0V2H172V0H170ZM180 0V2H182V0H180ZM190 0V2H192V0H190ZM200 0V2H202V0H200ZM210 0V2H212V0H210ZM220 0V2H222V0H220ZM230 0V2H232V0H230ZM240 0V2H242V0H240ZM251 8.99999H249V11H251V8.99999ZM251 19H249V21H251V19ZM251 29H249V31H251V29ZM251 39H249V41H251V39ZM251 49H249V51H251V49ZM251 59H249V61H251V59ZM251 69H249V71H251V69ZM251 79H249V81H251V79ZM251 89H249V91H251V89ZM251 99H249V101H251V99ZM251 109H249V111H251V109ZM251 119H249V121H251V119ZM251 129H249V131H251V129ZM251 139H249V141H251V139ZM251 149H249V151H251V149ZM251 159H249V161H251V159ZM251 169H249V171H251V169ZM251 179H249V181H251V179ZM251 189H249V191H251V189ZM251 199H249V201H251V199ZM251 209H249V211H251V209ZM251 219H249V221H251V219ZM251 229H249V231H251V229ZM251 239H249V241H251V239ZM251 249H249V251H251V249ZM251 259H249V261H251V259ZM251 269H249V271H251V269ZM251 279H249V281H251V279ZM251 289H249V291H251V289ZM251 299H249V301H251V299ZM251 309H249V311H251V309ZM251 319H249V321H251V319ZM251 329H249V331H251V329ZM251 339H249V341H251V339ZM251 349H249V351H251V349ZM242 360V358H240V360H242ZM232 360V358H230V360H232ZM222 360V358H220V360H222ZM212 360V358H210V360H212ZM202 360V358H200V360H202ZM192 360V358H190V360H192ZM182 360V358H180V360H182ZM172 360V358H170V360H172ZM162 360V358H160V360H162ZM152 360V358H150V360H152ZM142 360V358H140V360H142ZM132 360V358H130V360H132ZM122 360V358H120V360H122ZM112 360V358H110V360H112ZM102 360V358H100V360H102ZM92 360V358H90V360H92ZM82 360V358H80V360H82ZM72 360V358H70V360H72ZM62 360V358H60V360H62ZM52 360V358H50V360H52ZM42 360V358H40V360H42ZM32 360V358H30V360H32ZM22 360V358H20V360H22ZM12 360V358H10V360H12ZM2 360V358H0V360H2Z" fill="url(#paint0_linear_101_189)"/>
<path fill-rule="evenodd" clip-rule="evenodd" d="M1 21V19H3V21H1ZM1 12H2V11H3V10H1V12ZM1 348V350H3V349H2V348H1ZM239 350H241V348H240V349H239V350ZM241 12V10H239V11H240V12H241ZM10 10V12H12V10H10ZM20 10V12H22V10H20ZM30 10V12H32V10H30ZM40 10V12H42V10H40ZM50 10V12H52V10H50ZM60 10V12H62V10H60ZM70 10V12H72V10H70ZM80 10V12H82V10H80ZM90 10V12H92V10H90ZM100 10V12H102V10H100ZM110 10V12H112V10H110ZM120 10V12H122V10H120ZM130 10V12H132V10H130ZM140 10V12H142V10H140ZM150 10V12H152V10H150ZM160 10V12H162V10H160ZM170 10V12H172V10H170ZM180 10V12H182V10H180ZM190 10V12H192V10H190ZM200 10V12H202V10H200ZM210 10V12H212V10H210ZM220 10V12H222V10H220ZM230 10V12H232V10H230ZM241 19H239V21H241V19ZM241 29H239V31H241V29ZM241 39H239V41H241V39ZM241 49H239V51H241V49ZM241 59H239V61H241V59ZM241 69H239V71H241V69ZM241 79H239V81H241V79ZM241 89H239V91H241V89ZM241 99H239V101H241V99ZM241 109H239V111H241V109ZM241 119H239V121H241V119ZM241 129H239V131H241V129ZM241 139H239V141H241V139ZM241 149H239V151H241V149ZM241 159H239V161H241V159ZM241 169H239V171H241V169ZM241 179H239V181H241V179ZM241 189H239V191H241V189ZM241 199H239V201H241V199ZM241 209H239V211H241V209ZM241 219H239V221H241V219ZM241 229H239V231H241V229ZM241 239H239V241H241V239ZM241 249H239V251H241V249ZM241 259H239V261H241V259ZM241 269H239V271H241V269ZM241 279H239V281H241V279ZM241 289H239V291H241V289ZM241 299H239V301H241V299ZM241 309H239V311H241V309ZM241 319H239V321H241V319ZM241 329H239V331H241V329ZM241 339H239V341H241V339ZM232 350V348H230V350H232ZM222 350V348H220V350H222ZM212 350V348H210V350H212ZM202 350V348H200V350H202ZM192 350V348H190V350H192ZM182 350V348H180V350H182ZM172 350V348H170V350H172ZM162 350V348H160V350H162ZM152 350V348H150V350H152ZM142 350V348H140V350H142ZM132 350V348H130V350H132ZM122 350V348H120V350H122ZM112 350V348H110V350H112ZM102 350V348H100V350H102ZM92 350V348H90V350H92ZM82 350V348H80V350H82ZM72 350V348H70V350H72ZM62 350V348H60V350H62ZM52 350V348H50V350H52ZM42 350V348H40V350H42ZM32 350V348H30V350H32ZM22 350V348H20V350H22ZM12 350V348H10V350H12ZM1 341H3V339H1V341ZM1 331H3V329H1V331ZM1 321H3V319H1V321ZM1 311H3V309H1V311ZM1 301H3V299H1V301ZM1 291H3V289H1V291ZM1 281H3V279H1V281ZM1 271H3V269H1V271ZM1 261H3V259H1V261ZM1 251H3V249H1V251ZM1 241H3V239H1V241ZM1 231H3V229H1V231ZM1 221H3V219H1V221ZM1 211H3V209H1V211ZM1 201H3V199H1V201ZM1 191H3V189H1V191ZM1 181H3V179H1V181ZM1 171H3V169H1V171ZM1 161H3V159H1V161ZM1 151H3V149H1V151ZM1 141H3V139H1V141ZM1 131H3V129H1V131ZM1 121H3V119H1V121ZM1 111H3V109H1V111ZM1 101H3V99H1V101ZM1 91H3V89H1V91ZM1 81H3V79H1V81ZM1 71H3V69H1V71ZM1 61H3V59H1V61ZM1 51H3V49H1V51ZM1 41H3V39H1V41ZM1 31H3V29H1V31Z" fill="url(#paint1_linear_101_189)"/>
<path fill-rule="evenodd" clip-rule="evenodd" d="M11 31V29H13V31H11ZM11 22H12V21H13V20H11V22ZM11 338V340H13V339H12L12 338H11ZM229 340H231V338H230V339H229V340ZM231 22V20H229V21H230V22H231ZM20 20V22H22V20H20ZM30 20V22H32V20H30ZM40 20V22H42V20H40ZM50 20V22H52V20H50ZM60 20V22H62V20H60ZM70 20V22H72V20H70ZM80 20V22H82V20H80ZM90 20V22H92V20H90ZM100 20V22H102V20H100ZM110 20V22H112V20H110ZM120 20V22H122V20H120ZM130 20V22H132V20H130ZM140 20V22H142V20H140ZM150 20V22H152V20H150ZM160 20V22H162V20H160ZM170 20V22H172V20H170ZM180 20V22H182V20H180ZM190 20V22H192V20H190ZM200 20V22H202V20H200ZM210 20V22H212V20H210ZM220 20V22H222V20H220ZM231 29H229V31H231V29ZM231 39H229V41H231V39ZM231 49H229V51H231V49ZM231 59H229V61H231V59ZM231 69H229V71H231V69ZM231 79H229V81H231V79ZM231 89H229V91H231V89ZM231 99H229V101H231V99ZM231 109H229V111H231V109ZM231 119H229V121H231V119ZM231 129H229V131H231V129ZM231 139H229V141H231V139ZM231 149H229V151H231V149ZM231 159H229V161H231V159ZM231 169H229V171H231V169ZM231 179H229V181H231V179ZM231 189H229V191H231V189ZM231 199H229V201H231V199ZM231 209H229V211H231V209ZM231 219H229V221H231V219ZM231 229H229V231H231V229ZM231 239H229V241H231V239ZM231 249H229V251H231V249ZM231 259H229V261H231V259ZM231 269H229V271H231V269ZM231 279H229V281H231V279ZM231 289H229V291H231V289ZM231 299H229V301H231V299ZM231 309H229V311H231V309ZM231 319H229V321H231V319ZM231 329H229V331H231V329ZM222 340V338H220V340H222ZM212 340V338H210V340H212ZM202 340V338H200V340H202ZM192 340V338H190V340H192ZM182 340V338H180V340H182ZM172 340V338H170V340H172ZM162 340V338H160V340H162ZM152 340V338H150V340H152ZM142 340V338H140V340H142ZM132 340V338H130V340H132ZM122 340V338H120V340H122ZM112 340V338H110V340H112ZM102 340V338H100V340H102ZM92 340V338H90V340H92ZM82 340V338H80V340H82ZM72 340V338H70V340H72ZM62 340V338H60V340H62ZM52 340V338H50V340H52ZM42 340V338H40V340H42ZM32 340V338H30V340H32ZM22 340V338H20V340H22ZM11 331H13V329H11V331ZM11 321H13V319H11V321ZM11 311H13V309H11V311ZM11 301H13V299H11V301ZM11 291H13V289H11V291ZM11 281H13V279H11V281ZM11 271H13V269H11V271ZM11 261H13V259H11V261ZM11 251H13V249H11V251ZM11 241H13V239H11V241ZM11 231H13V229H11V231ZM11 221H13V219H11V221ZM11 211H13V209H11V211ZM11 201H13V199H11V201ZM11 191H13V189H11V191ZM11 181H13V179H11V181ZM11 171H13V169H11V171ZM11 161H13V159H11V161ZM11 151H13V149H11V151ZM11 141H13V139H11V141ZM11 131H13V129H11V131ZM11 121H13V119H11V121ZM11 111H13V109H11V111ZM11 101H13V99H11V101ZM11 91H13V89H11V91ZM11 81H13V79H11V81ZM11 71H13V69H11V71ZM11 61H13V59H11V61ZM11 51H13V49H11V51ZM11 41H13V39H11V41Z" fill="url(#paint2_linear_101_189)"/>
<path fill-rule="evenodd" clip-rule="evenodd" d="M21 41V39H23V41H21ZM21 32H22V31H23V30H21V32ZM21 328V330H23V329H22V328H21ZM219 330H221V328H220V329H219V330ZM221 32V30H219V31H220V32H221ZM30 30V32H32V30H30ZM40 30V32H42V30H40ZM50 30V32H52V30H50ZM60 30V32H62V30H60ZM70 30V32H72V30H70ZM80 30V32H82V30H80ZM90 30V32H92V30H90ZM100 30V32H102V30H100ZM110 30V32H112V30H110ZM120 30V32H122V30H120ZM130 30V32H132V30H130ZM140 30V32H142V30H140ZM150 30V32H152V30H150ZM160 30V32H162V30H160ZM170 30V32H172V30H170ZM180 30V32H182V30H180ZM190 30V32H192V30H190ZM200 30V32H202V30H200ZM210 30V32H212V30H210ZM221 39H219V41H221V39ZM221 49H219V51H221V49ZM221 59H219V61H221V59ZM221 69H219V71H221V69ZM221 79H219V81H221V79ZM221 89H219V91H221V89ZM221 99H219V101H221V99ZM221 109H219V111H221V109ZM221 119H219V121H221V119ZM221 129H219V131H221V129ZM221 139H219V141H221V139ZM221 149H219V151H221V149ZM221 159H219V161H221V159ZM221 169H219V171H221V169ZM221 179H219V181H221V179ZM221 189H219V191H221V189ZM221 199H219V201H221V199ZM221 209H219V211H221V209ZM221 219H219V221H221V219ZM221 229H219V231H221V229ZM221 239H219V241H221V239ZM221 249H219V251H221V249ZM221 259H219V261H221V259ZM221 269H219V271H221V269ZM221 279H219V281H221V279ZM221 289H219V291H221V289ZM221 299H219V301H221V299ZM221 309H219V311H221V309ZM221 319H219V321H221V319ZM212 330V328H210V330H212ZM202 330V328H200V330H202ZM192 330V328H190V330H192ZM182 330V328H180V330H182ZM172 330V328H170V330H172ZM162 330V328H160V330H162ZM152 330V328H150V330H152ZM142 330V328H140V330H142ZM132 330V328H130V330H132ZM122 330V328H120V330H122ZM112 330V328H110V330H112ZM102 330V328H100V330H102ZM92 330V328H90V330H92ZM82 330V328H80V330H82ZM72 330V328H70V330H72ZM62 330V328H60V330H62ZM52 330V328H50V330H52ZM42 330V328H40V330H42ZM32 330V328H30V330H32ZM21 321H23V319H21V321ZM21 311H23V309H21V311ZM21 301H23V299H21V301ZM21 291H23V289H21V291ZM21 281H23V279H21V281ZM21 271H23V269H21V271ZM21 261H23V259H21V261ZM21 251H23V249H21V251ZM21 241H23V239H21V241ZM21 231H23V229H21V231ZM21 221H23V219H21V221ZM21 211H23V209H21V211ZM21 201H23V199H21V201ZM21 191H23V189H21V191ZM21 181H23V179H21V181ZM21 171H23V169H21V171ZM21 161H23V159H21V161ZM21 151H23V149H21V151ZM21 141H23V139H21V141ZM21 131H23V129H21V131ZM21 121H23V119H21V121ZM21 111H23V109H21V111ZM21 101H23V99H21V101ZM21 91H23V89H21V91ZM21 81H23V79H21V81ZM21 71H23V69H21V71ZM21 61H23V59H21V61ZM21 51H23V49H21V51Z" fill="url(#paint3_linear_101_189)"/>
<path fill-rule="evenodd" clip-rule="evenodd" d="M31 51V49H33V51H31ZM31 42H32V41H33V40H31V42ZM42 40H40V42H42V40ZM31 318V320H33V319H32V318H31ZM209 320H211V318H210V319H209V320ZM211 42V40H209V41H210V42H211ZM50 40V42H52V40H50ZM60 40V42H62V40H60ZM70 40V42H72V40H70ZM80 40V42H82V40H80ZM90 40V42H92V40H90ZM100 40V42H102V40H100ZM110 40V42H112V40H110ZM120 40V42H122V40H120ZM130 40V42H132V40H130ZM140 40V42H142V40H140ZM150 40V42H152V40H150ZM160 40V42H162V40H160ZM170 40V42H172V40H170ZM180 40V42H182V40H180ZM190 40V42H192V40H190ZM200 40V42H202V40H200ZM211 49H209V51H211V49ZM211 59H209V61H211V59ZM211 69H209V71H211V69ZM211 79H209V81H211V79ZM211 89H209V91H211V89ZM211 99H209V101H211V99ZM211 109H209V111H211V109ZM211 119H209V121H211V119ZM211 129H209V131H211V129ZM211 139H209V141H211V139ZM211 149H209V151H211V149ZM211 159H209V161H211V159ZM211 169H209V171H211V169ZM211 179H209V181H211V179ZM211 189H209V191H211V189ZM211 199H209V201H211V199ZM211 209H209V211H211V209ZM211 219H209V221H211V219ZM211 229H209V231H211V229ZM211 239H209V241H211V239ZM211 249H209V251H211V249ZM211 259H209V261H211V259ZM211 269H209V271H211V269ZM211 279H209V281H211V279ZM211 289H209V291H211V289ZM211 299H209V301H211V299ZM211 309H209V311H211V309ZM202 320V318H200V320H202ZM192 320V318H190V320H192ZM182 320V318H180V320H182ZM172 320V318H170V320H172ZM162 320V318H160V320H162ZM152 320V318H150V320H152ZM142 320V318H140V320H142ZM132 320V318H130V320H132ZM122 320V318H120V320H122ZM112 320V318H110V320H112ZM102 320V318H100V320H102ZM92 320V318H90V320H92ZM82 320V318H80V320H82ZM72 320V318H70V320H72ZM62 320V318H60V320H62ZM52 320V318H50V320H52ZM42 320V318H40V320H42ZM31 311H33V309H31V311ZM31 301H33V299H31V301ZM31 291H33V289H31V291ZM31 281H33V279H31V281ZM31 271H33V269H31V271ZM31 261H33V259H31V261ZM31 251H33V249H31V251ZM31 241H33V239H31V241ZM31 231H33V229H31V231ZM31 221H33V219H31V221ZM31 211H33V209H31V211ZM31 201H33V199H31V201ZM31 191H33V189H31V191ZM31 181H33V179H31V181ZM31 171H33V169H31V171ZM31 161H33V159H31V161ZM31 151H33V149H31V151ZM31 141H33V139H31V141ZM31 131H33V129H31V131ZM31 121H33V119H31V121ZM31 111H33V109H31V111ZM31 101H33V99H31V101ZM31 91H33V89H31V91ZM31 81H33V79H31V81ZM31 71H33V69H31V71ZM31 61H33V59H31V61Z" fill="url(#paint4_linear_101_189)"/>
<path fill-rule="evenodd" clip-rule="evenodd" d="M41 61V59H43V61H41ZM41 52H42V51H43V50H41V52ZM52 50H50V52H52V50ZM41 308V310H43V309H42V308H41ZM199 310H201V308H200V309H199V310ZM201 52V50H199V51H200V52H201ZM60 50V52H62V50H60ZM70 50V52H72V50H70ZM80 50V52H82V50H80ZM90 50V52H92V50H90ZM100 50V52H102V50H100ZM110 50V52H112V50H110ZM120 50V52H122V50H120ZM130 50V52H132V50H130ZM140 50V52H142V50H140ZM150 50V52H152V50H150ZM160 50V52H162V50H160ZM170 50V52H172V50H170ZM180 50V52H182V50H180ZM190 50V52H192V50H190ZM201 59H199V61H201V59ZM201 69H199V71H201V69ZM201 79H199V81H201V79ZM201 89H199V91H201V89ZM201 99H199V101H201V99ZM201 109H199V111H201V109ZM201 119H199V121H201V119ZM201 129H199V131H201V129ZM201 139H199V141H201V139ZM201 149H199V151H201V149ZM201 159H199V161H201V159ZM201 169H199V171H201V169ZM201 179H199V181H201V179ZM201 189H199V191H201V189ZM201 199H199V201H201V199ZM201 209H199V211H201V209ZM201 219H199V221H201V219ZM201 229H199V231H201V229ZM201 239H199V241H201V239ZM201 249H199V251H201V249ZM201 259H199V261H201V259ZM201 269H199V271H201V269ZM201 279H199V281H201V279ZM201 289H199V291H201V289ZM201 299H199V301H201V299ZM192 310V308H190V310H192ZM182 310V308H180V310H182ZM172 310V308H170V310H172ZM162 310V308H160V310H162ZM152 310V308H150V310H152ZM142 310V308H140V310H142ZM132 310V308H130V310H132ZM122 310V308H120V310H122ZM112 310V308H110V310H112ZM102 310V308H100V310H102ZM92 310V308H90V310H92ZM82 310V308H80V310H82ZM72 310V308H70V310H72ZM62 310V308H60V310H62ZM52 310V308H50V310H52ZM41 301H43V299H41V301ZM41 291H43V289H41V291ZM41 281H43V279H41V281ZM41 271H43V269H41V271ZM41 261H43V259H41V261ZM41 251H43V249H41V251ZM41 241H43V239H41V241ZM41 231H43V229H41V231ZM41 221H43V219H41V221ZM41 211H43V209H41V211ZM41 201H43V199H41V201ZM41 191H43V189H41V191ZM41 181H43V179H41V181ZM41 171H43V169H41V171ZM41 161H43V159H41V161ZM41 151H43V149H41V151ZM41 141H43V139H41V141ZM41 131H43V129H41V131ZM41 121H43V119H41V121ZM41 111H43V109H41V111ZM41 101H43V99H41V101ZM41 91H43V89H41V91ZM41 81H43V79H41V81ZM41 71H43V69H41V71Z" fill="url(#paint5_linear_101_189)"/>
<path fill-rule="evenodd" clip-rule="evenodd" d="M51 71V69H53V71H51ZM51 62H52V61H53V60H51V62ZM51 298V300H53V299H52V298H51ZM189 300H191V298H190V299H189V300ZM191 62V60H189V61H190V62H191ZM60 60V62H62V60H60ZM70 60V62H72V60H70ZM80 60V62H82V60H80ZM90 60V62H92V60H90ZM100 60V62H102V60H100ZM110 60V62H112V60H110ZM120 60V62H122V60H120ZM130 60V62H132V60H130ZM140 60V62H142V60H140ZM150 60V62H152V60H150ZM160 60V62H162V60H160ZM170 60V62H172V60H170ZM180 60V62H182V60H180ZM191 69H189V71H191V69ZM191 79H189V81H191V79ZM191 89H189V91H191V89ZM191 99H189V101H191V99ZM191 109H189V111H191V109ZM191 119H189V121H191V119ZM191 129H189V131H191V129ZM191 139H189V141H191V139ZM191 149H189V151H191V149ZM191 159H189V161H191V159ZM191 169H189V171H191V169ZM191 179H189V181H191V179ZM191 189H189V191H191V189ZM191 199H189V201H191V199ZM191 209H189V211H191V209ZM191 219H189V221H191V219ZM191 229H189V231H191V229ZM191 239H189V241H191V239ZM191 249H189V251H191V249ZM191 259H189V261H191V259ZM191 269H189V271H191V269ZM191 279H189V281H191V279ZM191 289H189V291H191V289ZM182 300V298H180V300H182ZM172 300V298H170V300H172ZM162 300V298H160V300H162ZM152 300V298H150V300H152ZM142 300V298H140V300H142ZM132 300V298H130V300H132ZM122 300V298H120V300H122ZM112 300V298H110V300H112ZM102 300V298H100V300H102ZM92 300V298H90V300H92ZM82 300V298H80V300H82ZM72 300V298H70V300H72ZM62 300V298H60V300H62ZM51 291H53V289H51V291ZM51 281H53V279H51V281ZM51 271H53V269H51V271ZM51 261H53V259H51V261ZM51 251H53V249H51V251ZM51 241H53V239H51V241ZM51 231H53V229H51V231ZM51 221H53V219H51V221ZM51 211H53V209H51V211ZM51 201H53V199H51V201ZM51 191H53V189H51V191ZM51 181H53V179H51V181ZM51 171H53V169H51V171ZM51 161H53V159H51V161ZM51 151H53V149H51V151ZM51 141H53V139H51V141ZM51 131H53V129H51V131ZM51 121H53V119H51V121ZM51 111H53V109H51V111ZM51 101H53V99H51V101ZM51 91H53V89H51V91ZM51 81H53V79H51V81Z" fill="url(#paint6_linear_101_189)"/>
<path fill-rule="evenodd" clip-rule="evenodd" d="M61 81V79H63V81H61ZM61 72H62V71L63 71V70H61V72ZM72 70H70V72H72V70ZM61 288V290H63V289H62V288H61ZM179 290H181V288H180V289H179V290ZM181 72V70H179V71H180V72H181ZM80 70V72H82V70H80ZM90 70V72H92V70H90ZM100 70V72H102V70H100ZM110 70V72H112V70H110ZM120 70V72H122V70H120ZM130 70V72H132V70H130ZM140 70V72H142V70H140ZM150 70V72H152V70H150ZM160 70V72H162V70H160ZM170 70V72H172V70H170ZM181 79H179V81H181V79ZM181 89H179V91H181V89ZM181 99H179V101H181V99ZM181 109H179V111H181V109ZM181 119H179V121H181V119ZM181 129H179V131H181V129ZM181 139H179V141H181V139ZM181 149H179V151H181V149ZM181 159H179V161H181V159ZM181 169H179V171H181V169ZM181 179H179V181H181V179ZM181 189H179V191H181V189ZM181 199H179V201H181V199ZM181 209H179V211H181V209ZM181 219H179V221H181V219ZM181 229H179V231H181V229ZM181 239H179V241H181V239ZM181 249H179V251H181V249ZM181 259H179V261H181V259ZM181 269H179V271H181V269ZM181 279H179V281H181V279ZM172 290V288H170V290H172ZM162 290V288H160V290H162ZM152 290V288H150V290H152ZM142 290V288H140V290H142ZM132 290V288H130V290H132ZM122 290V288H120V290H122ZM112 290V288H110V290H112ZM102 290V288H100V290H102ZM92 290V288H90V290H92ZM82 290V288H80V290H82ZM72 290V288H70V290H72ZM61 281H63V279H61V281ZM61 271H63V269H61V271ZM61 261H63V259H61V261ZM61 251H63V249H61V251ZM61 241H63V239H61V241ZM61 231H63V229H61V231ZM61 221H63V219H61V221ZM61 211H63V209H61V211ZM61 201H63V199H61V201ZM61 191H63V189H61V191ZM61 181H63V179H61V181ZM61 171H63V169H61V171ZM61 161H63V159H61V161ZM61 151H63V149H61V151ZM61 141H63V139H61V141ZM61 131H63V129H61V131ZM61 121H63V119H61V121ZM61 111H63V109H61V111ZM61 101H63V99H61V101ZM61 91H63V89H61V91Z" fill="url(#paint7_linear_101_189)"/>
<path fill-rule="evenodd" clip-rule="evenodd" d="M71 91V89H73V91H71ZM71 82H72V81H73V80H71V82ZM71 278V280H73V279H72V278H71ZM169 280H171V278H170V279H169V280ZM171 82V80H169V81H170V82H171ZM80 80V82H82V80H80ZM90 80V82H92V80H90ZM100 80V82H102V80H100ZM110 80V82H112V80H110ZM120 80V82H122V80H120ZM130 80V82H132V80H130ZM140 80V82H142V80H140ZM150 80V82H152V80H150ZM160 80V82H162V80H160ZM171 89H169V91H171V89ZM171 99H169V101H171V99ZM171 109H169V111H171V109ZM171 119H169V121H171V119ZM171 129H169V131H171V129ZM171 139H169V141H171V139ZM171 149H169V151H171V149ZM171 159H169V161H171V159ZM171 169H169V171H171V169ZM171 179H169V181H171V179ZM171 189H169V191H171V189ZM171 199H169V201H171V199ZM171 209H169V211H171V209ZM171 219H169V221H171V219ZM171 229H169V231H171V229ZM171 239H169V241H171V239ZM171 249H169V251H171V249ZM171 259H169V261H171V259ZM171 269H169V271H171V269ZM162 280V278H160V280H162ZM152 280V278H150V280H152ZM142 280V278H140V280H142ZM132 280V278H130V280H132ZM122 280V278H120V280H122ZM112 280V278H110V280H112ZM102 280V278H100V280H102ZM92 280V278H90V280H92ZM82 280V278H80V280H82ZM71 271H73V269H71V271ZM71 261H73V259H71V261ZM71 251H73V249H71V251ZM71 241H73V239H71V241ZM71 231H73V229H71V231ZM71 221H73V219H71V221ZM71 211H73V209H71V211ZM71 201H73V199H71V201ZM71 191H73V189H71V191ZM71 181H73V179H71V181ZM71 171H73V169H71V171ZM71 161H73V159H71V161ZM71 151H73V149H71V151ZM71 141H73V139H71V141ZM71 131H73V129H71V131ZM71 121H73V119H71V121ZM71 111H73V109H71V111ZM71 101H73V99H71V101Z" fill="url(#paint8_linear_101_189)"/>
<path fill-rule="evenodd" clip-rule="evenodd" d="M81 101V99H83V101H81ZM81 92H82V91H83V90H81V92ZM81 268V270H83V269H82V268H81ZM159 270H161V268H160V269H159V270ZM161 92V90H159V91H160V92H161ZM90 90V92H92V90H90ZM100 90V92H102V90H100ZM110 90V92H112V90H110ZM120 90V92H122V90H120ZM130 90V92H132V90H130ZM140 90V92H142V90H140ZM150 90V92H152V90H150ZM161 99H159V101H161V99ZM161 109H159V111H161V109ZM161 119H159V121H161V119ZM161 129H159V131H161V129ZM161 139H159V141H161V139ZM161 149H159V151H161V149ZM161 159H159V161H161V159ZM161 169H159V171H161V169ZM161 179H159V181H161V179ZM161 189H159V191H161V189ZM161 199H159V201H161V199ZM161 209H159V211H161V209ZM161 219H159V221H161V219ZM161 229H159V231H161V229ZM161 239H159V241H161V239ZM161 249H159V251H161V249ZM161 259H159V261H161V259ZM152 270V268H150V270H152ZM142 270V268H140V270H142ZM132 270V268H130V270H132ZM122 270V268H120V270H122ZM112 270V268H110V270H112ZM102 270V268H100V270H102ZM92 270V268H90V270H92ZM81 261H83V259H81V261ZM81 251H83V249H81V251ZM81 241H83V239H81V241ZM81 231H83V229H81V231ZM81 221H83V219H81V221ZM81 211H83V209H81V211ZM81 201H83V199H81V201ZM81 191H83V189H81V191ZM81 181H83V179H81V181ZM81 171H83V169H81V171ZM81 161H83V159H81V161ZM81 151H83V149H81V151ZM81 141H83V139H81V141ZM81 131H83V129H81V131ZM81 121H83V119H81V121ZM81 111H83V109H81V111Z" fill="url(#paint9_linear_101_189)"/>
<path fill-rule="evenodd" clip-rule="evenodd" d="M91 111V109H93V111H91ZM91 102H92V101H93V100H91V102ZM91 258V260H93V259H92V258H91ZM149 260H151V258H150V259H149V260ZM151 102V100H149V101H150V102H151ZM100 100V102H102V100H100ZM110 100V102H112V100H110ZM120 100V102H122V100H120ZM130 100V102H132V100H130ZM140 100V102H142V100H140ZM151 109H149V111H151V109ZM151 119H149V121H151V119ZM151 129H149V131H151V129ZM151 139H149V141H151V139ZM151 149H149V151H151V149ZM151 159H149V161H151V159ZM151 169H149V171H151V169ZM151 179H149V181H151V179ZM151 189H149V191H151V189ZM151 199H149V201H151V199ZM151 209H149V211H151V209ZM151 219H149V221H151V219ZM151 229H149V231H151V229ZM151 239H149V241H151V239ZM151 249H149V251H151V249ZM142 260V258H140V260H142ZM132 260V258H130V260H132ZM122 260V258H120V260H122ZM112 260V258H110V260H112ZM102 260V258H100V260H102ZM91 251H93V249H91V251ZM91 241H93V239H91V241ZM91 231H93V229H91V231ZM91 221H93V219H91V221ZM91 211H93V209H91V211ZM91 201H93V199H91V201ZM91 191H93V189H91V191ZM91 181H93V179H91V181ZM91 171H93V169H91V171ZM91 161H93V159H91V161ZM91 151H93V149H91V151ZM91 141H93V139H91V141ZM91 131H93V129H91V131ZM91 121H93V119H91V121Z" fill="url(#paint10_linear_101_189)"/>
<path fill-rule="evenodd" clip-rule="evenodd" d="M101 121V119H103V121H101ZM101 112H102V111H103V110H101V112ZM101 248V250H103V249H102V248H101ZM139 250H141V248H140V249H139V250ZM141 112V110H139V111H140V112H141ZM110 110V112H112V110H110ZM120 110V112H122V110H120ZM130 110V112H132V110H130ZM141 119H139V121H141V119ZM141 129H139V131H141V129ZM141 139H139V141H141V139ZM141 149H139V151H141V149ZM141 159H139V161H141V159ZM141 169H139V171H141V169ZM141 179H139V181H141V179ZM141 189H139V191H141V189ZM141 199H139V201H141V199ZM141 209H139V211H141V209ZM141 219H139V221H141V219ZM141 229H139V231H141V229ZM141 239H139V241H141V239ZM132 250V248H130V250H132ZM122 250V248H120V250H122ZM112 250V248H110V250H112ZM101 241H103V239H101V241ZM101 231H103V229H101V231ZM101 221H103V219H101V221ZM101 211H103V209H101V211ZM101 201H103V199H101V201ZM101 191H103V189H101V191ZM101 181H103V179H101V181ZM101 171H103V169H101V171ZM101 161H103V159H101V161ZM101 151H103V149H101V151ZM101 141H103V139H101V141ZM101 131H103V129H101V131Z" fill="url(#paint11_linear_101_189)"/>
<path fill-rule="evenodd" clip-rule="evenodd" d="M111 131V129H113V131H111ZM111 122H112L112 121H113V120H111V122ZM122 120H120V122H122V120ZM111 238V240H113V239H112V238H111ZM129 240H131V238H130V239H129V240ZM131 122V120H129V121H130V122H131ZM131 129H129V131H131V129ZM131 139H129V141H131V139ZM131 149H129V151H131V149ZM131 159H129V161H131V159ZM131 169H129V171H131V169ZM131 179H129V181H131V179ZM131 189H129V191H131V189ZM131 199H129V201H131V199ZM131 209H129V211H131V209ZM131 219H129V221H131V219ZM131 229H129V231H131V229ZM122 240V238H120V240H122ZM111 231H113V229H111V231ZM111 221H113V219H111V221ZM111 211H113V209H111V211ZM111 201H113V199H111V201ZM111 191H113V189H111V191ZM111 181H113V179H111V181ZM111 171H113V169H111V171ZM111 161H113V159H111V161ZM111 151H113V149H111V151ZM111 141H113V139H111V141Z" fill="url(#paint12_linear_101_189)"/>
<path fill-rule="evenodd" clip-rule="evenodd" d="M122 139V141L120 141V139L122 139ZM120 131L122 131V129L120 129V131ZM120 122H120.2V121M121 121H121.8V122H122V120H120V122M120 149V151H122V149H120ZM122 159V161L120 161V159H122ZM120 169V171H122V169L120 169ZM122 179V181H120V179H122ZM120 189V191H122V189H120ZM122 199V201H120V199H122ZM120 209V211H122V209H120ZM122 219V221H120V219H122ZM120 229V231H122V229H120ZM122 238H121.8V239H120.2V238H120V240H122V238Z" fill="url(#paint13_linear_101_189)"/>
<defs>
<linearGradient id="paint0_linear_101_189" x1="164" y1="-31.5" x2="2.5" y2="390.5" gradientUnits="userSpaceOnUse">
<stop stop-color="#620CFE"/>
<stop offset="1" stop-color="#454ED8"/>
</linearGradient>
<linearGradient id="paint1_linear_101_189" x1="157.813" y1="-19.75" x2="6.68544" y2="380.051" gradientUnits="userSpaceOnUse">
<stop stop-color="#620CFE"/>
<stop offset="1" stop-color="#454ED8"/>
</linearGradient>
<linearGradient id="paint2_linear_101_189" x1="154.745" y1="-8" x2="9.6872" y2="365.751" gradientUnits="userSpaceOnUse">
<stop stop-color="#620CFE"/>
<stop offset="1" stop-color="#454ED8"/>
</linearGradient>
<linearGradient id="paint3_linear_101_189" x1="151.677" y1="3.75" x2="12.5916" y2="351.254" gradientUnits="userSpaceOnUse">
<stop stop-color="#620CFE"/>
<stop offset="1" stop-color="#454ED8"/>
</linearGradient>
<linearGradient id="paint4_linear_101_189" x1="148.61" y1="15.5" x2="15.3763" y2="336.493" gradientUnits="userSpaceOnUse">
<stop stop-color="#620CFE"/>
<stop offset="1" stop-color="#454ED8"/>
</linearGradient>
<linearGradient id="paint5_linear_101_189" x1="145.542" y1="27.25" x2="18.0129" y2="321.37" gradientUnits="userSpaceOnUse">
<stop stop-color="#620CFE"/>
<stop offset="1" stop-color="#454ED8"/>
</linearGradient>
<linearGradient id="paint6_linear_101_189" x1="142.474" y1="39" x2="20.467" y2="305.729" gradientUnits="userSpaceOnUse">
<stop stop-color="#620CFE"/>
<stop offset="1" stop-color="#454ED8"/>
</linearGradient>
<linearGradient id="paint7_linear_101_189" x1="139.406" y1="50.75" x2="22.7019" y2="289.319" gradientUnits="userSpaceOnUse">
<stop stop-color="#620CFE"/>
<stop offset="1" stop-color="#454ED8"/>
</linearGradient>
<linearGradient id="paint8_linear_101_189" x1="136.339" y1="62.5" x2="24.6964" y2="271.703" gradientUnits="userSpaceOnUse">
<stop stop-color="#620CFE"/>
<stop offset="1" stop-color="#454ED8"/>
</linearGradient>
<linearGradient id="paint9_linear_101_189" x1="133.271" y1="74.25" x2="26.5186" y2="252.063" gradientUnits="userSpaceOnUse">
<stop stop-color="#620CFE"/>
<stop offset="1" stop-color="#454ED8"/>
</linearGradient>
<linearGradient id="paint10_linear_101_189" x1="130.203" y1="86" x2="28.6297" y2="228.751" gradientUnits="userSpaceOnUse">
<stop stop-color="#620CFE"/>
<stop offset="1" stop-color="#454ED8"/>
</linearGradient>
<linearGradient id="paint11_linear_101_189" x1="127.135" y1="97.75" x2="33.2816" y2="198.247" gradientUnits="userSpaceOnUse">
<stop stop-color="#620CFE"/>
<stop offset="1" stop-color="#454ED8"/>
</linearGradient>
<linearGradient id="paint12_linear_101_189" x1="124.068" y1="109.5" x2="51.6066" y2="154.761" gradientUnits="userSpaceOnUse">
<stop stop-color="#620CFE"/>
<stop offset="1" stop-color="#454ED8"/>
</linearGradient>
<linearGradient id="paint13_linear_101_189" x1="121.307" y1="109.5" x2="111.273" y2="110.127" gradientUnits="userSpaceOnUse">
<stop stop-color="#620CFE"/>
<stop offset="1" stop-color="#454ED8"/>
</linearGradient>
</defs>
</svg>
