<svg width="82" height="198" viewBox="0 0 82 198" fill="none" xmlns="http://www.w3.org/2000/svg">
<path fill-rule="evenodd" clip-rule="evenodd" d="M-178 0H-175.928V2.07171H-178V0ZM82 0V2.07171H80.9641V1.03585H79.9283V0H82ZM-167.641 2.07171V0H-165.57V2.07171H-167.641ZM-157.283 2.07171V0H-155.211V2.07171H-157.283ZM-146.924 2.07171V0H-144.853V2.07171H-146.924ZM-136.566 2.07171V0H-134.494V2.07171H-136.566ZM-126.207 2.07171V0H-124.135V2.07171H-126.207ZM-115.849 2.07171V0H-113.777V2.07171H-115.849ZM-105.49 2.07171V0H-103.418V2.07171H-105.49ZM-95.1315 2.07171V0H-93.0598V2.07171H-95.1315ZM-84.7729 2.07171V0H-82.7012V2.07171H-84.7729ZM-74.4143 2.07171V0H-72.3426V2.07171H-74.4143ZM-64.0558 2.07171V0H-61.9841V2.07171H-64.0558ZM-53.6972 2.07171V0H-51.6255V2.07171H-53.6972ZM-43.3386 2.07171V0H-41.2669V2.07171H-43.3386ZM-32.9801 2.07171V0H-30.9084V2.07171H-32.9801ZM-22.6215 2.07171V0H-20.5498V2.07171H-22.6215ZM-12.2629 2.07171V0H-10.1912V2.07171H-12.2629ZM-1.90437 2.07171V0H0.167343V2.07171H-1.90437ZM8.45419 2.07171V0H10.5259V2.07171H8.45419ZM18.8128 2.07171V0H20.8845V2.07171H18.8128ZM29.1713 2.07171V0H31.243V2.07171H29.1713ZM39.5299 2.07171V0H41.6016V2.07171H39.5299ZM49.8885 2.07171V0H51.9602V2.07171H49.8885ZM60.247 2.07171V0H62.3187V2.07171H60.247ZM70.6056 2.07171V0H72.6773V2.07171H70.6056ZM79.9283 11.3944V9.3227H82V11.3944H79.9283ZM79.9283 21.753V19.6813H82V21.753H79.9283ZM79.9283 32.1116V30.0398H82V32.1116H79.9283ZM79.9283 42.4701V40.3984H82V42.4701H79.9283ZM79.9283 52.8287V50.757H82V52.8287H79.9283ZM79.9283 63.1873V61.1155H82V63.1873H79.9283ZM79.9283 73.5458V71.4741H82V73.5458H79.9283ZM79.9283 83.9044V81.8327H82V83.9044H79.9283ZM79.9283 94.2629V92.1912H82V94.2629H79.9283ZM79.9283 104.622V102.55H82V104.622H79.9283ZM79.9283 114.98V112.908H82V114.98H79.9283ZM79.9283 125.339V123.267H82V125.339H79.9283ZM79.9283 135.697V133.626H82V135.697H79.9283ZM79.9283 146.056V143.984H82V146.056H79.9283ZM79.9283 156.414V154.343H82V156.414H79.9283ZM79.9283 166.773V164.701H82V166.773H79.9283ZM79.9283 177.132V175.06H82V177.132H79.9283ZM79.9283 187.49V185.418H82V187.49H79.9283ZM79.9283 197.849V195.777H82V197.849H79.9283ZM-176.964 19.6811V21.7528H-174.892V19.6811H-176.964ZM-175.928 12.4301H-176.964V10.3584H-174.892V11.3943H-175.928V12.4301ZM71.6415 10.3584V12.4301H70.6056V11.3943H69.5698V10.3584H71.6415ZM-167.641 12.4301V10.3584H-165.57V12.4301H-167.641ZM-157.283 12.4301V10.3584H-155.211V12.4301H-157.283ZM-146.924 12.4301V10.3584H-144.853V12.4301H-146.924ZM-136.566 12.4301V10.3584H-134.494V12.4301H-136.566ZM-126.207 12.4301V10.3584H-124.135V12.4301H-126.207ZM-115.849 12.4301V10.3584H-113.777V12.4301H-115.849ZM-105.49 12.4301V10.3584H-103.418V12.4301H-105.49ZM-95.1314 12.4301V10.3584H-93.0597V12.4301H-95.1314ZM-84.7729 12.4301V10.3584H-82.7012V12.4301H-84.7729ZM-74.4143 12.4301V10.3584H-72.3426V12.4301H-74.4143ZM-64.0557 12.4301V10.3584H-61.984V12.4301H-64.0557ZM-53.6972 12.4301V10.3584H-51.6255V12.4301H-53.6972ZM-43.3386 12.4301V10.3584H-41.2669V12.4301H-43.3386ZM-32.98 12.4301V10.3584H-30.9083V12.4301H-32.98ZM-22.6215 12.4301V10.3584H-20.5498V12.4301H-22.6215ZM-12.2629 12.4301V10.3584H-10.1912V12.4301H-12.2629ZM-1.90434 12.4301V10.3584H0.167374V12.4301H-1.90434ZM8.45422 12.4301V10.3584H10.5259V12.4301H8.45422ZM18.8128 12.4301V10.3584H20.8845V12.4301H18.8128ZM29.1714 12.4301V10.3584H31.2431V12.4301H29.1714ZM39.5299 12.4301V10.3584H41.6016V12.4301H39.5299ZM49.8885 12.4301V10.3584H51.9602V12.4301H49.8885ZM60.2471 12.4301V10.3584H62.3188V12.4301H60.2471ZM69.5698 19.6811H71.6415V21.7528H69.5698V19.6811ZM69.5698 30.0397H71.6415V32.1114H69.5698V30.0397ZM69.5698 40.3982H71.6415V42.4699H69.5698V40.3982ZM69.5698 50.7568H71.6415V52.8285H69.5698V50.7568ZM69.5698 61.1154H71.6415V63.1871H69.5698V61.1154ZM69.5698 71.4739H71.6415V73.5457H69.5698V71.4739ZM69.5698 81.8325H71.6415V83.9042H69.5698V81.8325ZM69.5698 92.1911H71.6415V94.2628H69.5698V92.1911ZM69.5698 102.55H71.6415V104.621H69.5698V102.55ZM69.5698 112.908H71.6415V114.98H69.5698V112.908ZM69.5698 123.267H71.6415V125.338H69.5698V123.267ZM69.5698 133.625H71.6415V135.697H69.5698V133.625ZM69.5698 143.984H71.6415V146.056H69.5698V143.984ZM69.5698 154.342H71.6415V156.414H69.5698V154.342ZM69.5698 164.701H71.6415V166.773H69.5698V164.701ZM69.5698 175.06H71.6415V177.131H69.5698V175.06ZM69.5698 185.418H71.6415V187.49H69.5698V185.418ZM69.5698 195.777H71.6415V197.848H69.5698V195.777ZM-174.892 197.848H-176.964V195.777H-174.892V197.848ZM-174.892 187.49H-176.964V185.418H-174.892V187.49ZM-174.892 177.131H-176.964V175.06H-174.892V177.131ZM-174.892 166.773H-176.964V164.701H-174.892V166.773ZM-174.892 156.414H-176.964V154.342H-174.892V156.414ZM-174.892 146.056H-176.964V143.984H-174.892V146.056ZM-174.892 135.697H-176.964V133.625H-174.892V135.697ZM-174.892 125.338H-176.964V123.267H-174.892V125.338ZM-174.892 114.98H-176.964V112.908H-174.892V114.98ZM-174.892 104.621H-176.964V102.55H-174.892V104.621ZM-174.892 94.2628H-176.964V92.1911H-174.892V94.2628ZM-174.892 83.9042H-176.964V81.8325H-174.892V83.9042ZM-174.892 73.5457H-176.964V71.4739H-174.892V73.5457ZM-174.892 63.1871H-176.964V61.1154H-174.892V63.1871ZM-174.892 52.8285H-176.964V50.7568H-174.892V52.8285ZM-174.892 42.47H-176.964V40.3982H-174.892V42.47ZM-174.892 32.1114H-176.964V30.0397H-174.892V32.1114ZM-156.247 42.4701V40.3984H-154.175V42.4701H-156.247ZM-156.247 33.1474H-155.211V32.1115H-154.175V31.0757H-156.247V33.1474ZM50.9243 33.1474V31.0757H48.8526V32.1115H49.8885V33.1474H50.9243ZM-146.924 31.0757V33.1474H-144.853V31.0757H-146.924ZM-136.566 31.0757V33.1474H-134.494V31.0757H-136.566ZM-126.207 31.0757V33.1474H-124.135V31.0757H-126.207ZM-115.849 31.0757V33.1474H-113.777V31.0757H-115.849ZM-105.49 31.0757V33.1474H-103.418V31.0757H-105.49ZM-95.1315 31.0757V33.1474H-93.0598V31.0757H-95.1315ZM-84.7729 31.0757V33.1474H-82.7012V31.0757H-84.7729ZM-74.4143 31.0757V33.1474H-72.3426V31.0757H-74.4143ZM-64.0558 31.0757V33.1474H-61.9841V31.0757H-64.0558ZM-53.6972 31.0757V33.1474H-51.6255V31.0757H-53.6972ZM-43.3386 31.0757V33.1474H-41.2669V31.0757H-43.3386ZM-32.9801 31.0757V33.1474H-30.9084V31.0757H-32.9801ZM-22.6215 31.0757V33.1474H-20.5498V31.0757H-22.6215ZM-12.2629 31.0757V33.1474H-10.1912V31.0757H-12.2629ZM-1.90437 31.0757V33.1474H0.167343V31.0757H-1.90437ZM8.45419 31.0757V33.1474H10.5259V31.0757H8.45419ZM18.8128 31.0757V33.1474H20.8845V31.0757H18.8128ZM29.1713 31.0757V33.1474H31.243V31.0757H29.1713ZM39.5299 31.0757V33.1474H41.6016V31.0757H39.5299ZM50.9243 40.3984H48.8526V42.4701H50.9243V40.3984ZM50.9243 50.757H48.8526V52.8287H50.9243V50.757ZM50.9243 61.1155H48.8526V63.1872H50.9243V61.1155ZM50.9243 71.4741H48.8526V73.5458H50.9243V71.4741ZM50.9243 81.8327H48.8526V83.9044H50.9243V81.8327ZM50.9243 92.1912H48.8526V94.2629H50.9243V92.1912ZM50.9243 102.55H48.8526V104.622H50.9243V102.55ZM50.9243 112.908H48.8526V114.98H50.9243V112.908ZM50.9243 123.267H48.8526V125.339H50.9243V123.267ZM50.9243 133.625H48.8526V135.697H50.9243V133.625ZM50.9243 143.984H48.8526V146.056H50.9243V143.984ZM50.9243 154.343H48.8526V156.414H50.9243V154.343ZM50.9243 164.701H48.8526V166.773H50.9243V164.701ZM50.9243 175.06H48.8526V177.131H50.9243V175.06ZM50.9243 185.418H48.8526V187.49H50.9243V185.418ZM50.9243 195.777H48.8526V197.849H50.9243V195.777ZM-156.247 197.849H-154.175V195.777H-156.247V197.849ZM-156.247 187.49H-154.175V185.418H-156.247V187.49ZM-156.247 177.131H-154.175V175.06H-156.247V177.131ZM-156.247 166.773H-154.175V164.701H-156.247V166.773ZM-156.247 156.414H-154.175V154.343H-156.247V156.414ZM-156.247 146.056H-154.175V143.984H-156.247V146.056ZM-156.247 135.697H-154.175V133.625H-156.247V135.697ZM-156.247 125.339H-154.175V123.267H-156.247V125.339ZM-156.247 114.98H-154.175V112.908H-156.247V114.98ZM-156.247 104.622H-154.175V102.55H-156.247V104.622ZM-156.247 94.2629H-154.175V92.1912H-156.247V94.2629ZM-156.247 83.9044H-154.175V81.8327H-156.247V83.9044ZM-156.247 73.5458H-154.175V71.4741H-156.247V73.5458ZM-156.247 63.1872H-154.175V61.1155H-156.247V63.1872ZM-156.247 52.8287H-154.175V50.757H-156.247V52.8287ZM-145.888 50.757V52.8287H-143.817V50.757H-145.888ZM-144.853 43.506H-145.888V41.4343H-143.817V42.4702H-144.853V43.506ZM-136.566 41.4343H-134.494V43.506H-136.566V41.4343ZM38.494 42.4702V41.4343H40.5657V43.506H39.5299V42.4702H38.494ZM-124.135 43.506H-126.207V41.4343H-124.135V43.506ZM-113.777 43.506H-115.849V41.4343H-113.777V43.506ZM-103.418 43.506H-105.49V41.4343H-103.418V43.506ZM-93.0597 43.506H-95.1315V41.4343H-93.0597V43.506ZM-82.7012 43.506H-84.7729V41.4343H-82.7012V43.506ZM-72.3426 43.506H-74.4143V41.4343H-72.3426V43.506ZM-61.9841 43.506H-64.0558V41.4343H-61.9841V43.506ZM-51.6255 43.506H-53.6972V41.4343H-51.6255V43.506ZM-41.2669 43.506H-43.3386V41.4343H-41.2669V43.506ZM-30.9084 43.506H-32.9801V41.4343H-30.9084V43.506ZM-20.5498 43.506H-22.6215V41.4343H-20.5498V43.506ZM-10.1912 43.506H-12.2629V41.4343H-10.1912V43.506ZM0.167343 43.506H-1.90437V41.4343H0.167343V43.506ZM10.5259 43.506H8.45419V41.4343H10.5259V43.506ZM20.8845 43.506H18.8128V41.4343H20.8845V43.506ZM31.243 43.506H29.1713V41.4343H31.243V43.506ZM38.494 50.757H40.5657V52.8288H38.494V50.757ZM38.494 61.1156H40.5657V63.1873H38.494V61.1156ZM38.494 71.4742H40.5657V73.5459H38.494V71.4742ZM38.494 81.8327H40.5657V83.9044H38.494V81.8327ZM38.494 92.1913H40.5657V94.263H38.494V92.1913ZM38.494 102.55H40.5657V104.622H38.494V102.55ZM38.494 112.908H40.5657V114.98H38.494V112.908ZM38.494 123.267H40.5657V125.339H38.494V123.267ZM38.494 133.626H40.5657V135.697H38.494V133.626ZM38.494 143.984H40.5657V146.056H38.494V143.984ZM38.494 154.343H40.5657V156.414H38.494V154.343ZM38.494 164.701H40.5657V166.773H38.494V164.701ZM38.494 175.06H40.5657V177.132H38.494V175.06ZM38.494 185.418H40.5657V187.49H38.494V185.418ZM38.494 195.777H40.5657V197.849H38.494V195.777ZM-143.817 197.849H-145.888V195.777H-143.817V197.849ZM-143.817 187.49H-145.888V185.418H-143.817V187.49ZM-143.817 177.132H-145.888V175.06H-143.817V177.132ZM-143.817 166.773H-145.888V164.701H-143.817V166.773ZM-143.817 156.414H-145.888V154.343H-143.817V156.414ZM-143.817 146.056H-145.888V143.984H-143.817V146.056ZM-143.817 135.697H-145.888V133.626H-143.817V135.697ZM-143.817 125.339H-145.888V123.267H-143.817V125.339ZM-143.817 114.98H-145.888V112.908H-143.817V114.98ZM-143.817 104.622H-145.888V102.55H-143.817V104.622ZM-143.817 94.263H-145.888V92.1913H-143.817V94.263ZM-143.817 83.9044H-145.888V81.8327H-143.817V83.9044ZM-143.817 73.5459H-145.888V71.4742H-143.817V73.5459ZM-143.817 63.1873H-145.888V61.1156H-143.817V63.1873ZM-135.53 63.1874V61.1157H-133.458V63.1874H-135.53ZM-135.53 53.8647H-134.494V52.8288H-133.458V51.793H-135.53V53.8647ZM-124.135 51.793H-126.207V53.8647H-124.135V51.793ZM30.2071 51.793H28.1354V52.8288H29.1713V53.8647H30.2071V51.793ZM-115.849 53.8647H-113.777V51.793H-115.849V53.8647ZM-105.49 53.8647H-103.418V51.793H-105.49V53.8647ZM-95.1315 53.8647H-93.0598V51.793H-95.1315V53.8647ZM-84.7729 53.8647H-82.7012V51.793H-84.7729V53.8647ZM-74.4144 53.8647H-72.3427V51.793H-74.4144V53.8647ZM-64.0558 53.8647H-61.9841V51.793H-64.0558V53.8647ZM-53.6972 53.8647H-51.6255V51.793H-53.6972V53.8647ZM-43.3387 53.8647H-41.267V51.793H-43.3387V53.8647ZM-32.9801 53.8647H-30.9084V51.793H-32.9801V53.8647ZM-22.6216 53.8647H-20.5498V51.793H-22.6216V53.8647ZM-12.263 53.8647H-10.1913V51.793H-12.263V53.8647ZM-1.90442 53.8647H0.167297V51.793H-1.90442V53.8647ZM8.45415 53.8647H10.5259V51.793H8.45415V53.8647ZM18.8127 53.8647H20.8844V51.793H18.8127V53.8647ZM30.2071 61.1157H28.1354V63.1874H30.2071V61.1157ZM30.2071 71.4742H28.1354V73.546H30.2071V71.4742ZM30.2071 81.8328H28.1354V83.9045H30.2071V81.8328ZM30.2071 92.1914H28.1354V94.2631H30.2071V92.1914ZM30.2071 102.55H28.1354V104.622H30.2071V102.55ZM30.2071 112.908H28.1354V114.98H30.2071V112.908ZM30.2071 123.267H28.1354V125.339H30.2071V123.267ZM30.2071 133.626H28.1354V135.697H30.2071V133.626ZM30.2071 143.984H28.1354V146.056H30.2071V143.984ZM30.2071 154.343H28.1354V156.414H30.2071V154.343ZM30.2071 164.701H28.1354V166.773H30.2071V164.701ZM30.2071 175.06H28.1354V177.132H30.2071V175.06ZM30.2071 185.418H28.1354V187.49H30.2071V185.418ZM30.2071 195.777H28.1354V197.849H30.2071V195.777ZM-135.53 197.849H-133.458V195.777H-135.53V197.849ZM-135.53 187.49H-133.458V185.418H-135.53V187.49ZM-135.53 177.132H-133.458V175.06H-135.53V177.132ZM-135.53 166.773H-133.458V164.701H-135.53V166.773ZM-135.53 156.414H-133.458V154.343H-135.53V156.414ZM-135.53 146.056H-133.458V143.984H-135.53V146.056ZM-135.53 135.697H-133.458V133.626H-135.53V135.697ZM-135.53 125.339H-133.458V123.267H-135.53V125.339ZM-135.53 114.98H-133.458V112.909H-135.53V114.98ZM-135.53 104.622H-133.458V102.55H-135.53V104.622ZM-135.53 94.2631H-133.458V92.1914H-135.53V94.2631ZM-135.53 83.9045H-133.458V81.8328H-135.53V83.9045ZM-135.53 73.546H-133.458V71.4742H-135.53V73.546ZM-125.171 71.4741V73.5458H-123.1V71.4741H-125.171ZM-124.135 64.2231H-125.171V62.1514H-123.1V63.1872H-124.135V64.2231ZM19.8486 62.1514V64.2231H18.8127V63.1872H17.7769V62.1514H19.8486ZM-115.849 64.2231V62.1514H-113.777V64.2231H-115.849ZM-105.49 64.2231V62.1514H-103.418V64.2231H-105.49ZM-95.1315 64.2231V62.1514H-93.0598V64.2231H-95.1315ZM-84.7729 64.2231V62.1514H-82.7012V64.2231H-84.7729ZM-74.4144 64.2231V62.1514H-72.3426V64.2231H-74.4144ZM-64.0558 64.2231V62.1514H-61.9841V64.2231H-64.0558ZM-53.6972 64.2231V62.1514H-51.6255V64.2231H-53.6972ZM-43.3387 64.2231V62.1514H-41.267V64.2231H-43.3387ZM-32.9801 64.2231V62.1514H-30.9084V64.2231H-32.9801ZM-22.6215 64.2231V62.1514H-20.5498V64.2231H-22.6215ZM-12.263 64.2231V62.1514H-10.1913V64.2231H-12.263ZM-1.9044 64.2231V62.1514H0.167313V64.2231H-1.9044ZM8.45416 64.2231V62.1514H10.5259V64.2231H8.45416ZM17.7769 71.4741H19.8486V73.5458H17.7769V71.4741ZM17.7769 81.8326H19.8486V83.9044H17.7769V81.8326ZM17.7769 92.1912H19.8486V94.2629H17.7769V92.1912ZM17.7769 102.55H19.8486V104.621H17.7769V102.55ZM17.7769 112.908H19.8486V114.98H17.7769V112.908ZM17.7769 123.267H19.8486V125.339H17.7769V123.267ZM17.7769 133.625H19.8486V135.697H17.7769V133.625ZM17.7769 143.984H19.8486V146.056H17.7769V143.984ZM17.7769 154.343H19.8486V156.414H17.7769V154.343ZM17.7769 164.701H19.8486V166.773H17.7769V164.701ZM17.7769 175.06H19.8486V177.131H17.7769V175.06ZM17.7769 185.418H19.8486V187.49H17.7769V185.418ZM17.7769 195.777H19.8486V197.849H17.7769V195.777ZM-123.1 197.849H-125.171V195.777H-123.1V197.849ZM-123.1 187.49H-125.171V185.418H-123.1V187.49ZM-123.1 177.131H-125.171V175.06H-123.1V177.131ZM-123.1 166.773H-125.171V164.701H-123.1V166.773ZM-123.1 156.414H-125.171V154.343H-123.1V156.414ZM-123.1 146.056H-125.171V143.984H-123.1V146.056ZM-123.1 135.697H-125.171V133.625H-123.1V135.697ZM-123.1 125.339H-125.171V123.267H-123.1V125.339ZM-123.1 114.98H-125.171V112.908H-123.1V114.98ZM-123.1 104.621H-125.171V102.55H-123.1V104.621ZM-123.1 94.2629H-125.171V92.1912H-123.1V94.2629ZM-123.1 83.9044H-125.171V81.8326H-123.1V83.9044ZM-114.813 83.9044V81.8327H-112.741V83.9044H-114.813ZM-114.813 74.5817H-113.777V73.5459H-112.741V72.51H-114.813V74.5817ZM-103.418 72.51H-105.49V74.5817H-103.418V72.51ZM7.41833 72.51V73.5459H8.45419V74.5817H9.49005V72.51H7.41833ZM-95.1315 72.51V74.5817H-93.0598V72.51H-95.1315ZM-84.7729 72.51V74.5817H-82.7012V72.51H-84.7729ZM-74.4143 72.51V74.5817H-72.3426V72.51H-74.4143ZM-64.0558 72.51V74.5817H-61.9841V72.51H-64.0558ZM-53.6972 72.51V74.5817H-51.6255V72.51H-53.6972ZM-43.3386 72.51V74.5817H-41.2669V72.51H-43.3386ZM-32.9801 72.51V74.5817H-30.9084V72.51H-32.9801ZM-22.6215 72.51V74.5817H-20.5498V72.51H-22.6215ZM-12.2629 72.51V74.5817H-10.1912V72.51H-12.2629ZM-1.90437 72.51V74.5817H0.167328V72.51H-1.90437ZM9.49005 81.8327H7.41833V83.9044H9.49005V81.8327ZM9.49005 92.1913H7.41833V94.263H9.49005V92.1913ZM9.49005 102.55H7.41833V104.622H9.49005V102.55ZM9.49005 112.908H7.41833V114.98H9.49005V112.908ZM9.49005 123.267H7.41833V125.339H9.49005V123.267ZM9.49005 133.626H7.41833V135.697H9.49005V133.626ZM9.49005 143.984H7.41833V146.056H9.49005V143.984ZM9.49005 154.343H7.41833V156.414H9.49005V154.343ZM9.49005 164.701H7.41833V166.773H9.49005V164.701ZM9.49005 175.06H7.41833V177.132H9.49005V175.06ZM9.49005 185.418H7.41833V187.49H9.49005V185.418ZM9.49005 195.777H7.41833V197.849H9.49005V195.777ZM-114.813 197.849H-112.741V195.777H-114.813V197.849ZM-114.813 187.49H-112.741V185.418H-114.813V187.49ZM-114.813 177.132H-112.741V175.06H-114.813V177.132ZM-114.813 166.773H-112.741V164.701H-114.813V166.773ZM-114.813 156.414H-112.741V154.343H-114.813V156.414ZM-114.813 146.056H-112.741V143.984H-114.813V146.056ZM-114.813 135.697H-112.741V133.626H-114.813V135.697ZM-114.813 125.339H-112.741V123.267H-114.813V125.339ZM-114.813 114.98H-112.741V112.908H-114.813V114.98ZM-114.813 104.622H-112.741V102.55H-114.813V104.622ZM-114.813 94.263H-112.741V92.1913H-114.813V94.263ZM-104.454 92.1914V94.2631H-102.383V92.1914H-104.454ZM-103.418 84.9404H-104.454V82.8687H-102.383V83.9045H-103.418V84.9404ZM-2.94028 83.9045V82.8687H-0.868561V84.9404H-1.90442V83.9045H-2.94028ZM-95.1315 84.9404V82.8687H-93.0598V84.9404H-95.1315ZM-84.7729 84.9404V82.8687H-82.7012V84.9404H-84.7729ZM-74.4144 84.9404V82.8687H-72.3427V84.9404H-74.4144ZM-64.0558 84.9404V82.8687H-61.9841V84.9404H-64.0558ZM-53.6973 84.9404V82.8687H-51.6255V84.9404H-53.6973ZM-43.3387 84.9404V82.8687H-41.267V84.9404H-43.3387ZM-32.9801 84.9404V82.8687H-30.9084V84.9404H-32.9801ZM-22.6216 84.9404V82.8687H-20.5498V84.9404H-22.6216ZM-12.263 84.9404V82.8687H-10.1913V84.9404H-12.263ZM-2.94028 92.1914H-0.868561V94.2631H-2.94028V92.1914ZM-2.94028 102.55H-0.868561V104.622H-2.94028V102.55ZM-2.94028 112.908H-0.868561V114.98H-2.94028V112.908ZM-2.94028 123.267H-0.868561V125.339H-2.94028V123.267ZM-2.94028 133.626H-0.868561V135.697H-2.94028V133.626ZM-2.94028 143.984H-0.868561V146.056H-2.94028V143.984ZM-2.94028 154.343H-0.868561V156.414H-2.94028V154.343ZM-2.94028 164.701H-0.868561V166.773H-2.94028V164.701ZM-2.94028 175.06H-0.868561V177.132H-2.94028V175.06ZM-2.94028 185.418H-0.868561V187.49H-2.94028V185.418ZM-2.94028 195.777H-0.868561V197.849H-2.94028V195.777ZM-102.383 197.849H-104.454V195.777H-102.383V197.849ZM-102.383 187.49H-104.454V185.418H-102.383V187.49ZM-102.383 177.132H-104.454V175.06H-102.383V177.132ZM-102.383 166.773H-104.454V164.701H-102.383V166.773ZM-102.383 156.414H-104.454V154.343H-102.383V156.414ZM-102.383 146.056H-104.454V143.984H-102.383V146.056ZM-102.383 135.697H-104.454V133.626H-102.383V135.697ZM-102.383 125.339H-104.454V123.267H-102.383V125.339ZM-102.383 114.98H-104.454V112.908H-102.383V114.98ZM-102.383 104.622H-104.454V102.55H-102.383V104.622ZM-94.0956 104.621V102.55H-92.0239V104.621H-94.0956ZM-94.0956 95.2988H-93.0597V94.2629H-92.0239V93.2271H-94.0956V95.2988ZM-11.2271 95.2988V93.2271H-13.2988V94.2629H-12.2629V95.2988H-11.2271ZM-84.7729 93.2271V95.2988H-82.7012V93.2271H-84.7729ZM-74.4143 93.2271V95.2988H-72.3426V93.2271H-74.4143ZM-64.0557 93.2271V95.2988H-61.984V93.2271H-64.0557ZM-53.6972 93.2271V95.2988H-51.6255V93.2271H-53.6972ZM-43.3386 93.2271V95.2988H-41.2669V93.2271H-43.3386ZM-32.98 93.2271V95.2988H-30.9083V93.2271H-32.98ZM-22.6215 93.2271V95.2988H-20.5498V93.2271H-22.6215ZM-11.2271 102.55H-13.2988V104.621H-11.2271V102.55ZM-11.2271 112.908H-13.2988V114.98H-11.2271V112.908ZM-11.2271 123.267H-13.2988V125.339H-11.2271V123.267ZM-11.2271 133.625H-13.2988V135.697H-11.2271V133.625ZM-11.2271 143.984H-13.2988V146.056H-11.2271V143.984ZM-11.2271 154.343H-13.2988V156.414H-11.2271V154.343ZM-11.2271 164.701H-13.2988V166.773H-11.2271V164.701ZM-11.2271 175.06H-13.2988V177.131H-11.2271V175.06ZM-11.2271 185.418H-13.2988V187.49H-11.2271V185.418ZM-11.2271 195.777H-13.2988V197.849H-11.2271V195.777ZM-94.0956 197.849H-92.0239V195.777H-94.0956V197.849ZM-94.0956 187.49H-92.0239V185.418H-94.0956V187.49ZM-94.0956 177.131H-92.0239V175.06H-94.0956V177.131ZM-94.0956 166.773H-92.0239V164.701H-94.0956V166.773ZM-94.0956 156.414H-92.0239V154.343H-94.0956V156.414ZM-94.0956 146.056H-92.0239V143.984H-94.0956V146.056ZM-94.0956 135.697H-92.0239V133.625H-94.0956V135.697ZM-94.0956 125.339H-92.0239V123.267H-94.0956V125.339ZM-94.0956 114.98H-92.0239V112.908H-94.0956V114.98ZM-83.7371 112.908V114.98H-81.6653V112.908H-83.7371ZM-82.7012 105.657H-83.7371V103.586H-81.6653V104.622H-82.7012V105.657ZM-23.6574 104.622V103.586H-21.5857V105.657H-22.6215V104.622H-23.6574ZM-72.3426 105.657H-74.4144V103.586H-72.3426V105.657ZM-61.9841 105.657H-64.0558V103.586H-61.9841V105.657ZM-51.6255 105.657H-53.6972V103.586H-51.6255V105.657ZM-41.2669 105.657H-43.3387V103.586H-41.2669V105.657ZM-30.9084 105.657H-32.9801V103.586H-30.9084V105.657ZM-23.6574 112.908H-21.5857V114.98H-23.6574V112.908ZM-23.6574 123.267H-21.5857V125.339H-23.6574V123.267ZM-23.6574 133.626H-21.5857V135.697H-23.6574V133.626ZM-23.6574 143.984H-21.5857V146.056H-23.6574V143.984ZM-23.6574 154.343H-21.5857V156.414H-23.6574V154.343ZM-23.6574 164.701H-21.5857V166.773H-23.6574V164.701ZM-23.6574 175.06H-21.5857V177.132H-23.6574V175.06ZM-23.6574 185.418H-21.5857V187.49H-23.6574V185.418ZM-23.6574 195.777H-21.5857V197.849H-23.6574V195.777ZM-81.6653 197.849H-83.7371V195.777H-81.6653V197.849ZM-81.6653 187.49H-83.7371V185.418H-81.6653V187.49ZM-81.6653 177.132H-83.7371V175.06H-81.6653V177.132ZM-81.6653 166.773H-83.7371V164.701H-81.6653V166.773ZM-81.6653 156.414H-83.7371V154.343H-81.6653V156.414ZM-81.6653 146.056H-83.7371V143.984H-81.6653V146.056ZM-81.6653 135.697H-83.7371V133.626H-81.6653V135.697ZM-81.6653 125.339H-83.7371V123.267H-81.6653V125.339ZM-73.3785 125.339V123.267H-71.3068V125.339H-73.3785ZM-73.3785 116.016H-72.3426V114.98H-71.3068V113.944H-73.3785V116.016ZM-34.0159 113.944V114.98H-32.9801V116.016H-31.9442V113.944H-34.0159ZM-64.0558 113.944V116.016H-61.9841V113.944H-64.0558ZM-53.6972 113.944V116.016H-51.6255V113.944H-53.6972ZM-43.3386 113.944V116.016H-41.2669V113.944H-43.3386ZM-31.9442 123.267H-34.0159V125.339H-31.9442V123.267ZM-31.9442 133.626H-34.0159V135.697H-31.9442V133.626ZM-31.9442 143.984H-34.0159V146.056H-31.9442V143.984ZM-31.9442 154.343H-34.0159V156.414H-31.9442V154.343ZM-31.9442 164.701H-34.0159V166.773H-31.9442V164.701ZM-31.9442 175.06H-34.0159V177.132H-31.9442V175.06ZM-31.9442 185.418H-34.0159V187.49H-31.9442V185.418ZM-31.9442 195.777H-34.0159V197.849H-31.9442V195.777ZM-73.3785 197.849H-71.3068V195.777H-73.3785V197.849ZM-73.3785 187.49H-71.3068V185.418H-73.3785V187.49ZM-73.3785 177.132H-71.3068V175.06H-73.3785V177.132ZM-73.3785 166.773H-71.3068V164.701H-73.3785V166.773ZM-73.3785 156.414H-71.3068V154.343H-73.3785V156.414ZM-73.3785 146.056H-71.3068V143.984H-73.3785V146.056ZM-73.3785 135.697H-71.3068V133.626H-73.3785V135.697ZM-63.0199 133.625V135.697H-60.9482V133.625H-63.0199ZM-61.9841 126.374H-63.0199V124.303H-60.9482V125.339H-61.9841V126.374ZM-42.3028 124.303V126.374H-43.3387V125.339H-44.3745V124.303H-42.3028ZM-44.3745 133.625H-42.3028V135.697H-44.3745V133.625ZM-51.8327 126.374H-53.49H-53.6972V124.303H-51.6255V126.374H-51.8327ZM-44.3745 143.984H-42.3028V146.056H-44.3745V143.984ZM-44.3745 154.343H-42.3028V156.414H-44.3745V154.343ZM-44.3745 164.701H-42.3028V166.773H-44.3745V164.701ZM-44.3745 175.06H-42.3028V177.131H-44.3745V175.06ZM-44.3745 185.418H-42.3028V187.49H-44.3745V185.418ZM-44.3745 195.777H-42.3028V197.849H-44.3745V195.777ZM-60.9482 197.849H-63.0199V195.777H-60.9482V197.849ZM-60.9482 187.49H-63.0199V185.418H-60.9482V187.49ZM-60.9482 177.131H-63.0199V175.06H-60.9482V177.131ZM-60.9482 166.773H-63.0199V164.701H-60.9482V166.773ZM-60.9482 156.414H-63.0199V154.343H-60.9482V156.414ZM-60.9482 146.056H-63.0199V143.984H-60.9482V146.056ZM-51.6255 143.984V146.056H-53.6972V143.984H-51.6255ZM-53.6972 135.697H-51.6255V133.625H-53.6972V135.697ZM-53.6972 154.343V156.414H-51.6255V154.343H-53.6972ZM-51.6255 164.701V166.773H-53.6972V164.701H-51.6255ZM-53.6972 175.06V177.131H-51.6255V175.06H-53.6972ZM-51.6255 185.418V187.49H-53.6972V185.418H-51.6255ZM-53.6972 195.777V197.849H-51.6255V195.777H-53.6972ZM-166.606 30.04V32.1117H-164.534V30.04H-166.606ZM-165.57 22.789H-166.606V20.7173H-164.534V21.7531H-165.57V22.789ZM59.2112 20.7173H61.2829V22.789H60.247V21.7531H59.2112V20.7173ZM-155.211 22.789H-157.283V20.7173H-155.211V22.789ZM-146.924 22.789V20.7173H-144.853V22.789H-146.924ZM-136.566 22.789V20.7173H-134.494V22.789H-136.566ZM-126.207 22.789V20.7173H-124.135V22.789H-126.207ZM-115.849 22.789V20.7173H-113.777V22.789H-115.849ZM-105.49 22.789V20.7173H-103.418V22.789H-105.49ZM-95.1315 22.789V20.7173H-93.0598V22.789H-95.1315ZM-84.7729 22.789V20.7173H-82.7012V22.789H-84.7729ZM-74.4144 22.789V20.7173H-72.3426V22.789H-74.4144ZM-64.0558 22.789V20.7173H-61.9841V22.789H-64.0558ZM-53.6972 22.789V20.7173H-51.6255V22.789H-53.6972ZM-43.3387 22.789V20.7173H-41.2669V22.789H-43.3387ZM-32.9801 22.789V20.7173H-30.9084V22.789H-32.9801ZM-22.6215 22.789V20.7173H-20.5498V22.789H-22.6215ZM-12.263 22.789V20.7173H-10.1912V22.789H-12.263ZM-1.90439 22.789V20.7173H0.167328V22.789H-1.90439ZM8.45418 22.789V20.7173H10.5259V22.789H8.45418ZM18.8127 22.789V20.7173H20.8845V22.789H18.8127ZM31.243 22.789H29.1713V20.7173H31.243V22.789ZM41.6016 22.789H39.5299V20.7173H41.6016V22.789ZM51.9602 22.789H49.8884V20.7173H51.9602V22.789ZM59.2112 30.04H61.2829V32.1117H59.2112V30.04ZM59.2112 40.3986H61.2829V42.4703H59.2112V40.3986ZM59.2112 50.7571H61.2829V52.8288H59.2112V50.7571ZM59.2112 61.1157H61.2829V63.1874H59.2112V61.1157ZM59.2112 71.4743H61.2829V73.546H59.2112V71.4743ZM59.2112 81.8328H61.2829V83.9045H59.2112V81.8328ZM59.2112 92.1914H61.2829V94.2631H59.2112V92.1914ZM59.2112 102.55H61.2829V104.622H59.2112V102.55ZM59.2112 112.909H61.2829V114.98H59.2112V112.909ZM59.2112 123.267H61.2829V125.339H59.2112V123.267ZM59.2112 133.626H61.2829V135.697H59.2112V133.626ZM59.2112 143.984H61.2829V146.056H59.2112V143.984ZM59.2112 154.343H61.2829V156.415H59.2112V154.343ZM59.2112 164.701H61.2829V166.773H59.2112V164.701ZM59.2112 175.06H61.2829V177.132H59.2112V175.06ZM59.2112 185.418H61.2829V187.49H59.2112V185.418ZM59.2112 195.777H61.2829V197.849H59.2112V195.777ZM-164.534 197.849H-166.606V195.777H-164.534V197.849ZM-164.534 187.49H-166.606V185.418H-164.534V187.49ZM-164.534 177.132H-166.606V175.06H-164.534V177.132ZM-164.534 166.773H-166.606V164.701H-164.534V166.773ZM-164.534 156.415H-166.606V154.343H-164.534V156.415ZM-164.534 146.056H-166.606V143.984H-164.534V146.056ZM-164.534 135.697H-166.606V133.626H-164.534V135.697ZM-164.534 125.339H-166.606V123.267H-164.534V125.339ZM-164.534 114.98H-166.606V112.909H-164.534V114.98ZM-164.534 104.622H-166.606V102.55H-164.534V104.622ZM-164.534 94.2631H-166.606V92.1914H-164.534V94.2631ZM-164.534 83.9045H-166.606V81.8328H-164.534V83.9045ZM-164.534 73.546H-166.606V71.4743H-164.534V73.546ZM-164.534 63.1874H-166.606V61.1157H-164.534V63.1874ZM-164.534 52.8288H-166.606V50.7571H-164.534V52.8288ZM-164.534 42.4703H-166.606V40.3986H-164.534V42.4703Z" fill="#9153DF"/>
</svg>
