<svg width="74" height="360" viewBox="0 0 74 360" fill="none" xmlns="http://www.w3.org/2000/svg">
<path fill-rule="evenodd" clip-rule="evenodd" d="M-175 0H-177V2H-175V0ZM72 360H74V358H73V359H72V360ZM74 2V0H72V0.999992H73V2H74ZM-167 0V2H-165V0H-167ZM-157 0V2H-155V0H-157ZM-147 0V2H-145V0H-147ZM-137 0V2H-135V0H-137ZM-127 0V2H-125V0H-127ZM-117 0V2H-115V0H-117ZM-107 0V2H-105V0H-107ZM-97 0V2H-95V0H-97ZM-87 0V2H-85V0H-87ZM-77 0V2H-75V0H-77ZM-67 0V2H-65V0H-67ZM-57 0V2H-55V0H-57ZM-47 0V2H-45V0H-47ZM-37 0V2H-35V0H-37ZM-27 0V2H-25V0H-27ZM-17 0V2H-15V0H-17ZM-7 0V2H-5V0H-7ZM3 0V2H5V0H3ZM13 0V2H15V0H13ZM23 0V2H25V0H23ZM33 0V2H35V0H33ZM43 0V2H45V0H43ZM53 0V2H55V0H53ZM63 0V2H65V0H63ZM74 8.99999H72V11H74V8.99999ZM74 19H72V21H74V19ZM74 29H72V31H74V29ZM74 39H72V41H74V39ZM74 49H72V51H74V49ZM74 59H72V61H74V59ZM74 69H72V71H74V69ZM74 79H72V81H74V79ZM74 89H72V91H74V89ZM74 99H72V101H74V99ZM74 109H72V111H74V109ZM74 119H72V121H74V119ZM74 129H72V131H74V129ZM74 139H72V141H74V139ZM74 149H72V151H74V149ZM74 159H72V161H74V159ZM74 169H72V171H74V169ZM74 179H72V181H74V179ZM74 189H72V191H74V189ZM74 199H72V201H74V199ZM74 209H72V211H74V209ZM74 219H72V221H74V219ZM74 229H72V231H74V229ZM74 239H72V241H74V239ZM74 249H72V251H74V249ZM74 259H72V261H74V259ZM74 269H72V271H74V269ZM74 279H72V281H74V279ZM74 289H72V291H74V289ZM74 299H72V301H74V299ZM74 309H72V311H74V309ZM74 319H72V321H74V319ZM74 329H72V331H74V329ZM74 339H72V341H74V339ZM74 349H72V351H74V349ZM65 360V358H63V360H65ZM55 360V358H53V360H55ZM45 360V358H43V360H45ZM35 360V358H33V360H35ZM25 360V358H23V360H25ZM15 360V358H13V360H15ZM5 360V358H3V360H5ZM-5 360V358H-7V360H-5ZM-15 360V358H-17V360H-15ZM-25 360V358H-27V360H-25ZM-35 360V358H-37V360H-35ZM-45 360V358H-47V360H-45ZM-55 360V358H-57V360H-55ZM-65 360V358H-67V360H-65ZM-75 360V358H-77V360H-75ZM-85 360V358H-87V360H-85ZM-95 360V358H-97V360H-95ZM-105 360V358H-107V360H-105ZM-115 360V358H-117V360H-115ZM-125 360V358H-127V360H-125ZM-135 360V358H-137V360H-135ZM-145 360V358H-147V360H-145ZM-155 360V358H-157V360H-155ZM-165 360V358H-167V360H-165ZM-175 360V358H-177V360H-175Z" fill="#DFBF62"/>
<path fill-rule="evenodd" clip-rule="evenodd" d="M-176 21V19H-174V21H-176ZM-176 12H-175V11H-174V10H-176V12ZM-176 348V350H-174V349H-175V348H-176ZM62 350H64V348H63V349H62V350ZM64 12V10H62V11H63V12H64ZM-167 10V12H-165V10H-167ZM-157 10V12H-155V10H-157ZM-147 10V12H-145V10H-147ZM-137 10V12H-135V10H-137ZM-127 10V12H-125V10H-127ZM-117 10V12H-115V10H-117ZM-107 10V12H-105V10H-107ZM-97 10V12H-95V10H-97ZM-87 10V12H-85V10H-87ZM-77 10V12H-75V10H-77ZM-67 10V12H-65V10H-67ZM-57 10V12H-55V10H-57ZM-47 10V12H-45V10H-47ZM-37 10V12H-35V10H-37ZM-27 10V12H-25V10H-27ZM-17 10V12H-15V10H-17ZM-7 10V12H-5V10H-7ZM3 10V12H5V10H3ZM13 10V12H15V10H13ZM23 10V12H25V10H23ZM33 10V12H35V10H33ZM43 10V12H45V10H43ZM53 10V12H55V10H53ZM64 19H62V21H64V19ZM64 29H62V31H64V29ZM64 39H62V41H64V39ZM64 49H62V51H64V49ZM64 59H62V61H64V59ZM64 69H62V71H64V69ZM64 79H62V81H64V79ZM64 89H62V91H64V89ZM64 99H62V101H64V99ZM64 109H62V111H64V109ZM64 119H62V121H64V119ZM64 129H62V131H64V129ZM64 139H62V141H64V139ZM64 149H62V151H64V149ZM64 159H62V161H64V159ZM64 169H62V171H64V169ZM64 179H62V181H64V179ZM64 189H62V191H64V189ZM64 199H62V201H64V199ZM64 209H62V211H64V209ZM64 219H62V221H64V219ZM64 229H62V231H64V229ZM64 239H62V241H64V239ZM64 249H62V251H64V249ZM64 259H62V261H64V259ZM64 269H62V271H64V269ZM64 279H62V281H64V279ZM64 289H62V291H64V289ZM64 299H62V301H64V299ZM64 309H62V311H64V309ZM64 319H62V321H64V319ZM64 329H62V331H64V329ZM64 339H62V341H64V339ZM55 350V348H53V350H55ZM45 350V348H43V350H45ZM35 350V348H33V350H35ZM25 350V348H23V350H25ZM15 350V348H13V350H15ZM5 350V348H3V350H5ZM-5 350V348H-7V350H-5ZM-15 350V348H-17V350H-15ZM-25 350V348H-27V350H-25ZM-35 350V348H-37V350H-35ZM-45 350V348H-47V350H-45ZM-55 350V348H-57V350H-55ZM-65 350V348H-67V350H-65ZM-75 350V348H-77V350H-75ZM-85 350V348H-87V350H-85ZM-95 350V348H-97V350H-95ZM-105 350V348H-107V350H-105ZM-115 350V348H-117V350H-115ZM-125 350V348H-127V350H-125ZM-135 350V348H-137V350H-135ZM-145 350V348H-147V350H-145ZM-155 350V348H-157V350H-155ZM-165 350V348H-167V350H-165ZM-176 341H-174V339H-176V341ZM-176 331H-174V329H-176V331ZM-176 321H-174V319H-176V321ZM-176 311H-174V309H-176V311ZM-176 301H-174V299H-176V301ZM-176 291H-174V289H-176V291ZM-176 281H-174V279H-176V281ZM-176 271H-174V269H-176V271ZM-176 261H-174V259H-176V261ZM-176 251H-174V249H-176V251ZM-176 241H-174V239H-176V241ZM-176 231H-174V229H-176V231ZM-176 221H-174V219H-176V221ZM-176 211H-174V209H-176V211ZM-176 201H-174V199H-176V201ZM-176 191H-174V189H-176V191ZM-176 181H-174V179H-176V181ZM-176 171H-174V169H-176V171ZM-176 161H-174V159H-176V161ZM-176 151H-174V149H-176V151ZM-176 141H-174V139H-176V141ZM-176 131H-174V129H-176V131ZM-176 121H-174V119H-176V121ZM-176 111H-174V109H-176V111ZM-176 101H-174V99H-176V101ZM-176 91H-174V89H-176V91ZM-176 81H-174V79H-176V81ZM-176 71H-174V69H-176V71ZM-176 61H-174V59H-176V61ZM-176 51H-174V49H-176V51ZM-176 41H-174V39H-176V41ZM-176 31H-174V29H-176V31Z" fill="#DFBF62"/>
<path fill-rule="evenodd" clip-rule="evenodd" d="M-166 31V29H-164V31H-166ZM-166 22H-165V21H-164V20H-166V22ZM-166 338V340H-164V339H-165L-165 338H-166ZM52 340H54V338H53V339H52V340ZM54 22V20H52V21H53V22H54ZM-157 20V22H-155V20H-157ZM-147 20V22H-145V20H-147ZM-137 20V22H-135V20H-137ZM-127 20V22H-125V20H-127ZM-117 20V22H-115V20H-117ZM-107 20V22H-105V20H-107ZM-97 20V22H-95V20H-97ZM-87 20V22H-85V20H-87ZM-77 20V22H-75V20H-77ZM-67 20V22H-65V20H-67ZM-57 20V22H-55V20H-57ZM-47 20V22H-45V20H-47ZM-37 20V22H-35V20H-37ZM-27 20V22H-25V20H-27ZM-17 20V22H-15V20H-17ZM-7 20V22H-5V20H-7ZM3 20V22H5V20H3ZM13 20V22H15V20H13ZM23 20V22H25V20H23ZM33 20V22H35V20H33ZM43 20V22H45V20H43ZM54 29H52V31H54V29ZM54 39H52V41H54V39ZM54 49H52V51H54V49ZM54 59H52V61H54V59ZM54 69H52V71H54V69ZM54 79H52V81H54V79ZM54 89H52V91H54V89ZM54 99H52V101H54V99ZM54 109H52V111H54V109ZM54 119H52V121H54V119ZM54 129H52V131H54V129ZM54 139H52V141H54V139ZM54 149H52V151H54V149ZM54 159H52V161H54V159ZM54 169H52V171H54V169ZM54 179H52V181H54V179ZM54 189H52V191H54V189ZM54 199H52V201H54V199ZM54 209H52V211H54V209ZM54 219H52V221H54V219ZM54 229H52V231H54V229ZM54 239H52V241H54V239ZM54 249H52V251H54V249ZM54 259H52V261H54V259ZM54 269H52V271H54V269ZM54 279H52V281H54V279ZM54 289H52V291H54V289ZM54 299H52V301H54V299ZM54 309H52V311H54V309ZM54 319H52V321H54V319ZM54 329H52V331H54V329ZM45 340V338H43V340H45ZM35 340V338H33V340H35ZM25 340V338H23V340H25ZM15 340V338H13V340H15ZM5 340V338H3V340H5ZM-5 340V338H-7V340H-5ZM-15 340V338H-17V340H-15ZM-25 340V338H-27V340H-25ZM-35 340V338H-37V340H-35ZM-45 340V338H-47V340H-45ZM-55 340V338H-57V340H-55ZM-65 340V338H-67V340H-65ZM-75 340V338H-77V340H-75ZM-85 340V338H-87V340H-85ZM-95 340V338H-97V340H-95ZM-105 340V338H-107V340H-105ZM-115 340V338H-117V340H-115ZM-125 340V338H-127V340H-125ZM-135 340V338H-137V340H-135ZM-145 340V338H-147V340H-145ZM-155 340V338H-157V340H-155ZM-166 331H-164V329H-166V331ZM-166 321H-164V319H-166V321ZM-166 311H-164V309H-166V311ZM-166 301H-164V299H-166V301ZM-166 291H-164V289H-166V291ZM-166 281H-164V279H-166V281ZM-166 271H-164V269H-166V271ZM-166 261H-164V259H-166V261ZM-166 251H-164V249H-166V251ZM-166 241H-164V239H-166V241ZM-166 231H-164V229H-166V231ZM-166 221H-164V219H-166V221ZM-166 211H-164V209H-166V211ZM-166 201H-164V199H-166V201ZM-166 191H-164V189H-166V191ZM-166 181H-164V179H-166V181ZM-166 171H-164V169H-166V171ZM-166 161H-164V159H-166V161ZM-166 151H-164V149H-166V151ZM-166 141H-164V139H-166V141ZM-166 131H-164V129H-166V131ZM-166 121H-164V119H-166V121ZM-166 111H-164V109H-166V111ZM-166 101H-164V99H-166V101ZM-166 91H-164V89H-166V91ZM-166 81H-164V79H-166V81ZM-166 71H-164V69H-166V71ZM-166 61H-164V59H-166V61ZM-166 51H-164V49H-166V51ZM-166 41H-164V39H-166V41Z" fill="#DFBF62"/>
<path fill-rule="evenodd" clip-rule="evenodd" d="M-156 41V39H-154V41H-156ZM-156 32H-155V31H-154V30H-156V32ZM-156 328V330H-154V329H-155V328H-156ZM42 330H44V328H43V329H42V330ZM44 32V30H42V31H43V32H44ZM-147 30V32H-145V30H-147ZM-137 30V32H-135V30H-137ZM-127 30V32H-125V30H-127ZM-117 30V32H-115V30H-117ZM-107 30V32H-105V30H-107ZM-97 30V32H-95V30H-97ZM-87 30V32H-85V30H-87ZM-77 30V32H-75V30H-77ZM-67 30V32H-65V30H-67ZM-57 30V32H-55V30H-57ZM-47 30V32H-45V30H-47ZM-37 30V32H-35V30H-37ZM-27 30V32H-25V30H-27ZM-17 30V32H-15V30H-17ZM-7 30V32H-5V30H-7ZM3 30V32H5V30H3ZM13 30V32H15V30H13ZM23 30V32H25V30H23ZM33 30V32H35V30H33ZM44 39H42V41H44V39ZM44 49H42V51H44V49ZM44 59H42V61H44V59ZM44 69H42V71H44V69ZM44 79H42V81H44V79ZM44 89H42V91H44V89ZM44 99H42V101H44V99ZM44 109H42V111H44V109ZM44 119H42V121H44V119ZM44 129H42V131H44V129ZM44 139H42V141H44V139ZM44 149H42V151H44V149ZM44 159H42V161H44V159ZM44 169H42V171H44V169ZM44 179H42V181H44V179ZM44 189H42V191H44V189ZM44 199H42V201H44V199ZM44 209H42V211H44V209ZM44 219H42V221H44V219ZM44 229H42V231H44V229ZM44 239H42V241H44V239ZM44 249H42V251H44V249ZM44 259H42V261H44V259ZM44 269H42V271H44V269ZM44 279H42V281H44V279ZM44 289H42V291H44V289ZM44 299H42V301H44V299ZM44 309H42V311H44V309ZM44 319H42V321H44V319ZM35 330V328H33V330H35ZM25 330V328H23V330H25ZM15 330V328H13V330H15ZM5 330V328H3V330H5ZM-5 330V328H-7V330H-5ZM-15 330V328H-17V330H-15ZM-25 330V328H-27V330H-25ZM-35 330V328H-37V330H-35ZM-45 330V328H-47V330H-45ZM-55 330V328H-57V330H-55ZM-65 330V328H-67V330H-65ZM-75 330V328H-77V330H-75ZM-85 330V328H-87V330H-85ZM-95 330V328H-97V330H-95ZM-105 330V328H-107V330H-105ZM-115 330V328H-117V330H-115ZM-125 330V328H-127V330H-125ZM-135 330V328H-137V330H-135ZM-145 330V328H-147V330H-145ZM-156 321H-154V319H-156V321ZM-156 311H-154V309H-156V311ZM-156 301H-154V299H-156V301ZM-156 291H-154V289H-156V291ZM-156 281H-154V279H-156V281ZM-156 271H-154V269H-156V271ZM-156 261H-154V259H-156V261ZM-156 251H-154V249H-156V251ZM-156 241H-154V239H-156V241ZM-156 231H-154V229H-156V231ZM-156 221H-154V219H-156V221ZM-156 211H-154V209H-156V211ZM-156 201H-154V199H-156V201ZM-156 191H-154V189H-156V191ZM-156 181H-154V179H-156V181ZM-156 171H-154V169H-156V171ZM-156 161H-154V159H-156V161ZM-156 151H-154V149H-156V151ZM-156 141H-154V139H-156V141ZM-156 131H-154V129H-156V131ZM-156 121H-154V119H-156V121ZM-156 111H-154V109H-156V111ZM-156 101H-154V99H-156V101ZM-156 91H-154V89H-156V91ZM-156 81H-154V79H-156V81ZM-156 71H-154V69H-156V71ZM-156 61H-154V59H-156V61ZM-156 51H-154V49H-156V51Z" fill="#DFBF62"/>
<path fill-rule="evenodd" clip-rule="evenodd" d="M-146 51V49H-144V51H-146ZM-146 42H-145V41H-144V40H-146V42ZM-135 40H-137V42H-135V40ZM-146 318V320H-144V319H-145V318H-146ZM32 320H34V318H33V319H32V320ZM34 42V40H32V41H33V42H34ZM-127 40V42H-125V40H-127ZM-117 40V42H-115V40H-117ZM-107 40V42H-105V40H-107ZM-97 40V42H-95V40H-97ZM-87 40V42H-85V40H-87ZM-77 40V42H-75V40H-77ZM-67 40V42H-65V40H-67ZM-57 40V42H-55V40H-57ZM-47 40V42H-45V40H-47ZM-37 40V42H-35V40H-37ZM-27 40V42H-25V40H-27ZM-17 40V42H-15V40H-17ZM-7 40V42H-5V40H-7ZM3 40V42H5V40H3ZM13 40V42H15V40H13ZM23 40V42H25V40H23ZM34 49H32V51H34V49ZM34 59H32V61H34V59ZM34 69H32V71H34V69ZM34 79H32V81H34V79ZM34 89H32V91H34V89ZM34 99H32V101H34V99ZM34 109H32V111H34V109ZM34 119H32V121H34V119ZM34 129H32V131H34V129ZM34 139H32V141H34V139ZM34 149H32V151H34V149ZM34 159H32V161H34V159ZM34 169H32V171H34V169ZM34 179H32V181H34V179ZM34 189H32V191H34V189ZM34 199H32V201H34V199ZM34 209H32V211H34V209ZM34 219H32V221H34V219ZM34 229H32V231H34V229ZM34 239H32V241H34V239ZM34 249H32V251H34V249ZM34 259H32V261H34V259ZM34 269H32V271H34V269ZM34 279H32V281H34V279ZM34 289H32V291H34V289ZM34 299H32V301H34V299ZM34 309H32V311H34V309ZM25 320V318H23V320H25ZM15 320V318H13V320H15ZM5 320V318H3V320H5ZM-5 320V318H-7V320H-5ZM-15 320V318H-17V320H-15ZM-25 320V318H-27V320H-25ZM-35 320V318H-37V320H-35ZM-45 320V318H-47V320H-45ZM-55 320V318H-57V320H-55ZM-65 320V318H-67V320H-65ZM-75 320V318H-77V320H-75ZM-85 320V318H-87V320H-85ZM-95 320V318H-97V320H-95ZM-105 320V318H-107V320H-105ZM-115 320V318H-117V320H-115ZM-125 320V318H-127V320H-125ZM-135 320V318H-137V320H-135ZM-146 311H-144V309H-146V311ZM-146 301H-144V299H-146V301ZM-146 291H-144V289H-146V291ZM-146 281H-144V279H-146V281ZM-146 271H-144V269H-146V271ZM-146 261H-144V259H-146V261ZM-146 251H-144V249H-146V251ZM-146 241H-144V239H-146V241ZM-146 231H-144V229H-146V231ZM-146 221H-144V219H-146V221ZM-146 211H-144V209H-146V211ZM-146 201H-144V199H-146V201ZM-146 191H-144V189H-146V191ZM-146 181H-144V179H-146V181ZM-146 171H-144V169H-146V171ZM-146 161H-144V159H-146V161ZM-146 151H-144V149H-146V151ZM-146 141H-144V139H-146V141ZM-146 131H-144V129H-146V131ZM-146 121H-144V119H-146V121ZM-146 111H-144V109H-146V111ZM-146 101H-144V99H-146V101ZM-146 91H-144V89H-146V91ZM-146 81H-144V79H-146V81ZM-146 71H-144V69H-146V71ZM-146 61H-144V59H-146V61Z" fill="#DFBF62"/>
<path fill-rule="evenodd" clip-rule="evenodd" d="M-136 61V59H-134V61H-136ZM-136 52H-135V51H-134V50H-136V52ZM-125 50H-127V52H-125V50ZM-136 308V310H-134V309H-135V308H-136ZM22 310H24V308H23V309H22V310ZM24 52V50H22V51H23V52H24ZM-117 50V52H-115V50H-117ZM-107 50V52H-105V50H-107ZM-97 50V52H-95V50H-97ZM-87 50V52H-85V50H-87ZM-77 50V52H-75V50H-77ZM-67 50V52H-65V50H-67ZM-57 50V52H-55V50H-57ZM-47 50V52H-45V50H-47ZM-37 50V52H-35V50H-37ZM-27 50V52H-25V50H-27ZM-17 50V52H-15V50H-17ZM-7 50V52H-5V50H-7ZM3 50V52H5V50H3ZM13 50V52H15V50H13ZM24 59H22V61H24V59ZM24 69H22V71H24V69ZM24 79H22V81H24V79ZM24 89H22V91H24V89ZM24 99H22V101H24V99ZM24 109H22V111H24V109ZM24 119H22V121H24V119ZM24 129H22V131H24V129ZM24 139H22V141H24V139ZM24 149H22V151H24V149ZM24 159H22V161H24V159ZM24 169H22V171H24V169ZM24 179H22V181H24V179ZM24 189H22V191H24V189ZM24 199H22V201H24V199ZM24 209H22V211H24V209ZM24 219H22V221H24V219ZM24 229H22V231H24V229ZM24 239H22V241H24V239ZM24 249H22V251H24V249ZM24 259H22V261H24V259ZM24 269H22V271H24V269ZM24 279H22V281H24V279ZM24 289H22V291H24V289ZM24 299H22V301H24V299ZM15 310V308H13V310H15ZM5 310V308H3V310H5ZM-5 310V308H-7V310H-5ZM-15 310V308H-17V310H-15ZM-25 310V308H-27V310H-25ZM-35 310V308H-37V310H-35ZM-45 310V308H-47V310H-45ZM-55 310V308H-57V310H-55ZM-65 310V308H-67V310H-65ZM-75 310V308H-77V310H-75ZM-85 310V308H-87V310H-85ZM-95 310V308H-97V310H-95ZM-105 310V308H-107V310H-105ZM-115 310V308H-117V310H-115ZM-125 310V308H-127V310H-125ZM-136 301H-134V299H-136V301ZM-136 291H-134V289H-136V291ZM-136 281H-134V279H-136V281ZM-136 271H-134V269H-136V271ZM-136 261H-134V259H-136V261ZM-136 251H-134V249H-136V251ZM-136 241H-134V239H-136V241ZM-136 231H-134V229H-136V231ZM-136 221H-134V219H-136V221ZM-136 211H-134V209H-136V211ZM-136 201H-134V199H-136V201ZM-136 191H-134V189H-136V191ZM-136 181H-134V179H-136V181ZM-136 171H-134V169H-136V171ZM-136 161H-134V159H-136V161ZM-136 151H-134V149H-136V151ZM-136 141H-134V139H-136V141ZM-136 131H-134V129H-136V131ZM-136 121H-134V119H-136V121ZM-136 111H-134V109H-136V111ZM-136 101H-134V99H-136V101ZM-136 91H-134V89H-136V91ZM-136 81H-134V79H-136V81ZM-136 71H-134V69H-136V71Z" fill="#DFBF62"/>
<path fill-rule="evenodd" clip-rule="evenodd" d="M-126 71V69H-124V71H-126ZM-126 62H-125V61H-124V60H-126V62ZM-126 298V300H-124V299H-125V298H-126ZM12 300H14V298H13V299H12V300ZM14 62V60H12V61H13V62H14ZM-117 60V62H-115V60H-117ZM-107 60V62H-105V60H-107ZM-97 60V62H-95V60H-97ZM-87 60V62H-85V60H-87ZM-77 60V62H-75V60H-77ZM-67 60V62H-65V60H-67ZM-57 60V62H-55V60H-57ZM-47 60V62H-45V60H-47ZM-37 60V62H-35V60H-37ZM-27 60V62H-25V60H-27ZM-17 60V62H-15V60H-17ZM-7 60V62H-5V60H-7ZM3 60V62H5V60H3ZM14 69H12V71H14V69ZM14 79H12V81H14V79ZM14 89H12V91H14V89ZM14 99H12V101H14V99ZM14 109H12V111H14V109ZM14 119H12V121H14V119ZM14 129H12V131H14V129ZM14 139H12V141H14V139ZM14 149H12V151H14V149ZM14 159H12V161H14V159ZM14 169H12V171H14V169ZM14 179H12V181H14V179ZM14 189H12V191H14V189ZM14 199H12V201H14V199ZM14 209H12V211H14V209ZM14 219H12V221H14V219ZM14 229H12V231H14V229ZM14 239H12V241H14V239ZM14 249H12V251H14V249ZM14 259H12V261H14V259ZM14 269H12V271H14V269ZM14 279H12V281H14V279ZM14 289H12V291H14V289ZM5 300V298H3V300H5ZM-5 300V298H-7V300H-5ZM-15 300V298H-17V300H-15ZM-25 300V298H-27V300H-25ZM-35 300V298H-37V300H-35ZM-45 300V298H-47V300H-45ZM-55 300V298H-57V300H-55ZM-65 300V298H-67V300H-65ZM-75 300V298H-77V300H-75ZM-85 300V298H-87V300H-85ZM-95 300V298H-97V300H-95ZM-105 300V298H-107V300H-105ZM-115 300V298H-117V300H-115ZM-126 291H-124V289H-126V291ZM-126 281H-124V279H-126V281ZM-126 271H-124V269H-126V271ZM-126 261H-124V259H-126V261ZM-126 251H-124V249H-126V251ZM-126 241H-124V239H-126V241ZM-126 231H-124V229H-126V231ZM-126 221H-124V219H-126V221ZM-126 211H-124V209H-126V211ZM-126 201H-124V199H-126V201ZM-126 191H-124V189H-126V191ZM-126 181H-124V179H-126V181ZM-126 171H-124V169H-126V171ZM-126 161H-124V159H-126V161ZM-126 151H-124V149H-126V151ZM-126 141H-124V139H-126V141ZM-126 131H-124V129H-126V131ZM-126 121H-124V119H-126V121ZM-126 111H-124V109H-126V111ZM-126 101H-124V99H-126V101ZM-126 91H-124V89H-126V91ZM-126 81H-124V79H-126V81Z" fill="#DFBF62"/>
<path fill-rule="evenodd" clip-rule="evenodd" d="M-116 81V79H-114V81H-116ZM-116 72H-115V71L-114 71V70H-116V72ZM-105 70H-107V72H-105V70ZM-116 288V290H-114V289H-115V288H-116ZM2 290H4V288H3V289H2V290ZM4 72V70H2V71H3V72H4ZM-97 70V72H-95V70H-97ZM-87 70V72H-85V70H-87ZM-77 70V72H-75V70H-77ZM-67 70V72H-65V70H-67ZM-57 70V72H-55V70H-57ZM-47 70V72H-45V70H-47ZM-37 70V72H-35V70H-37ZM-27 70V72H-25V70H-27ZM-17 70V72H-15V70H-17ZM-7 70V72H-5V70H-7ZM4 79H2V81H4V79ZM4 89H2V91H4V89ZM4 99H2V101H4V99ZM4 109H2V111H4V109ZM4 119H2V121H4V119ZM4 129H2V131H4V129ZM4 139H2V141H4V139ZM4 149H2V151H4V149ZM4 159H2V161H4V159ZM4 169H2V171H4V169ZM4 179H2V181H4V179ZM4 189H2V191H4V189ZM4 199H2V201H4V199ZM4 209H2V211H4V209ZM4 219H2V221H4V219ZM4 229H2V231H4V229ZM4 239H2V241H4V239ZM4 249H2V251H4V249ZM4 259H2V261H4V259ZM4 269H2V271H4V269ZM4 279H2V281H4V279ZM-5 290V288H-7V290H-5ZM-15 290V288H-17V290H-15ZM-25 290V288H-27V290H-25ZM-35 290V288H-37V290H-35ZM-45 290V288H-47V290H-45ZM-55 290V288H-57V290H-55ZM-65 290V288H-67V290H-65ZM-75 290V288H-77V290H-75ZM-85 290V288H-87V290H-85ZM-95 290V288H-97V290H-95ZM-105 290V288H-107V290H-105ZM-116 281H-114V279H-116V281ZM-116 271H-114V269H-116V271ZM-116 261H-114V259H-116V261ZM-116 251H-114V249H-116V251ZM-116 241H-114V239H-116V241ZM-116 231H-114V229H-116V231ZM-116 221H-114V219H-116V221ZM-116 211H-114V209H-116V211ZM-116 201H-114V199H-116V201ZM-116 191H-114V189H-116V191ZM-116 181H-114V179H-116V181ZM-116 171H-114V169H-116V171ZM-116 161H-114V159H-116V161ZM-116 151H-114V149H-116V151ZM-116 141H-114V139H-116V141ZM-116 131H-114V129H-116V131ZM-116 121H-114V119H-116V121ZM-116 111H-114V109H-116V111ZM-116 101H-114V99H-116V101ZM-116 91H-114V89H-116V91Z" fill="#DFBF62"/>
</svg>
