<svg width="260" height="217" viewBox="0 0 260 217" fill="none" xmlns="http://www.w3.org/2000/svg">
<path fill-rule="evenodd" clip-rule="evenodd" d="M2.0717 0H0V2.07171H2.0717V0ZM260 2.07171V0H257.928V1.03585H258.964V2.07171H260ZM10.3586 0V2.07171H12.4303V0H10.3586ZM20.7171 0V2.07171H22.7888V0H20.7171ZM31.0757 0V2.07171H33.1474V0H31.0757ZM41.4343 0V2.07171H43.506V0H41.4343ZM51.7928 0V2.07171H53.8645V0H51.7928ZM62.1514 0V2.07171H64.2231V0H62.1514ZM72.51 0V2.07171H74.5817V0H72.51ZM82.8685 0V2.07171H84.9402V0H82.8685ZM93.2271 0V2.07171H95.2988V0H93.2271ZM103.586 0V2.07171H105.657V0H103.586ZM113.944 0V2.07171H116.016V0H113.944ZM124.303 0V2.07171H126.375V0H124.303ZM134.661 0V2.07171H136.733V0H134.661ZM145.02 0V2.07171H147.092V0H145.02ZM155.378 0V2.07171H157.45V0H155.378ZM165.737 0V2.07171H167.809V0H165.737ZM176.096 0V2.07171H178.167V0H176.096ZM186.454 0V2.07171H188.526V0H186.454ZM196.813 0V2.07171H198.884V0H196.813ZM207.171 0V2.07171H209.243V0H207.171ZM217.53 0V2.07171H219.602V0H217.53ZM227.888 0V2.07171H229.96V0H227.888ZM238.247 0V2.07171H240.319V0H238.247ZM248.606 0V2.07171H250.677V0H248.606ZM260 9.3227H257.928V11.3944H260V9.3227ZM260 19.6813H257.928V21.753H260V19.6813ZM260 30.0398H257.928V32.1116H260V30.0398ZM260 40.3984H257.928V42.4701H260V40.3984ZM260 50.757H257.928V52.8287H260V50.757ZM260 61.1155H257.928V63.1873H260V61.1155ZM260 71.4741H257.928V73.5458H260V71.4741ZM260 81.8327H257.928V83.9044H260V81.8327ZM260 92.1912H257.928V94.2629H260V92.1912ZM260 102.55H257.928V104.622H260V102.55ZM260 112.908H257.928V114.98H260V112.908ZM260 123.267H257.928V125.339H260V123.267ZM260 133.626H257.928V135.697H260V133.626ZM260 143.984H257.928V146.056H260V143.984ZM260 154.343H257.928V156.414H260V154.343ZM260 164.701H257.928V166.773H260V164.701ZM260 175.06H257.928V177.132H260V175.06ZM260 185.418H257.928V187.49H260V185.418ZM260 195.777H257.928V197.849H260V195.777ZM260 206.135H257.928V208.207H260V206.135Z" fill="#454ED8"/>
<path fill-rule="evenodd" clip-rule="evenodd" d="M1.03586 21.7529V19.6812H3.10757V21.7529H1.03586ZM1.03586 12.4302H2.07171V11.3944H3.10757V10.3585H1.03586V12.4302ZM249.641 12.4302V10.3585H247.57V11.3944H248.606V12.4302H249.641ZM10.3586 10.3585V12.4302H12.4303V10.3585H10.3586ZM20.7171 10.3585V12.4302H22.7888V10.3585H20.7171ZM31.0757 10.3585V12.4302H33.1474V10.3585H31.0757ZM41.4343 10.3585V12.4302H43.506V10.3585H41.4343ZM51.7928 10.3585V12.4302H53.8645V10.3585H51.7928ZM62.1514 10.3585V12.4302H64.2231V10.3585H62.1514ZM72.51 10.3585V12.4302H74.5817V10.3585H72.51ZM82.8685 10.3585V12.4302H84.9402V10.3585H82.8685ZM93.2271 10.3585V12.4302H95.2988V10.3585H93.2271ZM103.586 10.3585V12.4302H105.657V10.3585H103.586ZM113.944 10.3585V12.4302H116.016V10.3585H113.944ZM124.303 10.3585V12.4302H126.375V10.3585H124.303ZM134.661 10.3585V12.4302H136.733V10.3585H134.661ZM145.02 10.3585V12.4302H147.092V10.3585H145.02ZM155.378 10.3585V12.4302H157.45V10.3585H155.378ZM165.737 10.3585V12.4302H167.809V10.3585H165.737ZM176.096 10.3585V12.4302H178.167V10.3585H176.096ZM186.454 10.3585V12.4302H188.526V10.3585H186.454ZM196.813 10.3585V12.4302H198.884V10.3585H196.813ZM207.171 10.3585V12.4302H209.243V10.3585H207.171ZM217.53 10.3585V12.4302H219.602V10.3585H217.53ZM227.888 10.3585V12.4302H229.96V10.3585H227.888ZM238.247 10.3585V12.4302H240.319V10.3585H238.247ZM249.641 19.6812H247.57V21.7529H249.641V19.6812ZM249.641 30.0398H247.57V32.1115H249.641V30.0398ZM249.641 40.3984H247.57V42.4701H249.641V40.3984ZM249.641 50.7569H247.57V52.8286H249.641V50.7569ZM249.641 61.1155H247.57V63.1872H249.641V61.1155ZM249.641 71.4741H247.57V73.5458H249.641V71.4741ZM249.641 81.8326H247.57V83.9043H249.641V81.8326ZM249.641 92.1912H247.57V94.2629H249.641V92.1912ZM249.641 102.55H247.57V104.621H249.641V102.55ZM249.641 112.908H247.57V114.98H249.641V112.908ZM249.641 123.267H247.57V125.339H249.641V123.267ZM249.641 133.625H247.57V135.697H249.641V133.625ZM249.641 143.984H247.57V146.056H249.641V143.984ZM249.641 154.343H247.57V156.414H249.641V154.343ZM249.641 164.701H247.57V166.773H249.641V164.701ZM249.641 175.06H247.57V177.131H249.641V175.06ZM249.641 185.418H247.57V187.49H249.641V185.418ZM249.641 195.777H247.57V197.849H249.641V195.777ZM249.641 206.135H247.57V208.207H249.641V206.135ZM1.03586 208.207H3.10757V206.135H1.03586V208.207ZM1.03586 197.849H3.10757V195.777H1.03586V197.849ZM1.03586 187.49H3.10757V185.418H1.03586V187.49ZM1.03586 177.131H3.10757V175.06H1.03586V177.131ZM1.03586 166.773H3.10757V164.701H1.03586V166.773ZM1.03586 156.414H3.10757V154.343H1.03586V156.414ZM1.03586 146.056H3.10757V143.984H1.03586V146.056ZM1.03586 135.697H3.10757V133.625H1.03586V135.697ZM1.03586 125.339H3.10757V123.267H1.03586V125.339ZM1.03586 114.98H3.10757V112.908H1.03586V114.98ZM1.03586 104.621H3.10757V102.55H1.03586V104.621ZM1.03586 94.2629H3.10757V92.1912H1.03586V94.2629ZM1.03586 83.9043H3.10757V81.8326H1.03586V83.9043ZM1.03586 73.5458H3.10757V71.4741H1.03586V73.5458ZM1.03586 63.1872H3.10757V61.1155H1.03586V63.1872ZM1.03586 52.8286H3.10757V50.7569H1.03586V52.8286ZM1.03586 42.4701H3.10757V40.3984H1.03586V42.4701ZM1.03586 32.1115H3.10757V30.0398H1.03586V32.1115Z" fill="#454ED8"/>
<path fill-rule="evenodd" clip-rule="evenodd" d="M11.3944 32.1116V30.0399H13.4661V32.1116H11.3944ZM11.3944 22.7889H12.4303V21.753H13.4661V20.7172H11.3944V22.7889ZM239.283 22.7889V20.7172H237.211V21.753H238.247V22.7889H239.283ZM20.7171 20.7172V22.7889H22.7888V20.7172H20.7171ZM31.0757 20.7172V22.7889H33.1474V20.7172H31.0757ZM41.4342 20.7172V22.7889H43.506V20.7172H41.4342ZM51.7928 20.7172V22.7889H53.8645V20.7172H51.7928ZM62.1514 20.7172V22.7889H64.2231V20.7172H62.1514ZM72.5099 20.7172V22.7889H74.5817V20.7172H72.5099ZM82.8685 20.7172V22.7889H84.9402V20.7172H82.8685ZM93.2271 20.7172V22.7889H95.2988V20.7172H93.2271ZM103.586 20.7172V22.7889H105.657V20.7172H103.586ZM113.944 20.7172V22.7889H116.016V20.7172H113.944ZM124.303 20.7172V22.7889H126.374V20.7172H124.303ZM134.661 20.7172V22.7889H136.733V20.7172H134.661ZM145.02 20.7172V22.7889H147.092V20.7172H145.02ZM155.378 20.7172V22.7889H157.45V20.7172H155.378ZM165.737 20.7172V22.7889H167.809V20.7172H165.737ZM176.096 20.7172V22.7889H178.167V20.7172H176.096ZM186.454 20.7172V22.7889H188.526V20.7172H186.454ZM196.813 20.7172V22.7889H198.884V20.7172H196.813ZM207.171 20.7172V22.7889H209.243V20.7172H207.171ZM217.53 20.7172V22.7889H219.602V20.7172H217.53ZM227.888 20.7172V22.7889H229.96V20.7172H227.888ZM239.283 30.0399H237.211V32.1116H239.283V30.0399ZM239.283 40.3984H237.211V42.4702H239.283V40.3984ZM239.283 50.757H237.211V52.8287H239.283V50.757ZM239.283 61.1156H237.211V63.1873H239.283V61.1156ZM239.283 71.4741H237.211V73.5459H239.283V71.4741ZM239.283 81.8327H237.211V83.9044H239.283V81.8327ZM239.283 92.1913H237.211V94.263H239.283V92.1913ZM239.283 102.55H237.211V104.622H239.283V102.55ZM239.283 112.908H237.211V114.98H239.283V112.908ZM239.283 123.267H237.211V125.339H239.283V123.267ZM239.283 133.626H237.211V135.697H239.283V133.626ZM239.283 143.984H237.211V146.056H239.283V143.984ZM239.283 154.343H237.211V156.414H239.283V154.343ZM239.283 164.701H237.211V166.773H239.283V164.701ZM239.283 175.06H237.211V177.132H239.283V175.06ZM239.283 185.418H237.211V187.49H239.283V185.418ZM239.283 195.777H237.211V197.849H239.283V195.777ZM239.283 206.135H237.211V208.207H239.283V206.135ZM11.3944 208.207H13.4661V206.135H11.3944V208.207ZM11.3944 197.849H13.4661V195.777H11.3944V197.849ZM11.3944 187.49H13.4661V185.418H11.3944V187.49ZM11.3944 177.132H13.4661V175.06H11.3944V177.132ZM11.3944 166.773H13.4661V164.701H11.3944V166.773ZM11.3944 156.414H13.4661V154.343H11.3944V156.414ZM11.3944 146.056H13.4661V143.984H11.3944V146.056ZM11.3944 135.697H13.4661V133.626H11.3944V135.697ZM11.3944 125.339H13.4661V123.267H11.3944V125.339ZM11.3944 114.98H13.4661V112.908H11.3944V114.98ZM11.3944 104.622H13.4661V102.55H11.3944V104.622ZM11.3944 94.263H13.4661V92.1913H11.3944V94.263ZM11.3944 83.9044H13.4661V81.8327H11.3944V83.9044ZM11.3944 73.5458H13.4661V71.4741H11.3944V73.5458ZM11.3944 63.1873H13.4661V61.1156H11.3944V63.1873ZM11.3944 52.8287H13.4661V50.757H11.3944V52.8287ZM11.3944 42.4702H13.4661V40.3984H11.3944V42.4702Z" fill="#454ED8"/>
<path fill-rule="evenodd" clip-rule="evenodd" d="M21.753 42.4701V40.3984H23.8247V42.4701H21.753ZM21.753 33.1474H22.7888V32.1115H23.8247V31.0757H21.753V33.1474ZM228.924 33.1474V31.0757H226.853V32.1115H227.888V33.1474H228.924ZM31.0757 31.0757V33.1474H33.1474V31.0757H31.0757ZM41.4343 31.0757V33.1474H43.506V31.0757H41.4343ZM51.7928 31.0757V33.1474H53.8645V31.0757H51.7928ZM62.1514 31.0757V33.1474H64.2231V31.0757H62.1514ZM72.51 31.0757V33.1474H74.5817V31.0757H72.51ZM82.8685 31.0757V33.1474H84.9402V31.0757H82.8685ZM93.2271 31.0757V33.1474H95.2988V31.0757H93.2271ZM103.586 31.0757V33.1474H105.657V31.0757H103.586ZM113.944 31.0757V33.1474H116.016V31.0757H113.944ZM124.303 31.0757V33.1474H126.375V31.0757H124.303ZM134.661 31.0757V33.1474H136.733V31.0757H134.661ZM145.02 31.0757V33.1474H147.092V31.0757H145.02ZM155.378 31.0757V33.1474H157.45V31.0757H155.378ZM165.737 31.0757V33.1474H167.809V31.0757H165.737ZM176.096 31.0757V33.1474H178.167V31.0757H176.096ZM186.454 31.0757V33.1474H188.526V31.0757H186.454ZM196.813 31.0757V33.1474H198.884V31.0757H196.813ZM207.171 31.0757V33.1474H209.243V31.0757H207.171ZM217.53 31.0757V33.1474H219.602V31.0757H217.53ZM228.924 40.3984H226.853V42.4701H228.924V40.3984ZM228.924 50.757H226.853V52.8287H228.924V50.757ZM228.924 61.1155H226.853V63.1872H228.924V61.1155ZM228.924 71.4741H226.853V73.5458H228.924V71.4741ZM228.924 81.8327H226.853V83.9044H228.924V81.8327ZM228.924 92.1912H226.853V94.2629H228.924V92.1912ZM228.924 102.55H226.853V104.622H228.924V102.55ZM228.924 112.908H226.853V114.98H228.924V112.908ZM228.924 123.267H226.853V125.339H228.924V123.267ZM228.924 133.625H226.853V135.697H228.924V133.625ZM228.924 143.984H226.853V146.056H228.924V143.984ZM228.924 154.343H226.853V156.414H228.924V154.343ZM228.924 164.701H226.853V166.773H228.924V164.701ZM228.924 175.06H226.853V177.131H228.924V175.06ZM228.924 185.418H226.853V187.49H228.924V185.418ZM228.924 195.777H226.853V197.849H228.924V195.777ZM228.924 206.135H226.853V208.207H228.924V206.135ZM21.753 208.207H23.8247V206.135H21.753V208.207ZM21.753 197.849H23.8247V195.777H21.753V197.849ZM21.753 187.49H23.8247V185.418H21.753V187.49ZM21.753 177.131H23.8247V175.06H21.753V177.131ZM21.753 166.773H23.8247V164.701H21.753V166.773ZM21.753 156.414H23.8247V154.343H21.753V156.414ZM21.753 146.056H23.8247V143.984H21.753V146.056ZM21.753 135.697H23.8247V133.625H21.753V135.697ZM21.753 125.339H23.8247V123.267H21.753V125.339ZM21.753 114.98H23.8247V112.908H21.753V114.98ZM21.753 104.622H23.8247V102.55H21.753V104.622ZM21.753 94.2629H23.8247V92.1912H21.753V94.2629ZM21.753 83.9044H23.8247V81.8327H21.753V83.9044ZM21.753 73.5458H23.8247V71.4741H21.753V73.5458ZM21.753 63.1872H23.8247V61.1155H21.753V63.1872ZM21.753 52.8287H23.8247V50.757H21.753V52.8287Z" fill="#454ED8"/>
<path fill-rule="evenodd" clip-rule="evenodd" d="M32.1115 52.8287V50.757H34.1833V52.8287H32.1115ZM32.1115 43.506H33.1474V42.4702H34.1833V41.4343H32.1115V43.506ZM43.506 41.4343H41.4343V43.506H43.506V41.4343ZM218.566 43.506V41.4343H216.494V42.4702H217.53V43.506H218.566ZM51.7928 41.4343V43.506H53.8645V41.4343H51.7928ZM62.1514 41.4343V43.506H64.2231V41.4343H62.1514ZM72.5099 41.4343V43.506H74.5817V41.4343H72.5099ZM82.8685 41.4343V43.506H84.9402V41.4343H82.8685ZM93.2271 41.4343V43.506H95.2988V41.4343H93.2271ZM103.586 41.4343V43.506H105.657V41.4343H103.586ZM113.944 41.4343V43.506H116.016V41.4343H113.944ZM124.303 41.4343V43.506H126.374V41.4343H124.303ZM134.661 41.4343V43.506H136.733V41.4343H134.661ZM145.02 41.4343V43.506H147.092V41.4343H145.02ZM155.378 41.4343V43.506H157.45V41.4343H155.378ZM165.737 41.4343V43.506H167.809V41.4343H165.737ZM176.096 41.4343V43.506H178.167V41.4343H176.096ZM186.454 41.4343V43.506H188.526V41.4343H186.454ZM196.813 41.4343V43.506H198.884V41.4343H196.813ZM207.171 41.4343V43.506H209.243V41.4343H207.171ZM218.566 50.757H216.494V52.8287H218.566V50.757ZM218.566 61.1156H216.494V63.1873H218.566V61.1156ZM218.566 71.4742H216.494V73.5459H218.566V71.4742ZM218.566 81.8327H216.494V83.9044H218.566V81.8327ZM218.566 92.1913H216.494V94.263H218.566V92.1913ZM218.566 102.55H216.494V104.622H218.566V102.55ZM218.566 112.908H216.494V114.98H218.566V112.908ZM218.566 123.267H216.494V125.339H218.566V123.267ZM218.566 133.626H216.494V135.697H218.566V133.626ZM218.566 143.984H216.494V146.056H218.566V143.984ZM218.566 154.343H216.494V156.414H218.566V154.343ZM218.566 164.701H216.494V166.773H218.566V164.701ZM218.566 175.06H216.494V177.132H218.566V175.06ZM218.566 185.418H216.494V187.49H218.566V185.418ZM218.566 195.777H216.494V197.849H218.566V195.777ZM218.566 206.136H216.494V208.207H218.566V206.136ZM32.1115 208.207H34.1833V206.136H32.1115V208.207ZM32.1115 197.849H34.1833V195.777H32.1115V197.849ZM32.1115 187.49H34.1833V185.418H32.1115V187.49ZM32.1115 177.132H34.1833V175.06H32.1115V177.132ZM32.1115 166.773H34.1833V164.701H32.1115V166.773ZM32.1115 156.414H34.1833V154.343H32.1115V156.414ZM32.1115 146.056H34.1833V143.984H32.1115V146.056ZM32.1115 135.697H34.1833V133.626H32.1115V135.697ZM32.1115 125.339H34.1833V123.267H32.1115V125.339ZM32.1115 114.98H34.1833V112.908H32.1115V114.98ZM32.1115 104.622H34.1833V102.55H32.1115V104.622ZM32.1115 94.263H34.1833V92.1913H32.1115V94.263ZM32.1115 83.9044H34.1833V81.8327H32.1115V83.9044ZM32.1115 73.5459H34.1833V71.4742H32.1115V73.5459ZM32.1115 63.1873H34.1833V61.1156H32.1115V63.1873Z" fill="#454ED8"/>
<path fill-rule="evenodd" clip-rule="evenodd" d="M42.4701 63.1873V61.1156H44.5418V63.1873H42.4701ZM42.4701 53.8646H43.506V52.8287H44.5418V51.7928H42.4701V53.8646ZM53.8645 51.7928H51.7928V53.8646H53.8645V51.7928ZM208.207 53.8646V51.7928H206.135V52.8287H207.171V53.8646H208.207ZM62.1514 51.7928V53.8646H64.2231V51.7928H62.1514ZM72.51 51.7928V53.8646H74.5817V51.7928H72.51ZM82.8685 51.7928V53.8646H84.9402V51.7928H82.8685ZM93.2271 51.7928V53.8646H95.2988V51.7928H93.2271ZM103.586 51.7928V53.8646H105.657V51.7928H103.586ZM113.944 51.7928V53.8646H116.016V51.7928H113.944ZM124.303 51.7928V53.8646H126.374V51.7928H124.303ZM134.661 51.7928V53.8646H136.733V51.7928H134.661ZM145.02 51.7928V53.8646H147.092V51.7928H145.02ZM155.378 51.7928V53.8646H157.45V51.7928H155.378ZM165.737 51.7928V53.8646H167.809V51.7928H165.737ZM176.096 51.7928V53.8646H178.167V51.7928H176.096ZM186.454 51.7928V53.8646H188.526V51.7928H186.454ZM196.813 51.7928V53.8646H198.884V51.7928H196.813ZM208.207 61.1156H206.135V63.1873H208.207V61.1156ZM208.207 71.4741H206.135V73.5458H208.207V71.4741ZM208.207 81.8327H206.135V83.9044H208.207V81.8327ZM208.207 92.1912H206.135V94.263H208.207V92.1912ZM208.207 102.55H206.135V104.622H208.207V102.55ZM208.207 112.908H206.135V114.98H208.207V112.908ZM208.207 123.267H206.135V125.339H208.207V123.267ZM208.207 133.626H206.135V135.697H208.207V133.626ZM208.207 143.984H206.135V146.056H208.207V143.984ZM208.207 154.343H206.135V156.414H208.207V154.343ZM208.207 164.701H206.135V166.773H208.207V164.701ZM208.207 175.06H206.135V177.131H208.207V175.06ZM208.207 185.418H206.135V187.49H208.207V185.418ZM208.207 195.777H206.135V197.849H208.207V195.777ZM208.207 206.135H206.135V208.207H208.207V206.135ZM42.4701 208.207H44.5418V206.135H42.4701V208.207ZM42.4701 197.849H44.5418V195.777H42.4701V197.849ZM42.4701 187.49H44.5418V185.418H42.4701V187.49ZM42.4701 177.131H44.5418V175.06H42.4701V177.131ZM42.4701 166.773H44.5418V164.701H42.4701V166.773ZM42.4701 156.414H44.5418V154.343H42.4701V156.414ZM42.4701 146.056H44.5418V143.984H42.4701V146.056ZM42.4701 135.697H44.5418V133.626H42.4701V135.697ZM42.4701 125.339H44.5418V123.267H42.4701V125.339ZM42.4701 114.98H44.5418V112.908H42.4701V114.98ZM42.4701 104.622H44.5418V102.55H42.4701V104.622ZM42.4701 94.263H44.5418V92.1912H42.4701V94.263ZM42.4701 83.9044H44.5418V81.8327H42.4701V83.9044ZM42.4701 73.5458H44.5418V71.4741H42.4701V73.5458Z" fill="#454ED8"/>
<path fill-rule="evenodd" clip-rule="evenodd" d="M52.8287 73.5458V71.4741H54.9004V73.5458H52.8287ZM52.8287 64.2231H53.8645V63.1872H54.9004V62.1514H52.8287V64.2231ZM197.849 64.2231V62.1514H195.777V63.1872H196.813V64.2231H197.849ZM62.1514 62.1514V64.2231H64.2231V62.1514H62.1514ZM72.5099 62.1514V64.2231H74.5817V62.1514H72.5099ZM82.8685 62.1514V64.2231H84.9402V62.1514H82.8685ZM93.2271 62.1514V64.2231H95.2988V62.1514H93.2271ZM103.586 62.1514V64.2231H105.657V62.1514H103.586ZM113.944 62.1514V64.2231H116.016V62.1514H113.944ZM124.303 62.1514V64.2231H126.374V62.1514H124.303ZM134.661 62.1514V64.2231H136.733V62.1514H134.661ZM145.02 62.1514V64.2231H147.092V62.1514H145.02ZM155.378 62.1514V64.2231H157.45V62.1514H155.378ZM165.737 62.1514V64.2231H167.809V62.1514H165.737ZM176.096 62.1514V64.2231H178.167V62.1514H176.096ZM186.454 62.1514V64.2231H188.526V62.1514H186.454ZM197.849 71.4741H195.777V73.5458H197.849V71.4741ZM197.849 81.8326H195.777V83.9043H197.849V81.8326ZM197.849 92.1912H195.777V94.2629H197.849V92.1912ZM197.849 102.55H195.777V104.621H197.849V102.55ZM197.849 112.908H195.777V114.98H197.849V112.908ZM197.849 123.267H195.777V125.339H197.849V123.267ZM197.849 133.625H195.777V135.697H197.849V133.625ZM197.849 143.984H195.777V146.056H197.849V143.984ZM197.849 154.343H195.777V156.414H197.849V154.343ZM197.849 164.701H195.777V166.773H197.849V164.701ZM197.849 175.06H195.777V177.131H197.849V175.06ZM197.849 185.418H195.777V187.49H197.849V185.418ZM197.849 195.777H195.777V197.849H197.849V195.777ZM197.849 206.135H195.777V208.207H197.849V206.135ZM52.8287 208.207H54.9004V206.135H52.8287V208.207ZM52.8287 197.849H54.9004V195.777H52.8287V197.849ZM52.8287 187.49H54.9004V185.418H52.8287V187.49ZM52.8287 177.131H54.9004V175.06H52.8287V177.131ZM52.8287 166.773H54.9004V164.701H52.8287V166.773ZM52.8287 156.414H54.9004V154.343H52.8287V156.414ZM52.8287 146.056H54.9004V143.984H52.8287V146.056ZM52.8287 135.697H54.9004V133.625H52.8287V135.697ZM52.8287 125.339H54.9004V123.267H52.8287V125.339ZM52.8287 114.98H54.9004V112.908H52.8287V114.98ZM52.8287 104.621H54.9004V102.55H52.8287V104.621ZM52.8287 94.2629H54.9004V92.1912H52.8287V94.2629ZM52.8287 83.9044H54.9004V81.8326H52.8287V83.9044Z" fill="#454ED8"/>
<path fill-rule="evenodd" clip-rule="evenodd" d="M63.1873 83.9044V81.8327H65.259V83.9044H63.1873ZM63.1873 74.5817H64.2231V73.5459L65.259 73.5459V72.51H63.1873V74.5817ZM74.5817 72.51H72.51V74.5817H74.5817V72.51ZM187.49 74.5817V72.51H185.418V73.5459H186.454V74.5817H187.49ZM82.8685 72.51V74.5817H84.9402V72.51H82.8685ZM93.2271 72.51V74.5817H95.2988V72.51H93.2271ZM103.586 72.51V74.5817H105.657V72.51H103.586ZM113.944 72.51V74.5817H116.016V72.51H113.944ZM124.303 72.51V74.5817H126.375V72.51H124.303ZM134.661 72.51V74.5817H136.733V72.51H134.661ZM145.02 72.51V74.5817H147.092V72.51H145.02ZM155.378 72.51V74.5817H157.45V72.51H155.378ZM165.737 72.51V74.5817H167.809V72.51H165.737ZM176.096 72.51V74.5817H178.167V72.51H176.096ZM187.49 81.8327H185.418V83.9044H187.49V81.8327ZM187.49 92.1913H185.418V94.263H187.49V92.1913ZM187.49 102.55H185.418V104.622H187.49V102.55ZM187.49 112.908H185.418V114.98H187.49V112.908ZM187.49 123.267H185.418V125.339H187.49V123.267ZM187.49 133.626H185.418V135.697H187.49V133.626ZM187.49 143.984H185.418V146.056H187.49V143.984ZM187.49 154.343H185.418V156.414H187.49V154.343ZM187.49 164.701H185.418V166.773H187.49V164.701ZM187.49 175.06H185.418V177.132H187.49V175.06ZM187.49 185.418H185.418V187.49H187.49V185.418ZM187.49 195.777H185.418V197.849H187.49V195.777ZM187.49 206.135H185.418V208.207H187.49V206.135ZM63.1873 208.207H65.259V206.135H63.1873V208.207ZM63.1873 197.849H65.259V195.777H63.1873V197.849ZM63.1873 187.49H65.259V185.418H63.1873V187.49ZM63.1873 177.132H65.259V175.06H63.1873V177.132ZM63.1873 166.773H65.259V164.701H63.1873V166.773ZM63.1873 156.414H65.259V154.343H63.1873V156.414ZM63.1873 146.056H65.259V143.984H63.1873V146.056ZM63.1873 135.697H65.259V133.626H63.1873V135.697ZM63.1873 125.339H65.259V123.267H63.1873V125.339ZM63.1873 114.98H65.259V112.908H63.1873V114.98ZM63.1873 104.622H65.259V102.55H63.1873V104.622ZM63.1873 94.263H65.259V92.1913H63.1873V94.263Z" fill="#454ED8"/>
<path fill-rule="evenodd" clip-rule="evenodd" d="M73.5458 94.263V92.1912H75.6175V94.263H73.5458ZM73.5458 84.9402H74.5817V83.9044H75.6175V82.8685H73.5458V84.9402ZM177.131 84.9402V82.8685H175.06V83.9044H176.096V84.9402H177.131ZM82.8685 82.8685V84.9402H84.9402V82.8685H82.8685ZM93.2271 82.8685V84.9402H95.2988V82.8685H93.2271ZM103.586 82.8685V84.9402H105.657V82.8685H103.586ZM113.944 82.8685V84.9402H116.016V82.8685H113.944ZM124.303 82.8685V84.9402H126.374V82.8685H124.303ZM134.661 82.8685V84.9402H136.733V82.8685H134.661ZM145.02 82.8685V84.9402H147.092V82.8685H145.02ZM155.378 82.8685V84.9402H157.45V82.8685H155.378ZM165.737 82.8685V84.9402H167.809V82.8685H165.737ZM177.131 92.1912H175.06V94.263H177.131V92.1912ZM177.131 102.55H175.06V104.622H177.131V102.55ZM177.131 112.908H175.06V114.98H177.131V112.908ZM177.131 123.267H175.06V125.339H177.131V123.267ZM177.131 133.626H175.06V135.697H177.131V133.626ZM177.131 143.984H175.06V146.056H177.131V143.984ZM177.131 154.343H175.06V156.414H177.131V154.343ZM177.131 164.701H175.06V166.773H177.131V164.701ZM177.131 175.06H175.06V177.131H177.131V175.06ZM177.131 185.418H175.06V187.49H177.131V185.418ZM177.131 195.777H175.06V197.849H177.131V195.777ZM177.131 206.135H175.06V208.207H177.131V206.135ZM73.5458 208.207H75.6175V206.135H73.5458V208.207ZM73.5458 197.849H75.6175V195.777H73.5458V197.849ZM73.5458 187.49H75.6175V185.418H73.5458V187.49ZM73.5458 177.131H75.6175V175.06H73.5458V177.131ZM73.5458 166.773H75.6175V164.701H73.5458V166.773ZM73.5458 156.414H75.6175V154.343H73.5458V156.414ZM73.5458 146.056H75.6175V143.984H73.5458V146.056ZM73.5458 135.697H75.6175V133.626H73.5458V135.697ZM73.5458 125.339H75.6175V123.267H73.5458V125.339ZM73.5458 114.98H75.6175V112.908H73.5458V114.98ZM73.5458 104.622H75.6175V102.55H73.5458V104.622Z" fill="#454ED8"/>
<path fill-rule="evenodd" clip-rule="evenodd" d="M83.9044 104.621V102.55H85.9761V104.621H83.9044ZM83.9044 95.2988H84.9402V94.2629H85.9761V93.2271H83.9044V95.2988ZM166.773 95.2988V93.2271H164.701V94.2629H165.737V95.2988H166.773ZM93.2271 93.2271V95.2988H95.2988V93.2271H93.2271ZM103.586 93.2271V95.2988H105.657V93.2271H103.586ZM113.944 93.2271V95.2988H116.016V93.2271H113.944ZM124.303 93.2271V95.2988H126.375V93.2271H124.303ZM134.661 93.2271V95.2988H136.733V93.2271H134.661ZM145.02 93.2271V95.2988H147.092V93.2271H145.02ZM155.378 93.2271V95.2988H157.45V93.2271H155.378ZM166.773 102.55H164.701V104.621H166.773V102.55ZM166.773 112.908H164.701V114.98H166.773V112.908ZM166.773 123.267H164.701V125.339H166.773V123.267ZM166.773 133.625H164.701V135.697H166.773V133.625ZM166.773 143.984H164.701V146.056H166.773V143.984ZM166.773 154.343H164.701V156.414H166.773V154.343ZM166.773 164.701H164.701V166.773H166.773V164.701ZM166.773 175.06H164.701V177.131H166.773V175.06ZM166.773 185.418H164.701V187.49H166.773V185.418ZM166.773 195.777H164.701V197.849H166.773V195.777ZM166.773 206.135H164.701V208.207H166.773V206.135ZM83.9044 208.207H85.9761V206.135H83.9044V208.207ZM83.9044 197.849H85.9761V195.777H83.9044V197.849ZM83.9044 187.49H85.9761V185.418H83.9044V187.49ZM83.9044 177.131H85.9761V175.06H83.9044V177.131ZM83.9044 166.773H85.9761V164.701H83.9044V166.773ZM83.9044 156.414H85.9761V154.343H83.9044V156.414ZM83.9044 146.056H85.9761V143.984H83.9044V146.056ZM83.9044 135.697H85.9761V133.625H83.9044V135.697ZM83.9044 125.339H85.9761V123.267H83.9044V125.339ZM83.9044 114.98H85.9761V112.908H83.9044V114.98Z" fill="#454ED8"/>
<path fill-rule="evenodd" clip-rule="evenodd" d="M94.2629 114.98V112.908H96.3347V114.98H94.2629ZM94.2629 105.657H95.2988V104.622H96.3347V103.586H94.2629V105.657ZM156.414 105.657V103.586H154.343V104.622H155.378V105.657H156.414ZM103.586 103.586V105.657H105.657V103.586H103.586ZM113.944 103.586V105.657H116.016V103.586H113.944ZM124.303 103.586V105.657H126.374V103.586H124.303ZM134.661 103.586V105.657H136.733V103.586H134.661ZM145.02 103.586V105.657H147.092V103.586H145.02ZM156.414 112.908H154.343V114.98H156.414V112.908ZM156.414 123.267H154.343V125.339H156.414V123.267ZM156.414 133.626H154.343V135.697H156.414V133.626ZM156.414 143.984H154.343V146.056H156.414V143.984ZM156.414 154.343H154.343V156.414H156.414V154.343ZM156.414 164.701H154.343V166.773H156.414V164.701ZM156.414 175.06H154.343V177.132H156.414V175.06ZM156.414 185.418H154.343V187.49H156.414V185.418ZM156.414 195.777H154.343V197.849H156.414V195.777ZM156.414 206.135H154.343V208.207H156.414V206.135ZM94.2629 208.207H96.3347V206.135H94.2629V208.207ZM94.2629 197.849H96.3347V195.777H94.2629V197.849ZM94.2629 187.49H96.3347V185.418H94.2629V187.49ZM94.2629 177.132H96.3347V175.06H94.2629V177.132ZM94.2629 166.773H96.3347V164.701H94.2629V166.773ZM94.2629 156.414H96.3347V154.343H94.2629V156.414ZM94.2629 146.056H96.3347V143.984H94.2629V146.056ZM94.2629 135.697H96.3347V133.626H94.2629V135.697ZM94.2629 125.339H96.3347V123.267H94.2629V125.339Z" fill="#454ED8"/>
<path fill-rule="evenodd" clip-rule="evenodd" d="M104.622 125.339V123.267H106.693V125.339H104.622ZM104.622 116.016H105.657V114.98H106.693V113.944H104.622V116.016ZM146.056 116.016V113.944H143.984V114.98H145.02V116.016H146.056ZM113.944 113.944V116.016H116.016V113.944H113.944ZM124.303 113.944V116.016H126.375V113.944H124.303ZM134.661 113.944V116.016H136.733V113.944H134.661ZM146.056 123.267H143.984V125.339H146.056V123.267ZM146.056 133.625H143.984V135.697H146.056V133.625ZM146.056 143.984H143.984V146.056H146.056V143.984ZM146.056 154.343H143.984V156.414H146.056V154.343ZM146.056 164.701H143.984V166.773H146.056V164.701ZM146.056 175.06H143.984V177.131H146.056V175.06ZM146.056 185.418H143.984V187.49H146.056V185.418ZM146.056 195.777H143.984V197.849H146.056V195.777ZM146.056 206.135H143.984V208.207H146.056V206.135ZM104.622 208.207H106.693V206.135H104.622V208.207ZM104.622 197.849H106.693V195.777H104.622V197.849ZM104.622 187.49H106.693V185.418H104.622V187.49ZM104.622 177.131H106.693V175.06H104.622V177.131ZM104.622 166.773H106.693V164.701H104.622V166.773ZM104.622 156.414H106.693V154.343H104.622V156.414ZM104.622 146.056H106.693V143.984H104.622V146.056ZM104.622 135.697H106.693V133.625H104.622V135.697Z" fill="#454ED8"/>
<path fill-rule="evenodd" clip-rule="evenodd" d="M114.98 135.697V133.625H117.052V135.697H114.98ZM114.98 126.374H116.016L116.016 125.339H117.052V124.303H114.98V126.374ZM126.374 124.303H124.303V126.374H126.374V124.303ZM135.697 126.374V124.303H133.625V125.339H134.661V126.374H135.697ZM135.697 133.625H133.625V135.697H135.697V133.625ZM135.697 143.984H133.625V146.056H135.697V143.984ZM135.697 154.343H133.625V156.414H135.697V154.343ZM135.697 164.701H133.625V166.773H135.697V164.701ZM135.697 175.06H133.625V177.131H135.697V175.06ZM135.697 185.418H133.625V187.49H135.697V185.418ZM135.697 195.777H133.625V197.849H135.697V195.777ZM135.697 206.135H133.625V208.207H135.697V206.135ZM114.98 208.207H117.052V206.135H114.98V208.207ZM114.98 197.849H117.052V195.777H114.98V197.849ZM114.98 187.49H117.052V185.418H114.98V187.49ZM114.98 177.131H117.052V175.06H114.98V177.131ZM114.98 166.773H117.052V164.701H114.98V166.773ZM114.98 156.414H117.052V154.343H114.98V156.414ZM114.98 146.056H117.052V143.984H114.98V146.056Z" fill="#454ED8"/>
<path fill-rule="evenodd" clip-rule="evenodd" d="M126.375 143.984V146.056L124.303 146.056V143.984L126.375 143.984ZM124.303 135.697L126.375 135.697V133.625L124.303 133.625V135.697ZM124.303 126.374H124.51V125.339M125.339 125.339H126.167V126.374H126.375V124.303H124.303V126.374M124.303 154.343V156.414H126.375V154.343H124.303ZM126.375 164.701V166.773L124.303 166.773V164.701H126.375ZM124.303 175.06V177.131H126.375V175.06L124.303 175.06ZM126.375 185.418V187.49H124.303V185.418H126.375ZM124.303 195.777V197.849H126.375V195.777H124.303ZM126.375 206.135V208.207H124.303V206.135H126.375Z" fill="#454ED8"/>
</svg>
