<svg width="238" height="251" viewBox="0 0 238 251" fill="none" xmlns="http://www.w3.org/2000/svg">
<path fill-rule="evenodd" clip-rule="evenodd" d="M-122 249V251H-120V249H-122ZM238 2V0H236V1H237V2H238ZM-120 0H-122V2H-121V1H-120V0ZM-122 241H-120V239H-122V241ZM-122 231H-120V229H-122V231ZM-122 221H-120V219H-122V221ZM-122 211H-120V209H-122V211ZM-122 201H-120V199H-122V201ZM-122 191H-120V189H-122V191ZM-122 181H-120V179H-122V181ZM-122 171H-120V169H-122V171ZM-122 161H-120V159H-122V161ZM-122 151H-120V149H-122V151ZM-122 141H-120V139H-122V141ZM-122 131H-120V129H-122V131ZM-122 121H-120V119H-122V121ZM-122 111H-120V109H-122V111ZM-122 101H-120V99H-122V101ZM-122 91H-120V89H-122V91ZM-122 81H-120V79H-122V81ZM-122 71H-120V69H-122V71ZM-122 61H-120V59H-122V61ZM-122 51H-120V49H-122V51ZM-122 41H-120V39H-122V41ZM-122 31H-120V29H-122V31ZM-122 21H-120V19H-122V21ZM-122 11H-120V9H-122V11ZM-113 0V2H-111V0H-113ZM-103 0V2H-101V0H-103ZM-93 0V2H-91V0H-93ZM-83 0V2H-81V0H-83ZM-73 0V2H-71V0H-73ZM-63 0V2H-61V0H-63ZM-53 0V2H-51V0H-53ZM-43 0V2H-41V0H-43ZM-33 0V2H-31V0H-33ZM-23 0V2H-21V0H-23ZM-13 0V2H-11V0H-13ZM-3 0V2H-0.999992V0H-3ZM7 0V2H8.99998V0H7ZM17 0V2H19V0H17ZM27 0V2H29V0H27ZM37 0V2H39V0H37ZM47 0V2H49V0H47ZM57 0V2H59V0H57ZM67 0V2H69V0H67ZM77 0V2H79V0H77ZM87 0V2H89V0H87ZM97 0V2H99V0H97ZM107 0V2H109V0H107ZM117 0V2H119V0H117ZM127 0V2H129V0H127ZM137 0V2H139V0H137ZM147 0V2H149V0H147ZM157 0V2H159V0H157ZM167 0V2H169V0H167ZM177 0V2H179V0H177ZM187 0V2H189V0H187ZM197 0V2H199V0H197ZM207 0V2H209V0H207ZM217 0V2H219V0H217ZM227 0V2H229V0H227ZM238 9H236V11H238V9ZM238 19H236V21H238V19ZM238 29H236V31H238V29ZM238 39H236V41H238V39ZM238 49H236V51H238V49ZM238 59H236V61H238V59ZM238 69H236V71H238V69ZM238 79H236V81H238V79ZM238 89H236V91H238V89ZM238 99H236V101H238V99ZM238 109H236V111H238V109ZM238 119H236V121H238V119ZM238 129H236V131H238V129ZM238 139H236V141H238V139ZM238 149H236V151H238V149ZM238 159H236V161H238V159ZM238 169H236V171H238V169ZM238 179H236V181H238V179ZM238 189H236V191H238V189ZM238 199H236V201H238V199ZM238 209H236V211H238V209ZM238 219H236V221H238V219ZM238 229H236V231H238V229ZM238 239H236V241H238V239ZM238 249H236V251H238V249Z" fill="url(#paint0_linear_101_132)"/>
<path fill-rule="evenodd" clip-rule="evenodd" d="M-101 250H-103V248H-101V250ZM-110 250V249H-111V248H-112V250H-110ZM226 250H228V248H227V249H226V250ZM228 12V10H226V11H227V12H228ZM-110 10H-112V12H-111V11H-110V10ZM-112 241H-110V239H-112V241ZM-112 231H-110V229H-112V231ZM-112 221H-110V219H-112V221ZM-112 211H-110V209H-112V211ZM-112 201H-110V199H-112V201ZM-112 191H-110V189H-112V191ZM-112 181H-110V179H-112V181ZM-112 171H-110V169H-112V171ZM-112 161H-110V159H-112V161ZM-112 151H-110V149H-112V151ZM-112 141H-110V139H-112V141ZM-112 131H-110L-110 129H-112V131ZM-112 121H-110V119H-112V121ZM-112 111H-110V109H-112V111ZM-112 101H-110V99H-112V101ZM-112 91H-110V89H-112V91ZM-112 81H-110V79H-112V81ZM-112 71H-110V69H-112V71ZM-112 61H-110V59H-112V61ZM-112 51H-110V49H-112V51ZM-112 41H-110V39H-112V41ZM-112 31H-110V29H-112V31ZM-112 21H-110V19H-112V21ZM-103 10V12H-101V10H-103ZM-93 10V12H-91V10H-93ZM-83 10V12H-81V10H-83ZM-73 10V12H-71V10H-73ZM-63 10V12H-61V10H-63ZM-53 10V12H-51V10H-53ZM-43 10V12H-41V10H-43ZM-33 10V12H-31V10H-33ZM-23 10V12H-21V10H-23ZM-13 10V12H-11V10H-13ZM-3 10V12H-0.999992V10H-3ZM7.00001 10V12H9V10H7.00001ZM17 10V12H19V10H17ZM27 10V12H29V10H27ZM37 10V12H39V10H37ZM47 10V12H49V10H47ZM57 10V12H59V10H57ZM67 10V12H69V10H67ZM77 10V12H79V10H77ZM87 10V12H89V10H87ZM97 10V12H99V10H97ZM107 10V12H109V10H107ZM117 10V12H119V10H117ZM127 10V12H129V10H127ZM137 10V12H139V10H137ZM147 10V12H149V10H147ZM157 10V12H159V10H157ZM167 10V12H169V10H167ZM177 10V12H179V10H177ZM187 10V12H189V10H187ZM197 10V12H199V10H197ZM207 10V12H209V10H207ZM217 10V12H219V10H217ZM228 19H226V21H228V19ZM228 29H226V31H228V29ZM228 39H226V41H228V39ZM228 49H226V51H228V49ZM228 59H226V61H228V59ZM228 69H226V71H228V69ZM228 79H226V81H228V79ZM228 89H226V91H228V89ZM228 99H226V101H228V99ZM228 109H226V111H228V109ZM228 119H226V121H228V119ZM228 129H226V131H228V129ZM228 139H226V141H228V139ZM228 149H226V151H228V149ZM228 159H226V161H228V159ZM228 169H226V171H228V169ZM228 179H226V181H228V179ZM228 189H226V191H228V189ZM228 199H226V201H228V199ZM228 209H226V211H228V209ZM228 219H226V221H228V219ZM228 229H226V231H228V229ZM228 239H226V241H228V239ZM219 250V248H217V250H219ZM209 250V248H207V250H209ZM199 250V248H197V250H199ZM189 250V248H187V250H189ZM179 250V248H177V250H179ZM169 250V248H167V250H169ZM159 250V248H157V250H159ZM149 250V248H147V250H149ZM139 250V248H137V250H139ZM129 250V248H127V250H129ZM119 250V248H117V250H119ZM109 250V248H107V250H109ZM99 250V248H97V250H99ZM89 250V248H87V250H89ZM79 250V248H77V250H79ZM69 250V248H67V250H69ZM59 250V248H57V250H59ZM49 250V248H47V250H49ZM39 250V248H37V250H39ZM29 250V248H27V250H29ZM19 250V248H17V250H19ZM9 250V248H7V250H9ZM-1 250V248H-3V250H-1ZM-11 250V248H-13V250H-11ZM-21 250V248H-23V250H-21ZM-31 250V248H-33V250H-31ZM-41 250V248H-43V250H-41ZM-51 250V248H-53V250H-51ZM-61 250V248H-63V250H-61ZM-71 250V248H-73V250H-71ZM-81 250V248H-83V250H-81ZM-91 250V248H-93V250H-91Z" fill="url(#paint1_linear_101_132)"/>
<path fill-rule="evenodd" clip-rule="evenodd" d="M-91 240H-93V238H-91V240ZM-100 240V239H-101V238H-102V240H-100ZM216 240H218V238H217V239L216 239V240ZM218 22V20H216V21H217V22H218ZM-100 20H-102V22H-101V21H-100V20ZM-102 231H-100V229H-102V231ZM-102 221H-100V219H-102V221ZM-102 211H-100V209H-102V211ZM-102 201H-100V199H-102V201ZM-102 191H-100V189H-102V191ZM-102 181H-100V179H-102V181ZM-102 171H-100V169H-102V171ZM-102 161H-100V159H-102V161ZM-102 151H-100V149H-102V151ZM-102 141H-100V139H-102V141ZM-102 131H-100V129H-102V131ZM-102 121H-100L-100 119H-102V121ZM-102 111H-100V109H-102V111ZM-102 101H-100V99H-102V101ZM-102 91H-100V89H-102V91ZM-102 81H-100V79H-102V81ZM-102 71H-100V69H-102V71ZM-102 61H-100V59H-102V61ZM-102 51H-100V49H-102V51ZM-102 41H-100V39H-102V41ZM-102 31H-100V29H-102V31ZM-93 20V22H-91V20H-93ZM-83 20V22H-81V20H-83ZM-73 20V22H-71V20H-73ZM-63 20V22H-61V20H-63ZM-53 20V22H-51V20H-53ZM-43 20V22H-41V20H-43ZM-33 20V22H-31V20H-33ZM-23 20V22H-21V20H-23ZM-13 20V22H-11V20H-13ZM-3 20V22H-1V20H-3ZM7 20V22H9V20H7ZM17 20V22H19V20H17ZM27 20V22H29V20H27ZM37 20V22H39V20H37ZM47 20V22H49V20H47ZM57 20V22H59V20H57ZM67 20V22H69V20H67ZM77 20V22H79V20H77ZM87 20V22H89V20H87ZM97 20V22H99V20H97ZM107 20V22H109V20H107ZM117 20V22H119V20H117ZM127 20V22H129V20H127ZM137 20V22H139V20H137ZM147 20V22H149V20H147ZM157 20V22H159V20H157ZM167 20V22H169V20H167ZM177 20V22H179V20H177ZM187 20V22H189V20H187ZM197 20V22H199V20H197ZM207 20V22H209V20H207ZM218 29H216V31H218V29ZM218 39H216V41H218V39ZM218 49H216V51H218V49ZM218 59H216V61H218V59ZM218 69H216V71H218V69ZM218 79H216V81H218V79ZM218 89H216V91H218V89ZM218 99H216V101H218V99ZM218 109H216V111H218V109ZM218 119H216V121H218V119ZM218 129H216V131H218V129ZM218 139H216V141H218V139ZM218 149H216V151H218V149ZM218 159H216V161H218V159ZM218 169H216V171H218V169ZM218 179H216V181H218V179ZM218 189H216V191H218V189ZM218 199H216V201H218V199ZM218 209H216V211H218V209ZM218 219H216V221H218V219ZM218 229H216V231H218V229ZM209 240V238H207V240H209ZM199 240V238H197V240H199ZM189 240V238H187V240H189ZM179 240V238H177V240H179ZM169 240V238H167V240H169ZM159 240V238H157V240H159ZM149 240V238H147V240H149ZM139 240V238H137V240H139ZM129 240V238H127V240H129ZM119 240V238H117V240H119ZM109 240V238H107V240H109ZM99 240V238H97V240H99ZM89 240V238H87V240H89ZM79 240V238H77V240H79ZM69 240V238H67V240H69ZM59 240V238H57V240H59ZM49 240V238H47V240H49ZM39 240V238H37V240H39ZM29 240V238H27V240H29ZM19 240V238H17V240H19ZM9 240V238H7V240H9ZM-1 240V238H-3V240H-1ZM-11 240V238H-13V240H-11ZM-21 240V238H-23V240H-21ZM-31 240V238H-33V240H-31ZM-41 240V238H-43V240H-41ZM-51 240V238H-53V240H-51ZM-61 240V238H-63V240H-61ZM-71 240V238H-73V240H-71ZM-81 240V238H-83V240H-81Z" fill="url(#paint2_linear_101_132)"/>
<path fill-rule="evenodd" clip-rule="evenodd" d="M-81 230H-83V228H-81V230ZM-90 230V229H-91V228H-92V230H-90ZM206 230H208V228H207V229H206V230ZM208 32V30H206V31H207V32H208ZM-90 30H-92V32H-91V31H-90V30ZM-92 221H-90V219H-92V221ZM-92 211H-90V209H-92V211ZM-92 201H-90V199H-92V201ZM-92 191H-90V189H-92V191ZM-92 181H-90V179H-92V181ZM-92 171H-90V169H-92V171ZM-92 161H-90V159H-92V161ZM-92 151H-90V149H-92V151ZM-92 141H-90V139H-92V141ZM-92 131H-90V129H-92V131ZM-92 121H-90V119H-92V121ZM-92 111H-90L-90 109H-92V111ZM-92 101H-90V99H-92V101ZM-92 91H-90V89H-92V91ZM-92 81H-90V79H-92V81ZM-92 71H-90V69H-92V71ZM-92 61H-90V59H-92V61ZM-92 51H-90V49H-92V51ZM-92 41H-90V39H-92V41ZM-83 30V32H-81V30H-83ZM-73 30V32H-71V30H-73ZM-63 30V32H-61V30H-63ZM-53 30V32H-51V30H-53ZM-43 30V32H-41V30H-43ZM-33 30V32H-31V30H-33ZM-23 30V32H-21V30H-23ZM-13 30V32H-11V30H-13ZM-2.99999 30V32H-1V30H-2.99999ZM6.99999 30V32H8.99999V30H6.99999ZM17 30V32H19V30H17ZM27 30V32H29V30H27ZM37 30V32H39V30H37ZM47 30V32H49V30H47ZM57 30V32H59V30H57ZM67 30V32H69V30H67ZM77 30V32H79V30H77ZM87 30V32H89V30H87ZM97 30V32H99V30H97ZM107 30V32H109V30H107ZM117 30V32H119V30H117ZM127 30V32H129V30H127ZM137 30V32H139V30H137ZM147 30V32H149V30H147ZM157 30V32H159V30H157ZM167 30V32H169V30H167ZM177 30V32H179V30H177ZM187 30V32H189V30H187ZM197 30V32H199V30H197ZM208 39H206V41H208V39ZM208 49H206V51H208V49ZM208 59H206V61H208V59ZM208 69H206V71H208V69ZM208 79H206V81H208V79ZM208 89H206V91H208V89ZM208 99H206V101H208V99ZM208 109H206V111H208V109ZM208 119H206V121H208V119ZM208 129H206V131H208V129ZM208 139H206V141H208V139ZM208 149H206V151H208V149ZM208 159H206V161H208V159ZM208 169H206V171H208V169ZM208 179H206V181H208V179ZM208 189H206V191H208V189ZM208 199H206V201H208V199ZM208 209H206V211H208V209ZM208 219H206V221H208V219ZM199 230V228H197V230H199ZM189 230V228H187V230H189ZM179 230V228H177V230H179ZM169 230V228H167V230H169ZM159 230V228H157V230H159ZM149 230V228H147V230H149ZM139 230V228H137V230H139ZM129 230V228H127V230H129ZM119 230V228H117V230H119ZM109 230V228H107V230H109ZM99 230V228H97V230H99ZM89 230V228H87V230H89ZM79 230V228H77V230H79ZM69 230V228H67V230H69ZM59 230V228H57V230H59ZM49 230V228H47V230H49ZM39 230V228H37V230H39ZM29 230V228H27V230H29ZM19 230V228H17V230H19ZM9 230V228H7.00001V230H9ZM-1 230V228H-3.00001V230H-1ZM-11 230V228H-13V230H-11ZM-21 230V228H-23V230H-21ZM-31 230V228H-33V230H-31ZM-41 230V228H-43V230H-41ZM-51 230V228H-53V230H-51ZM-61 230V228H-63V230H-61ZM-71 230V228H-73V230H-71Z" fill="url(#paint3_linear_101_132)"/>
<path fill-rule="evenodd" clip-rule="evenodd" d="M-71 220H-73V218H-71V220ZM-80 220V219H-81V218H-82V220H-80ZM-82 209V211H-80V209H-82ZM196 220H198V218H197V219H196V220ZM198 42V40H196V41H197V42H198ZM-80 40H-82V42H-81V41H-80V40ZM-82 201H-80V199H-82V201ZM-82 191H-80V189H-82V191ZM-82 181H-80V179H-82V181ZM-82 171H-80V169H-82V171ZM-82 161H-80V159H-82V161ZM-82 151H-80V149H-82V151ZM-82 141H-80V139H-82V141ZM-82 131H-80V129H-82V131ZM-82 121H-80V119H-82V121ZM-82 111H-80V109H-82V111ZM-82 101H-80L-80 99H-82V101ZM-82 91H-80V89H-82V91ZM-82 81H-80V79H-82V81ZM-82 71H-80V69H-82V71ZM-82 61H-80V59H-82V61ZM-82 51H-80V49H-82V51ZM-73 40V42H-71V40H-73ZM-63 40V42H-61V40H-63ZM-53 40V42H-51V40H-53ZM-43 40V42H-41V40H-43ZM-33 40V42H-31V40H-33ZM-23 40V42H-21V40H-23ZM-13 40V42H-11V40H-13ZM-2.99999 40V42H-1V40H-2.99999ZM7 40V42H9V40H7ZM17 40V42H19V40H17ZM27 40V42H29V40H27ZM37 40V42H39V40H37ZM47 40V42H49V40H47ZM57 40V42H59V40H57ZM67 40V42H69V40H67ZM77 40V42H79V40H77ZM87 40V42H89V40H87ZM97 40V42H99V40H97ZM107 40V42H109V40H107ZM117 40V42H119V40H117ZM127 40V42H129V40H127ZM137 40V42H139V40H137ZM147 40V42H149V40H147ZM157 40V42H159V40H157ZM167 40V42H169V40H167ZM177 40V42H179V40H177ZM187 40V42H189V40H187ZM198 49H196V51H198V49ZM198 59H196V61H198V59ZM198 69H196V71H198V69ZM198 79H196V81H198V79ZM198 89H196V91H198V89ZM198 99H196V101H198V99ZM198 109H196V111H198V109ZM198 119H196V121H198V119ZM198 129H196V131H198V129ZM198 139H196V141H198V139ZM198 149H196V151H198V149ZM198 159H196V161H198V159ZM198 169H196V171H198V169ZM198 179H196V181H198V179ZM198 189H196V191H198V189ZM198 199H196V201H198V199ZM198 209H196V211H198V209ZM189 220V218H187V220H189ZM179 220V218H177V220H179ZM169 220V218H167V220H169ZM159 220V218H157V220H159ZM149 220V218H147V220H149ZM139 220V218H137V220H139ZM129 220V218H127V220H129ZM119 220V218H117V220H119ZM109 220V218H107V220H109ZM99 220V218H97V220H99ZM89 220V218H87V220H89ZM79 220V218H77V220H79ZM69 220V218H67V220H69ZM59 220V218H57V220H59ZM49 220V218H47V220H49ZM39 220V218H37V220H39ZM29 220V218H27V220H29ZM19 220V218H17V220H19ZM9 220V218H7V220H9ZM-1 220V218H-3V220H-1ZM-11 220V218H-13V220H-11ZM-21 220V218H-23V220H-21ZM-31 220V218H-33V220H-31ZM-41 220V218H-43V220H-41ZM-51 220V218H-53V220H-51ZM-61 220V218H-63V220H-61Z" fill="url(#paint4_linear_101_132)"/>
<path fill-rule="evenodd" clip-rule="evenodd" d="M-61 210H-63V208H-61V210ZM-70 210V209H-71V208H-72V210H-70ZM-72 199V201H-70V199H-72ZM186 210H188V208H187V209H186V210ZM188 52V50H186V51H187V52H188ZM-70 50H-72V52H-71V51H-70V50ZM-72 191H-70V189H-72V191ZM-72 181H-70V179H-72V181ZM-72 171H-70V169H-72V171ZM-72 161H-70V159H-72V161ZM-72 151H-70V149H-72V151ZM-72 141H-70V139H-72V141ZM-72 131H-70V129H-72V131ZM-72 121H-70V119H-72V121ZM-72 111H-70V109H-72V111ZM-72 101H-70V99H-72V101ZM-72 91H-70L-70 89H-72V91ZM-72 81H-70V79H-72V81ZM-72 71H-70V69H-72V71ZM-72 61H-70V59H-72V61ZM-63 50L-63 52H-61L-61 50H-63ZM-53 50V52H-51V50H-53ZM-43 50V52H-41V50H-43ZM-33 50V52H-31V50H-33ZM-23 50V52H-21V50H-23ZM-13 50V52H-11V50H-13ZM-3 50V52H-0.999992V50H-3ZM7.00001 50V52H9V50H7.00001ZM17 50V52H19V50H17ZM27 50V52H29V50H27ZM37 50V52H39V50H37ZM47 50V52H49V50H47ZM57 50V52H59V50H57ZM67 50V52H69V50H67ZM77 50V52H79V50H77ZM87 50V52H89V50H87ZM97 50V52H99V50H97ZM107 50V52H109V50H107ZM117 50V52H119V50H117ZM127 50V52H129V50H127ZM137 50V52H139V50H137ZM147 50V52H149V50H147ZM157 50V52H159V50H157ZM167 50V52H169V50H167ZM177 50V52H179V50H177ZM188 59H186V61H188V59ZM188 69H186V71H188V69ZM188 79H186V81H188V79ZM188 89H186V91H188V89ZM188 99H186V101H188V99ZM188 109H186V111H188V109ZM188 119H186V121H188V119ZM188 129H186V131H188V129ZM188 139H186V141H188V139ZM188 149H186V151H188V149ZM188 159H186V161H188V159ZM188 169H186V171H188V169ZM188 179H186V181H188V179ZM188 189H186V191H188V189ZM188 199H186V201H188V199ZM179 210V208H177V210H179ZM169 210V208H167V210H169ZM159 210V208H157V210H159ZM149 210V208H147V210H149ZM139 210V208H137V210H139ZM129 210V208H127V210H129ZM119 210V208H117V210H119ZM109 210V208H107V210H109ZM99 210V208H97V210H99ZM89 210V208H87V210H89ZM79 210V208H77V210H79ZM69 210V208H67V210H69ZM59 210V208H57V210H59ZM49 210V208H47V210H49ZM39 210V208H37V210H39ZM29 210V208H27V210H29ZM19 210V208H17V210H19ZM9 210V208H7V210H9ZM-1 210V208H-3V210H-1ZM-11 210V208H-13V210H-11ZM-21 210V208H-23V210H-21ZM-31 210V208H-33V210H-31ZM-41 210V208H-43V210H-41ZM-51 210V208H-53V210H-51Z" fill="url(#paint5_linear_101_132)"/>
<path fill-rule="evenodd" clip-rule="evenodd" d="M-51 200H-53V198H-51V200ZM-60 200V199H-61V198H-62V200H-60ZM176 200H178V198H177V199H176V200ZM178 62V60H176V61H177V62H178ZM-60 60H-62V62H-61V61H-60V60ZM-62 191H-60V189H-62V191ZM-62 181H-60V179H-62V181ZM-62 171H-60V169H-62V171ZM-62 161H-60V159H-62V161ZM-62 151H-60V149H-62V151ZM-62 141H-60V139H-62V141ZM-62 131H-60V129H-62V131ZM-62 121H-60V119H-62V121ZM-62 111H-60V109H-62V111ZM-62 101H-60V99H-62V101ZM-62 91H-60V89H-62V91ZM-62 81H-60V79H-62V81ZM-62 71H-60V69H-62V71ZM-53 60V62H-51V60H-53ZM-43 60V62H-41V60H-43ZM-33 60V62H-31V60H-33ZM-23 60V62H-21V60H-23ZM-13 60V62H-11V60H-13ZM-3 60V62H-1V60H-3ZM7.00001 60V62H9V60H7.00001ZM17 60V62H19V60H17ZM27 60V62H29V60H27ZM37 60V62H39V60H37ZM47 60V62H49V60H47ZM57 60V62H59V60H57ZM67 60V62H69V60H67ZM77 60V62H79V60H77ZM87 60V62H89V60H87ZM97 60V62H99V60H97ZM107 60V62H109V60H107ZM117 60V62H119V60H117ZM127 60V62H129V60H127ZM137 60V62H139V60H137ZM147 60V62H149V60H147ZM157 60V62H159V60H157ZM167 60V62H169V60H167ZM178 69H176V71H178V69ZM178 79H176V81H178V79ZM178 89H176V91H178V89ZM178 99H176V101H178V99ZM178 109H176V111H178V109ZM178 119H176V121H178V119ZM178 129H176V131H178V129ZM178 139H176V141H178V139ZM178 149H176V151H178V149ZM178 159H176V161H178V159ZM178 169H176V171H178V169ZM178 179H176V181H178V179ZM178 189H176V191H178V189ZM169 200V198H167V200H169ZM159 200V198H157V200H159ZM149 200V198H147V200H149ZM139 200V198H137V200H139ZM129 200V198H127V200H129ZM119 200V198H117V200H119ZM109 200V198H107V200H109ZM99 200V198H97V200H99ZM89 200V198H87V200H89ZM79 200V198H77V200H79ZM69 200V198H67V200H69ZM59 200V198H57V200H59ZM49 200V198H47V200H49ZM39 200V198H37V200H39ZM29 200V198H27V200H29ZM19 200V198H17V200H19ZM9 200V198H7V200H9ZM-1 200V198H-3V200H-1ZM-11 200V198H-13V200H-11ZM-21 200V198H-23V200H-21ZM-31 200V198H-33V200H-31ZM-41 200V198H-43V200H-41Z" fill="url(#paint6_linear_101_132)"/>
<path fill-rule="evenodd" clip-rule="evenodd" d="M-41 190H-43V188H-41V190ZM-50 190V189H-51L-51 188H-52V190H-50ZM-52 179V181H-50V179H-52ZM166 190H168V188H167V189H166V190ZM168 72V70H166V71H167V72H168ZM-50 70H-52V72H-51V71H-50V70ZM-52 171H-50V169H-52V171ZM-52 161H-50V159H-52V161ZM-52 151H-50V149H-52V151ZM-52 141H-50V139H-52V141ZM-52 131H-50V129H-52V131ZM-52 121H-50V119H-52V121ZM-52 111H-50V109H-52V111ZM-52 101H-50V99H-52V101ZM-52 91H-50V89H-52V91ZM-52 81H-50V79H-52V81ZM-43 70V72H-41V70H-43ZM-33 70V72H-31V70H-33ZM-23 70V72H-21V70H-23ZM-13 70V72H-11V70H-13ZM-2.99999 70V72H-0.999996V70H-2.99999ZM7 70V72H8.99999V70H7ZM17 70V72H19V70H17ZM27 70V72H29V70H27ZM37 70V72H39V70H37ZM47 70V72H49V70H47ZM57 70V72H59V70H57ZM67 70V72H69V70H67ZM77 70V72H79V70H77ZM87 70V72H89V70H87ZM97 70V72H99V70H97ZM107 70V72H109V70H107ZM117 70V72H119V70H117ZM127 70V72H129V70H127ZM137 70V72H139V70H137ZM147 70V72H149V70H147ZM157 70V72H159V70H157ZM168 79H166V81H168V79ZM168 89H166V91H168V89ZM168 99H166V101H168V99ZM168 109H166V111H168V109ZM168 119H166V121H168V119ZM168 129H166V131H168V129ZM168 139H166V141H168V139ZM168 149H166V151H168V149ZM168 159H166V161H168V159ZM168 169H166V171H168V169ZM168 179H166V181H168V179ZM159 190V188H157V190H159ZM149 190V188H147V190H149ZM139 190V188H137V190H139ZM129 190V188H127V190H129ZM119 190V188H117V190H119ZM109 190V188H107V190H109ZM99 190V188H97V190H99ZM89 190V188H87V190H89ZM79 190V188H77V190H79ZM69 190V188H67V190H69ZM59 190V188H57V190H59ZM49 190V188H47V190H49ZM39 190V188H37V190H39ZM29 190V188H27V190H29ZM19 190V188H17V190H19ZM9 190V188H7V190H9ZM-1 190V188H-3V190H-1ZM-11 190V188H-13V190H-11ZM-21 190V188H-23V190H-21ZM-31 190V188H-33V190H-31Z" fill="url(#paint7_linear_101_132)"/>
<path fill-rule="evenodd" clip-rule="evenodd" d="M-31 180H-33V178H-31V180ZM-40 180V179H-41V178H-42V180H-40ZM156 180H158V178H157V179H156V180ZM158 82V80H156V81H157V82H158ZM-40 80H-42V82H-41V81H-40V80ZM-42 171H-40V169H-42V171ZM-42 161H-40V159H-42V161ZM-42 151H-40V149H-42V151ZM-42 141H-40V139H-42V141ZM-42 131H-40V129H-42V131ZM-42 121H-40V119H-42V121ZM-42 111H-40V109H-42V111ZM-42 101H-40V99H-42V101ZM-42 91H-40V89H-42V91ZM-33 80V82H-31V80H-33ZM-23 80V82H-21V80H-23ZM-13 80V82H-11V80H-13ZM-3 80V82H-1V80H-3ZM7 80V82H9V80H7ZM17 80V82H19V80H17ZM27 80V82H29V80H27ZM37 80V82H39V80H37ZM47 80V82H49V80H47ZM57 80V82H59V80H57ZM67 80V82H69V80H67ZM77 80V82H79V80H77ZM87 80V82H89V80H87ZM97 80V82H99V80H97ZM107 80V82H109V80H107ZM117 80V82H119V80H117ZM127 80V82H129V80H127ZM137 80V82H139V80H137ZM147 80V82H149V80H147ZM158 89H156V91H158V89ZM158 99H156V101H158V99ZM158 109H156V111H158V109ZM158 119H156V121H158V119ZM158 129H156V131H158V129ZM158 139H156V141H158V139ZM158 149H156V151H158V149ZM158 159H156V161H158V159ZM158 169H156V171H158V169ZM149 180V178H147V180H149ZM139 180V178H137V180H139ZM129 180V178H127V180H129ZM119 180V178H117V180H119ZM109 180V178H107V180H109ZM99 180V178H97V180H99ZM89 180V178H87V180H89ZM79 180V178H77V180H79ZM69 180V178H67V180H69ZM59 180V178H57V180H59ZM49 180V178H47V180H49ZM39 180V178H37V180H39ZM29 180V178H27V180H29ZM19 180V178H17V180H19ZM9 180V178H7V180H9ZM-1 180V178H-3V180H-1ZM-11 180V178H-13V180H-11ZM-21 180V178H-23V180H-21Z" fill="url(#paint8_linear_101_132)"/>
<path fill-rule="evenodd" clip-rule="evenodd" d="M-21 170H-23V168H-21V170ZM-30 170V169H-31V168H-32V170H-30ZM146 170H148V168H147V169H146V170ZM148 92V90H146V91H147V92H148ZM-30 90H-32V92H-31V91H-30V90ZM-32 161H-30V159H-32V161ZM-32 151H-30V149H-32V151ZM-32 141H-30V139H-32L-32 141ZM-32 131H-30V129H-32V131ZM-32 121H-30V119H-32V121ZM-32 111H-30V109H-32V111ZM-32 101H-30V99H-32V101ZM-23 90V92H-21V90H-23ZM-13 90V92H-11V90H-13ZM-3 90V92H-1V90H-3ZM7 90V92H9V90H7ZM17 90V92H19V90H17ZM27 90V92H29V90H27ZM37 90V92H39V90H37ZM47 90V92H49V90H47ZM57 90V92H59V90H57ZM67 90V92H69V90H67ZM77 90V92H79V90H77ZM87 90V92H89V90H87ZM97 90V92H99V90H97ZM107 90V92H109V90H107ZM117 90V92H119V90H117ZM127 90V92H129V90H127ZM137 90V92H139V90H137ZM148 99H146V101H148V99ZM148 109H146V111H148V109ZM148 119H146V121H148V119ZM148 129H146V131H148V129ZM148 139H146V141H148V139ZM148 149H146V151H148V149ZM148 159H146V161H148V159ZM139 170V168H137V170H139ZM129 170V168H127V170H129ZM119 170V168H117V170H119ZM109 170V168H107V170H109ZM99 170V168H97V170H99ZM89 170V168H87V170H89ZM79 170V168H77V170H79ZM69 170V168H67V170H69ZM59 170V168H57V170H59ZM49 170V168H47V170H49ZM39 170V168H37V170H39ZM29 170V168H27V170H29ZM19 170V168H17V170H19ZM9 170V168H7V170H9ZM-1 170V168H-3V170H-1ZM-11 170V168H-13V170H-11Z" fill="url(#paint9_linear_101_132)"/>
<path fill-rule="evenodd" clip-rule="evenodd" d="M-11 160H-13V158H-11V160ZM-20 160V159H-21V158H-22V160H-20ZM136 160H138V158H137V159H136V160ZM138 102V100H136V101H137V102H138ZM-20 100H-22V102H-21V101H-20V100ZM-22 151H-20V149H-22V151ZM-22 141H-20V139H-22V141ZM-22 131H-20V129H-22L-22 131ZM-22 121H-20V119H-22V121ZM-22 111H-20V109H-22V111ZM-13 100V102H-11V100H-13ZM-3 100V102H-0.999996V100H-3ZM7 100V102H9V100H7ZM17 100L17 102H19L19 100H17ZM27 100L27 102H29L29 100H27ZM37 100L37 102H39L39 100H37ZM47 100V102H49V100H47ZM57 100V102H59V100H57ZM67 100V102H69V100H67ZM77 100V102H79V100H77ZM87 100V102H89V100H87ZM97 100V102H99V100H97ZM107 100V102H109V100H107ZM117 100V102H119V100H117ZM127 100V102H129V100H127ZM138 109H136V111H138V109ZM138 119H136V121H138V119ZM138 129H136V131H138V129ZM138 139H136V141H138V139ZM138 149H136V151H138V149ZM129 160V158H127V160H129ZM119 160V158H117V160H119ZM109 160V158H107V160H109ZM99 160V158H97V160H99ZM89 160V158H87V160H89ZM79 160V158H77V160H79ZM69 160V158H67V160H69ZM59 160V158H57V160H59ZM49 160V158H47V160H49ZM39 160V158H37V160H39ZM29 160V158H27V160H29ZM19 160V158H17V160H19ZM9 160V158H7V160H9ZM-1 160V158H-3V160H-1Z" fill="url(#paint10_linear_101_132)"/>
<path fill-rule="evenodd" clip-rule="evenodd" d="M-1 150H-3V148H-1V150ZM-10 150V149H-11V148H-12V150H-10ZM126 150H128V148H127V149H126V150ZM128 112V110H126V111H127V112H128ZM-10 110H-12V112H-11V111H-10L-10 110ZM-12 141H-10V139H-12V141ZM-12 131H-10V129H-12V131ZM-12 121H-10V119H-12V121ZM-3 110V112H-0.999998V110H-3ZM7 110V112H9V110H7ZM17 110V112H19V110H17ZM27 110V112H29V110H27ZM37 110V112H39V110H37ZM47 110V112H49V110H47ZM57 110V112H59V110H57ZM67 110V112H69V110H67ZM77 110V112H79V110H77ZM87 110V112H89V110H87ZM97 110V112H99V110H97ZM107 110V112H109V110H107ZM117 110V112H119V110H117ZM128 119H126V121H128V119ZM128 129H126V131H128V129ZM128 139H126V141H128V139ZM119 150V148H117V150H119ZM109 150V148H107V150H109ZM99 150V148H97V150H99ZM89 150V148H87V150H89ZM79 150V148H77V150H79ZM69 150V148H67V150H69ZM59 150V148H57V150H59ZM49 150V148H47V150H49ZM39 150V148H37V150H39ZM29 150V148H27V150H29ZM19 150V148H17V150H19ZM9 150V148H7V150H9Z" fill="url(#paint11_linear_101_132)"/>
<path fill-rule="evenodd" clip-rule="evenodd" d="M9 140H7V138H9V140ZM0 140V139L-1 139L-1 138H-2L-2 140H0ZM-2 129L-2 131H0L0 129H-2ZM116 140H118V138H117V139H116V140ZM118 122V120H116V121H117V122H118ZM0 120H-2L-2 122H-1V121H0V120ZM7 120V122H9V120H7ZM17 120V122H19V120H17ZM27 120V122H29V120H27ZM37 120V122H39V120H37ZM47 120V122H49V120H47ZM57 120V122H59V120H57ZM67 120V122H69V120H67ZM77 120V122H79V120H77ZM87 120V122H89V120H87ZM97 120V122H99V120H97ZM107 120V122H109V120H107ZM118 129H116V131H118V129ZM109 140V138H107V140H109ZM99 140V138H97V140H99ZM89 140V138H87V140H89ZM79 140V138H77V140H79ZM69 140V138H67V140H69ZM59 140V138H57V140H59ZM49 140V138H47V140H49ZM39 140V138H37V140H39ZM29 140V138H27V140H29ZM19 140V138H17V140H19Z" fill="url(#paint12_linear_101_132)"/>
<path fill-rule="evenodd" clip-rule="evenodd" d="M17 129H19L19 131H17L17 129ZM9 131L9 129H7L7 131H9ZM0 131V130.8H-1M-1 130V129.2H0V129H-2L-2 131H0M27 131H29V129H27V131ZM37 129H39L39 131H37V129ZM47 131H49V129H47L47 131ZM57 129H59V131H57V129ZM67 131H69V129H67V131ZM77 129H79V131H77V129ZM87 131H89V129H87V131ZM97 129H99V131H97V129ZM107 131H109V129H107V131ZM116 129V129.2H117V130.8H116V131H118V129H116Z" fill="url(#paint13_linear_101_132)"/>
<defs>
<linearGradient id="paint0_linear_101_132" x1="-153.5" y1="87" x2="268.5" y2="248.5" gradientUnits="userSpaceOnUse">
<stop stop-color="#620CFE"/>
<stop offset="1" stop-color="#454ED8"/>
</linearGradient>
<linearGradient id="paint1_linear_101_132" x1="-141.75" y1="93.1872" x2="258.051" y2="244.315" gradientUnits="userSpaceOnUse">
<stop stop-color="#620CFE"/>
<stop offset="1" stop-color="#454ED8"/>
</linearGradient>
<linearGradient id="paint2_linear_101_132" x1="-130" y1="96.255" x2="243.751" y2="241.313" gradientUnits="userSpaceOnUse">
<stop stop-color="#620CFE"/>
<stop offset="1" stop-color="#454ED8"/>
</linearGradient>
<linearGradient id="paint3_linear_101_132" x1="-118.25" y1="99.3227" x2="229.254" y2="238.408" gradientUnits="userSpaceOnUse">
<stop stop-color="#620CFE"/>
<stop offset="1" stop-color="#454ED8"/>
</linearGradient>
<linearGradient id="paint4_linear_101_132" x1="-106.5" y1="102.39" x2="214.493" y2="235.624" gradientUnits="userSpaceOnUse">
<stop stop-color="#620CFE"/>
<stop offset="1" stop-color="#454ED8"/>
</linearGradient>
<linearGradient id="paint5_linear_101_132" x1="-94.75" y1="105.458" x2="199.37" y2="232.987" gradientUnits="userSpaceOnUse">
<stop stop-color="#620CFE"/>
<stop offset="1" stop-color="#454ED8"/>
</linearGradient>
<linearGradient id="paint6_linear_101_132" x1="-83" y1="108.526" x2="183.729" y2="230.533" gradientUnits="userSpaceOnUse">
<stop stop-color="#620CFE"/>
<stop offset="1" stop-color="#454ED8"/>
</linearGradient>
<linearGradient id="paint7_linear_101_132" x1="-71.25" y1="111.594" x2="167.319" y2="228.298" gradientUnits="userSpaceOnUse">
<stop stop-color="#620CFE"/>
<stop offset="1" stop-color="#454ED8"/>
</linearGradient>
<linearGradient id="paint8_linear_101_132" x1="-59.5" y1="114.661" x2="149.703" y2="226.304" gradientUnits="userSpaceOnUse">
<stop stop-color="#620CFE"/>
<stop offset="1" stop-color="#454ED8"/>
</linearGradient>
<linearGradient id="paint9_linear_101_132" x1="-47.75" y1="117.729" x2="130.063" y2="224.481" gradientUnits="userSpaceOnUse">
<stop stop-color="#620CFE"/>
<stop offset="1" stop-color="#454ED8"/>
</linearGradient>
<linearGradient id="paint10_linear_101_132" x1="-36" y1="120.797" x2="106.751" y2="222.37" gradientUnits="userSpaceOnUse">
<stop stop-color="#620CFE"/>
<stop offset="1" stop-color="#454ED8"/>
</linearGradient>
<linearGradient id="paint11_linear_101_132" x1="-24.25" y1="123.865" x2="76.247" y2="217.718" gradientUnits="userSpaceOnUse">
<stop stop-color="#620CFE"/>
<stop offset="1" stop-color="#454ED8"/>
</linearGradient>
<linearGradient id="paint12_linear_101_132" x1="-12.5" y1="126.932" x2="32.7608" y2="199.393" gradientUnits="userSpaceOnUse">
<stop stop-color="#620CFE"/>
<stop offset="1" stop-color="#454ED8"/>
</linearGradient>
<linearGradient id="paint13_linear_101_132" x1="-12.5" y1="129.693" x2="-11.8732" y2="139.727" gradientUnits="userSpaceOnUse">
<stop stop-color="#620CFE"/>
<stop offset="1" stop-color="#454ED8"/>
</linearGradient>
</defs>
</svg>
