<svg width="40" height="40" viewBox="0 0 40 40" fill="none" xmlns="http://www.w3.org/2000/svg">
<path d="M20 40C31.0457 40 40 31.0457 40 20C40 8.9543 31.0457 0 20 0C8.9543 0 0 8.9543 0 20C0 31.0457 8.9543 40 20 40Z" fill="#DFBF62"/>
<path d="M30.2143 11H9.78571C9.35112 11 9 11.3511 9 11.7857V27.5C9 27.9346 9.35112 28.2857 9.78571 28.2857H30.2143C30.6489 28.2857 31 27.9346 31 27.5V11.7857C31 11.3511 30.6489 11 30.2143 11ZM28.2304 13.6739L20.4837 19.7018C20.2922 19.8516 20.0246 19.8516 19.833 19.7018L12.0839 13.6739C12.0547 13.6513 12.0333 13.6202 12.0227 13.5849C12.012 13.5496 12.0127 13.5118 12.0246 13.4769C12.0365 13.4419 12.0591 13.4116 12.0891 13.3901C12.1191 13.3687 12.1551 13.3571 12.192 13.3571H28.1223C28.1592 13.3571 28.1952 13.3687 28.2252 13.3901C28.2552 13.4116 28.2778 13.4419 28.2897 13.4769C28.3016 13.5118 28.3023 13.5496 28.2916 13.5849C28.281 13.6202 28.2596 13.6513 28.2304 13.6739Z" fill="white"/>
</svg>
