<svg width="80" height="67" viewBox="0 0 80 67" fill="none" xmlns="http://www.w3.org/2000/svg">
<path d="M63.4393 16.0132L79.3851 2.83471C80.0726 2.27513 80.169 1.26706 79.5933 0.579634C79.0337 -0.0924176 78.0256 -0.204195 77.3382 0.371468L59.6334 15.0052L59.6174 15.0212L49.6852 23.2257L28.2534 40.9459L18.3374 49.1504L0.584614 63.8016C-0.102826 64.3612 -0.199216 65.3692 0.376446 66.0567C0.696408 66.4402 1.14422 66.6323 1.60809 66.6323C1.96018 66.6323 2.32766 66.5045 2.63156 66.2642L19.5687 52.2696C25.87 55.4204 32.9072 57.0838 40.0083 57.0838C56.3215 57.0838 71.564 48.2715 79.7841 34.1012C80.072 33.6052 80.072 32.9974 79.7841 32.502C75.8014 25.6892 70.188 20.0276 63.4387 16.0127L63.4393 16.0132ZM52.3077 33.3188C52.3077 40.1001 46.7901 45.6338 39.9927 45.6338C36.858 45.6338 33.8834 44.4343 31.6122 42.3231L50.4051 26.7938C51.6361 28.7289 52.308 30.9994 52.308 33.3188H52.3077ZM39.9927 53.9024C33.8673 53.9024 27.7894 52.575 22.2553 50.0482L29.1164 44.3705C32.0115 47.2173 35.8816 48.8164 39.9916 48.8164C48.5483 48.8164 55.5056 41.8589 55.5056 33.3025C55.5056 30.2314 54.5778 27.2407 52.8984 24.7138L60.815 18.1727C67.2603 21.7873 72.6661 26.985 76.5203 33.3025C68.7643 46.0332 54.8657 53.9015 39.9918 53.9015L39.9927 53.9024Z" fill="#620CFE"/>
<path d="M12.3384 47.8244C12.6262 48.0486 12.9622 48.1443 13.2983 48.1443C13.7782 48.1443 14.2581 47.9201 14.5774 47.5044C15.1049 46.8009 14.977 45.7928 14.2735 45.2654C9.92393 41.9868 6.29335 37.9567 3.4625 33.3185C11.2192 20.6038 25.1171 12.7349 39.9911 12.7349C44.4692 12.7349 48.8676 13.4223 53.0899 14.7818C53.9373 15.0535 54.8329 14.5896 55.1054 13.7422C55.3772 12.8948 54.9133 11.9992 54.0659 11.7267C49.5396 10.2715 44.8058 9.51978 39.9917 9.51978C23.6785 9.51978 8.43595 18.3321 0.215873 32.5024C-0.0719578 32.9984 -0.0719578 33.6062 0.215873 34.1015C3.31832 39.4759 7.39615 44.0818 12.3381 47.8243L12.3384 47.8244Z" fill="#620CFE"/>
<path d="M39.9922 21.0032C41.5278 21.0032 43.0152 21.2749 44.4381 21.8191C45.2541 22.1391 46.1812 21.7234 46.5011 20.9074C46.8211 20.0915 46.4054 19.1644 45.5895 18.8445C43.7982 18.157 41.9267 17.8049 39.9915 17.8049C31.4349 17.8049 24.4775 24.7624 24.4775 33.3189C24.4775 34.2467 24.5572 35.1744 24.7172 36.086C24.8611 36.8538 25.5331 37.3973 26.2848 37.3973C26.3805 37.3973 26.4769 37.3973 26.5727 37.3652C27.4362 37.2052 28.0118 36.3738 27.8679 35.5097C27.74 34.7901 27.6758 34.0545 27.6758 33.3189C27.6771 26.5368 33.2108 21.0031 39.9922 21.0031L39.9922 21.0032Z" fill="#620CFE"/>
</svg>
