<svg width="40" height="40" viewBox="0 0 40 40" fill="none" xmlns="http://www.w3.org/2000/svg">
<path d="M20 40C31.0457 40 40 31.0457 40 20C40 8.9543 31.0457 0 20 0C8.9543 0 0 8.9543 0 20C0 31.0457 8.9543 40 20 40Z" fill="#DFBF62"/>
<path d="M17.0633 33V20.8H14V16.4075H17.0633V12.6557C17.0633 9.70743 18.8728 7 23.0423 7C24.7305 7 25.9788 7.17043 25.9788 7.17043L25.8805 11.2723C25.8805 11.2723 24.6074 11.2593 23.2181 11.2593C21.7145 11.2593 21.4737 11.989 21.4737 13.2001V16.4075H26L25.8031 20.8H21.4737V33H17.0633Z" fill="white"/>
</svg>
