<?xml version="1.0" standalone="no"?>
<!DOCTYPE svg PUBLIC "-//W3C//DTD SVG 20010904//EN"
 "http://www.w3.org/TR/2001/REC-SVG-20010904/DTD/svg10.dtd">
<svg version="1.0" xmlns="http://www.w3.org/2000/svg"
 width="72.000000pt" height="72.000000pt" viewBox="0 0 72.000000 72.000000"
 preserveAspectRatio="xMidYMid meet">
<metadata>
Created by potrace 1.14, written by Peter Selinger 2001-2017
</metadata>
<g transform="translate(0.000000,72.000000) scale(0.100000,-0.100000)"
fill="#000000" stroke="none">
<path d="M341 698 c-47 -17 -51 -25 -36 -74 7 -24 9 -42 5 -39 -4 3 -13 27
-20 55 -7 27 -15 50 -19 50 -5 0 -16 -9 -26 -20 -18 -20 -18 -22 13 -85 31
-63 44 -76 57 -55 5 8 11 7 21 -1 14 -11 19 -2 15 24 -1 5 3 6 9 2 6 -3 8 -11
5 -16 -4 -5 4 -8 17 -8 25 1 63 -7 77 -16 5 -3 19 7 30 21 12 15 21 22 21 17
0 -6 -7 -16 -15 -23 -13 -11 -13 -15 -3 -21 23 -15 42 -9 76 22 27 26 32 36
27 58 -9 37 -12 38 -47 5 -18 -16 -24 -19 -14 -7 19 22 16 52 -7 71 -9 8 -21
-6 -46 -54 -18 -36 -35 -63 -37 -61 -2 2 9 27 24 55 l27 51 -26 27 -27 26 -12
-53 c-7 -30 -17 -61 -22 -69 -8 -12 -8 -11 -4 3 3 10 9 36 12 57 6 35 4 40
-22 53 -21 10 -36 12 -53 5z m24 -53 c-2 -62 -11 -66 -11 -5 0 28 3 50 6 50 4
0 6 -20 5 -45z"/>
<path d="M178 635 c-9 -21 -8 -29 8 -47 50 -60 67 -76 80 -71 10 4 5 21 -21
74 -20 38 -40 69 -45 69 -6 0 -16 -11 -22 -25z"/>
<path d="M125 588 c-6 -23 -3 -35 9 -43 9 -7 16 -15 16 -19 0 -4 -15 5 -34 19
l-33 25 -7 -31 c-4 -24 -2 -35 11 -46 16 -13 16 -13 -4 -4 -39 19 -43 14 -34
-51 2 -15 35 -7 65 15 17 13 39 27 50 30 16 6 16 10 5 25 -11 14 -11 15 1 5
17 -16 60 -17 60 -2 0 14 -79 109 -90 109 -5 0 -12 -14 -15 -32z"/>
<path d="M586 534 c-46 -35 -48 -38 -30 -51 10 -7 27 -11 38 -7 15 4 17 2 8
-4 -10 -7 -7 -13 12 -25 36 -24 56 -22 56 7 0 13 3 32 6 41 6 16 5 16 -27 1
-19 -10 -27 -11 -19 -4 10 9 14 24 10 46 l-5 34 -49 -38z"/>
<path d="M290 468 c-41 -28 -60 -61 -60 -106 0 -67 45 -116 117 -127 79 -12
158 67 143 143 -10 52 -17 64 -47 86 -42 31 -111 32 -153 4z m140 -17 c14 -10
31 -36 39 -57 12 -36 12 -44 -4 -77 -38 -80 -153 -90 -200 -18 -69 108 59 225
165 152z"/>
<path d="M333 393 c-16 -6 -17 -45 -1 -61 30 -30 75 0 64 43 -6 24 -31 32 -63
18z"/>
<path d="M0 399 l0 -30 30 21 c34 24 31 40 -6 40 -20 0 -24 -5 -24 -31z"/>
<path d="M665 421 c-3 -5 8 -19 25 -31 l30 -21 0 30 c0 26 -4 31 -24 31 -14 0
-27 -4 -31 -9z"/>
<path d="M0 320 c0 -25 4 -30 24 -30 35 0 39 14 11 38 -32 28 -35 28 -35 -8z"/>
<path d="M680 320 c-18 -16 -35 -30 -38 -30 -3 0 -19 -10 -36 -23 -17 -13 -40
-27 -51 -31 -18 -7 -16 -11 25 -46 25 -22 48 -40 51 -40 4 0 9 16 11 35 2 19
0 35 -6 35 -5 0 -7 3 -4 6 4 3 15 1 26 -5 19 -10 20 -8 15 31 -6 40 -5 41 20
36 25 -5 27 -3 27 28 0 19 -2 34 -4 34 -2 0 -18 -13 -36 -30z"/>
<path d="M49 273 c0 -10 -2 -26 -4 -35 -4 -21 7 -23 38 -7 19 9 20 8 5 -3 -12
-10 -15 -22 -10 -45 l7 -32 49 36 c47 34 48 36 30 50 -10 8 -27 12 -37 9 -9
-2 -14 0 -11 6 7 12 -25 37 -48 38 -10 0 -18 -8 -19 -17z"/>
<path d="M151 190 c-31 -26 -33 -31 -25 -66 l9 -37 53 60 c41 48 49 62 36 67
-26 10 -38 6 -73 -24z"/>
<path d="M492 211 c-10 -6 -10 -10 3 -21 8 -7 15 -17 15 -23 0 -5 -9 2 -21 17
-17 21 -24 24 -40 16 -11 -6 -24 -8 -29 -5 -5 3 -11 1 -14 -4 -3 -5 -14 -7
-24 -5 -9 2 -35 5 -57 7 -22 2 -46 7 -54 11 -8 6 -27 -7 -57 -39 -49 -53 -51
-60 -27 -94 l16 -24 34 67 c18 36 35 66 38 66 3 0 -7 -25 -22 -55 l-27 -55 22
-23 c27 -27 34 -19 51 60 7 30 15 53 17 50 2 -2 -1 -28 -8 -57 -11 -48 -10
-54 7 -66 34 -25 41 -17 40 45 -1 33 2 58 5 56 4 -2 6 -27 5 -54 -2 -64 4 -74
34 -52 23 18 24 21 13 76 -18 87 -7 78 13 -11 l17 -77 26 27 27 27 -27 51
c-15 28 -26 53 -24 55 2 2 19 -26 37 -62 34 -65 34 -65 52 -44 21 26 22 43 2
59 -8 7 -15 17 -15 23 0 5 13 -7 29 -27 28 -35 30 -36 40 -17 17 32 13 48 -21
80 -34 32 -53 37 -76 22z m-129 -46 c-3 -9 -8 -14 -10 -11 -3 3 -2 9 2 15 9
16 15 13 8 -4z"/>
</g>
</svg>
