<svg width="40" height="40" viewBox="0 0 40 40" fill="none" xmlns="http://www.w3.org/2000/svg">
<path d="M20 40C31.0457 40 40 31.0457 40 20C40 8.9543 31.0457 0 20 0C8.9543 0 0 8.9543 0 20C0 31.0457 8.9543 40 20 40Z" fill="#DFBF62"/>
<path d="M16.3456 28.0553C16.4482 26.6019 16.5507 25.1476 16.6369 23.6932C16.6513 23.4645 16.7877 23.3558 16.9272 23.2296L25.2307 15.7486C25.402 15.5947 25.5743 15.4409 25.7436 15.2819C25.8318 15.1978 25.9836 15.1106 25.9138 14.9742C25.8266 14.8029 25.6338 14.8481 25.5036 14.9014C25.2923 14.9917 25.0897 15.1012 24.8984 15.2286C21.349 17.4576 17.801 19.6891 14.2543 21.9229C14.1534 21.9964 14.0359 22.0437 13.9122 22.0607C13.7886 22.0777 13.6626 22.0638 13.5456 22.0204C12.0759 21.5465 10.5979 21.0973 9.12511 20.6327C8.74972 20.5127 8.30767 20.4101 8.28613 19.9517C8.26459 19.4932 8.67382 19.3086 9.02767 19.167C10.402 18.6173 11.7846 18.0891 13.1651 17.5568L28.0277 11.8327C28.1814 11.7703 28.3399 11.7202 28.5015 11.6829C29.0759 11.5619 29.5507 11.8942 29.639 12.4768C29.7415 13.1424 29.5097 13.7681 29.3754 14.4009C28.3935 19.0573 27.402 23.7123 26.401 28.366C26.1313 29.6337 25.4082 29.9147 24.3661 29.1486C22.8923 28.0655 21.4154 26.9865 19.9507 25.8922C19.7323 25.7301 19.6195 25.7352 19.4256 25.9291C18.721 26.6358 17.9897 27.3188 17.2718 28.0122C17.1324 28.1625 16.9666 28.286 16.7825 28.3763C16.3815 28.5496 16.3138 28.5004 16.3456 28.0553Z" fill="#FEFEFE"/>
</svg>
