<svg width="40" height="40" viewBox="0 0 40 40" fill="none" xmlns="http://www.w3.org/2000/svg">
<path d="M20 40C31.0457 40 40 31.0457 40 20C40 8.9543 31.0457 0 20 0C8.9543 0 0 8.9543 0 20C0 31.0457 8.9543 40 20 40Z" fill="#DFBF62"/>
<path d="M31 16.1538V20C31 20.204 30.919 20.3997 30.7747 20.5439C30.6304 20.6882 30.4348 20.7692 30.2308 20.7692C28.6239 20.7735 27.0401 20.3874 25.6154 19.6442V23.0769C25.6156 24.4672 25.2191 25.8286 24.4727 27.0015C23.7262 28.1744 22.6607 29.1099 21.4012 29.6985C20.1416 30.287 18.7403 30.504 17.3618 30.324C15.9832 30.1441 14.6846 29.5746 13.6183 28.6825C12.5521 27.7904 11.7624 26.6126 11.3421 25.2874C10.9217 23.9622 10.8881 22.5446 11.2451 21.201C11.6022 19.8574 12.3351 18.6435 13.3578 17.7018C14.3806 16.7601 15.6508 16.1297 17.0192 15.8846C17.129 15.8649 17.2418 15.8693 17.3497 15.8976C17.4576 15.9258 17.5581 15.9771 17.6442 16.0481C17.733 16.1197 17.8042 16.2106 17.8525 16.3139C17.9009 16.4172 17.925 16.5302 17.9231 16.6442V20.6442C17.9235 20.7899 17.882 20.9326 17.8036 21.0553C17.7252 21.1781 17.6131 21.2757 17.4808 21.3365C17.1703 21.4844 16.9052 21.7128 16.713 21.9979C16.5209 22.283 16.4086 22.6145 16.3881 22.9577C16.3675 23.3009 16.4393 23.6434 16.5961 23.9494C16.7528 24.2554 16.9887 24.5139 17.2793 24.6977C17.5698 24.8816 17.9044 24.9842 18.248 24.9949C18.5917 25.0056 18.932 24.9239 19.2334 24.7584C19.5348 24.5929 19.7863 24.3496 19.9617 24.0538C20.1371 23.7581 20.23 23.4208 20.2308 23.0769V10.7692C20.2308 10.5652 20.3118 10.3696 20.4561 10.2253C20.6003 10.081 20.796 10 21 10H24.8462C25.0502 10 25.2458 10.081 25.3901 10.2253C25.5343 10.3696 25.6154 10.5652 25.6154 10.7692C25.6154 11.9933 26.1016 13.1672 26.9672 14.0328C27.8328 14.8984 29.0067 15.3846 30.2308 15.3846C30.4348 15.3846 30.6304 15.4657 30.7747 15.6099C30.919 15.7542 31 15.9498 31 16.1538Z" fill="white"/>
</svg>
