<svg width="40" height="40" viewBox="0 0 40 40" fill="none" xmlns="http://www.w3.org/2000/svg">
<path d="M18.461 0H18.7739C18.8407 0.0667519 18.9241 0.030247 19.0013 0.0406769H19.1432C19.2047 0.0406769 19.2704 0.0542359 19.3205 0H20.7254C20.7765 0.0552789 20.8443 0.035462 20.9069 0.0406769C20.9694 0.0458919 21.0372 0.0406769 21.1019 0.0406769C21.1499 0.0406769 21.1989 0.0406769 21.2469 0.0406769C21.2949 0.0406769 21.3762 0.0542359 21.4273 0H21.5838C22.4714 0.0865689 23.3569 0.140805 24.2382 0.334803C27.1719 0.97357 29.9264 2.25844 32.3009 4.0959C34.6755 5.93335 36.6105 8.27715 37.9651 10.9567C38.9586 12.9085 39.6142 15.0146 39.904 17.1855C39.9562 17.5943 39.9259 18.0105 40 18.4183V18.6519C39.9489 18.6989 39.9625 18.7562 39.9593 18.8199V18.9544C39.9593 19.0118 39.9489 19.0744 40 19.1203V19.3549C39.9685 19.429 39.9523 19.5086 39.9523 19.5891C39.9523 19.6695 39.9685 19.7492 40 19.8232V20.3687C39.9685 20.4428 39.9523 20.5224 39.9523 20.6029C39.9523 20.6833 39.9685 20.763 40 20.837V21.6182C39.8957 22.1262 39.9364 22.6487 39.8498 23.1587C39.2344 26.8092 37.7732 30.0665 35.3847 32.8972C32.8263 35.9292 29.6378 38.0236 25.8517 39.198C24.1753 39.7256 22.4286 39.9957 20.6711 39.999C19.1233 39.999 17.5787 39.9886 16.0538 39.6694C12.5556 38.9393 9.43075 37.4301 6.75963 35.0552C3.20092 31.8939 1.01167 27.9524 0.208559 23.2484C-0.0521909 21.7173 -0.0104709 20.1705 0.030206 18.6238C0.0917429 16.3292 0.675822 14.1524 1.57384 12.0581C2.48348 9.92386 3.76191 7.9665 5.35054 6.27572C7.13107 4.37141 9.26412 2.83059 11.6315 1.73868C13.4157 0.91037 15.3143 0.354857 17.2637 0.0907409C17.6579 0.0375479 18.0626 0.0698809 18.461 0Z" fill="#DFBF62"/>
<path d="M22.195 16.8736C22.2012 17.7174 22.0656 18.5622 22.2033 19.405C22.2576 19.7419 22.2263 20.1612 22.6289 20.2967C23.0148 20.4261 23.1994 20.0621 23.4101 19.8326C24.6711 18.4548 25.5753 16.859 26.2658 15.1339C26.3284 14.9775 26.3941 14.821 26.4598 14.6666C26.6089 14.311 26.8666 14.1034 27.2629 14.094C28.7231 14.0607 30.177 14.0346 31.631 14.1045C32.4654 14.1441 32.6291 14.4612 32.3757 15.2674C32.1421 16.01 31.729 16.6535 31.2795 17.2752C30.5337 18.3067 29.7744 19.3288 29.0224 20.3562C28.2225 21.4493 28.2371 21.6923 29.181 22.631C30.2407 23.6854 31.3442 24.6992 32.1629 25.9686C32.2255 26.0666 32.2922 26.1636 32.3454 26.2669C32.7355 27.022 32.3799 27.6937 31.5361 27.7896C30.8623 27.8647 30.1802 27.8376 29.5085 27.8282C28.987 27.822 28.4655 27.7959 27.944 27.7938C27.5597 27.7988 27.1786 27.7235 26.8251 27.5726C26.4716 27.4217 26.1536 27.1987 25.8914 26.9177C25.3699 26.3753 24.8577 25.8184 24.3321 25.2771C24.128 25.0588 23.9061 24.8578 23.6687 24.6763C23.1702 24.3092 22.6977 24.4677 22.5266 25.0622C22.3725 25.5993 22.2643 26.1485 22.2033 26.7039C22.1261 27.3891 21.8487 27.6718 21.1603 27.7281C17.5734 28.0233 14.774 26.5975 12.5973 23.8075C10.505 21.127 8.9781 18.1242 7.61281 15.0306C7.3531 14.4445 7.61907 14.0544 8.2553 14.0544C9.38695 14.0544 10.5186 14.069 11.6503 14.0732C12.3428 14.0732 12.7976 14.3986 13.0447 15.0452C13.6939 16.7035 14.5772 18.2601 15.6679 19.6678C15.8377 19.8982 16.0446 20.0987 16.2801 20.2613C16.6306 20.496 16.9059 20.401 17.0259 19.9943C17.1738 19.496 17.2565 18.9806 17.272 18.4611C17.3012 17.6152 17.2512 16.7704 17.2032 15.9266C17.1635 15.2236 16.8506 14.8617 16.1498 14.6604C15.7211 14.5373 15.67 14.3412 15.9787 14.0043C16.1235 13.8536 16.2973 13.7337 16.4896 13.6518C16.6819 13.5699 16.8888 13.5277 17.0978 13.5277C18.436 13.4693 19.7763 13.4317 21.1103 13.583C21.8164 13.6622 22.1366 14.0168 22.2002 14.7303C22.2638 15.4437 22.1845 16.1581 22.195 16.8736Z" fill="#FEFEFE"/>
</svg>
