<svg width="60" height="60" viewBox="0 0 60 60" fill="none" xmlns="http://www.w3.org/2000/svg">
<path d="M1.60631 58.4028C2.61579 55.7344 3.59005 53.15 4.56823 50.5774C4.9282 49.6227 5.58162 48.67 5.57967 47.7172C5.57771 46.7645 4.62105 46.0387 4.11631 45.1857C-4.8751 29.9476 1.42828 9.97717 17.531 2.71322C34.0525 -4.73854 53.1015 3.74422 58.6008 21.0012C63.9064 37.6479 53.6043 55.5055 36.4705 59.2304C28.4651 60.9696 20.9351 59.6451 13.9724 55.2883C13.5518 55.0242 13.2173 55.0927 12.8221 55.1983C9.27326 56.2221 5.72248 57.2473 2.16974 58.2737C2.01323 58.3187 1.85281 58.3461 1.60631 58.4028Z" fill="#DFBF62"/>
<path d="M38.3897 46.7918C36.8109 46.7351 34.6452 45.9956 32.6321 44.8805C24.6972 40.4963 18.5679 34.3377 14.5769 26.1425C13.8715 24.696 13.417 23.14 13.2329 21.5412C13.0177 19.6728 13.3699 18.0197 14.845 16.6972C15.7508 15.8834 16.5685 14.9737 17.441 14.1207C18.832 12.763 20.7453 12.7513 22.1363 14.1207C23.6701 15.6206 25.1876 17.1381 26.6887 18.6732C28.4025 20.4339 27.8469 22.9517 25.5677 23.9005C23.7483 24.6557 23.046 26.0877 23.6642 27.9521C24.6424 30.9043 26.7416 32.9839 29.187 34.7563C30.0519 35.3964 31.0208 35.8822 32.0511 36.1923C33.7336 36.6853 35.3339 35.9126 35.9756 34.2946C36.897 31.9646 39.4344 31.3875 41.2303 33.1306C42.7719 34.6214 44.2881 36.1375 45.7789 37.6791C47.1737 39.1092 47.1229 41.2417 45.6947 42.66C44.8281 43.5189 43.9203 44.3386 43.083 45.2229C42.009 46.3654 40.6923 46.8388 38.3897 46.7918Z" fill="#FEFEFE"/>
</svg>
