<svg width="40" height="40" viewBox="0 0 40 40" fill="none" xmlns="http://www.w3.org/2000/svg">
<path d="M20 40C31.0457 40 40 31.0457 40 20C40 8.9543 31.0457 0 20 0C8.9543 0 0 8.9543 0 20C0 31.0457 8.9543 40 20 40Z" fill="#DFBF62"/>
<path d="M20.6665 5C20.6921 5.76099 20.7153 6.52228 20.7443 7.28312C20.7649 7.82476 20.7885 8.36625 20.82 8.90728C20.8474 9.38519 20.8795 9.86279 20.9193 10.3398C20.9579 10.8014 21.0012 11.2623 21.0616 11.7213C21.2035 12.7975 21.4051 13.8603 21.8008 14.8776C22.2061 15.9197 22.7967 16.8411 23.6054 17.6148C24.4015 18.3764 25.3312 18.924 26.3701 19.289C27.0147 19.516 27.6765 19.6735 28.3491 19.7914C28.7922 19.869 29.2375 19.9307 29.6839 19.9826C30.0238 20.0221 30.3652 20.0459 30.7062 20.078C31.1853 20.1234 31.6658 20.1488 32.1462 20.1783C32.4883 20.1995 32.8308 20.2128 33.1733 20.2275C33.6417 20.2477 34.1103 20.2665 34.579 20.284C34.9393 20.2973 35.2997 20.307 35.6601 20.3189C35.7735 20.3227 35.8872 20.3286 36.0001 20.3341V20.6671C35.5416 20.6823 35.0828 20.6942 34.6243 20.7137C33.9468 20.7427 33.2688 20.7592 32.5917 20.7997C32.1212 20.8277 31.6504 20.8486 31.1802 20.8816C30.7507 20.9119 30.3218 20.9497 29.8935 20.995C29.3079 21.0556 28.725 21.1343 28.1465 21.2431C26.9474 21.4687 25.7965 21.8272 24.7568 22.4878C23.38 23.3623 22.4162 24.5746 21.817 26.0846C21.5721 26.7018 21.4025 27.341 21.272 27.992C21.1615 28.5445 21.0808 29.1017 21.0174 29.6612C20.972 30.0616 20.9364 30.4636 20.9054 30.8647C20.8532 31.5432 20.8146 32.2226 20.7834 32.9023C20.754 33.537 20.7293 34.1718 20.7092 34.8068C20.6962 35.2051 20.6806 35.6031 20.6662 36.0012H20.3332C20.3073 35.2529 20.2838 34.5044 20.2548 33.7561C20.2336 33.2146 20.2083 32.6733 20.1791 32.1319C20.1479 31.5609 20.1105 30.9901 20.058 30.4213C19.9768 29.5345 19.8692 28.6512 19.6825 27.7793C19.4297 26.5985 19.0257 25.4804 18.3281 24.4818C17.419 23.1799 16.199 22.2901 14.7183 21.7437C14.0522 21.498 13.3653 21.335 12.6677 21.211C12.0878 21.1078 11.5041 21.0339 10.9185 20.975C10.45 20.9278 9.97996 20.8939 9.50993 20.8624C8.88624 20.8208 8.2618 20.792 7.6375 20.7631C7.1817 20.7418 6.72543 20.7295 6.26933 20.7133L5 20.6665V20.3335C5.79369 20.3044 6.58738 20.2766 7.38091 20.2457C7.87199 20.2265 8.36322 20.2069 8.854 20.1797C9.39987 20.1494 9.9453 20.1135 10.4901 20.0649C10.8889 20.0294 11.2871 19.9906 11.6841 19.9396C12.87 19.7873 14.0401 19.5663 15.1449 19.0885C17.0511 18.2641 18.3882 16.8806 19.1663 14.9567C19.4323 14.299 19.6099 13.6157 19.7445 12.9201C19.8457 12.3965 19.9216 11.869 19.9817 11.3395C20.0271 10.9393 20.0619 10.538 20.0941 10.1362C20.143 9.52567 20.1766 8.91424 20.2086 8.30282C20.2307 7.87986 20.2434 7.45645 20.2592 7.03334C20.2844 6.35566 20.3092 5.67788 20.3335 5L20.6665 5Z" fill="#FEFEFE"/>
</svg>
